<svg width="211" height="175" viewBox="0 0 211 175" fill="none" xmlns="http://www.w3.org/2000/svg">
<g clip-path="url(#clip0_308_10187)">
<path d="M78.8355 108.961C77.7093 115.717 76.5168 122.473 75.3906 129.23C75.3906 129.76 75.3906 130.29 75.5894 130.687C75.4569 130.29 75.3906 129.76 75.3906 129.23C76.5168 122.473 77.6431 115.717 78.8355 108.961ZM76.0531 131.548C75.9206 131.349 75.7881 131.151 75.6556 130.952C75.7219 131.217 75.8544 131.416 76.0531 131.548Z" fill="white"/>
<path d="M192.185 116.38C190.462 120.884 188.806 125.454 186.951 130.621C192.052 124.063 198.611 122.341 206.495 122.076C205.7 124.063 205.435 125.918 204.441 127.176C201.857 130.488 199.207 133.866 196.027 136.648C192.914 139.364 189.071 140.225 184.831 138.967C183.97 138.702 182.314 139.563 181.651 140.424C179.333 143.338 177.345 146.452 175.027 149.763C182.049 146.12 188.939 146.253 196.359 149.697C195.166 151.088 194.305 152.413 193.112 153.34C188.409 157.116 183.241 159.699 177.014 159.699C174.629 159.699 172.642 158.838 170.721 157.447C169.992 156.917 168.468 156.718 167.806 157.182C164.891 159.169 162.108 161.421 159.061 163.806C167.011 162.481 173.304 165.263 179.2 170.297C178.207 171.092 177.478 171.953 176.55 172.35C170.588 175.132 164.295 176.126 158.001 173.874C156.013 173.145 154.159 171.489 152.701 169.9C151.509 168.575 150.382 168.111 148.792 168.575C146.739 169.171 144.685 169.701 142.698 170.43C140.975 171.092 140.114 170.43 139.584 168.575C140.445 168.31 141.306 167.979 142.168 167.714C144.155 167.051 146.143 166.257 148.262 165.727C150.515 165.197 150.78 163.74 150.979 161.819C151.244 158.639 151.376 155.327 152.237 152.347C153.827 146.915 157.471 142.941 162.44 140.225C162.837 140.026 163.301 139.894 164.228 139.629C162.705 146.981 162.771 154.201 158.796 160.759C161.843 158.308 164.957 156.056 167.806 153.34C168.534 152.612 168.601 150.558 168.203 149.366C165.421 140.093 167.077 131.747 172.84 124.129C173.304 123.533 173.437 122.738 173.768 122.076C174.165 122.341 174.563 122.606 174.96 122.871C175.49 129.958 177.412 136.98 175.689 144.199L176.153 144.464C177.942 141.682 179.929 138.967 181.32 136.052C181.784 135.059 181.055 133.204 180.393 132.078C175.292 123.533 175.424 114.724 179.002 105.782C179.2 105.318 179.532 104.854 180.128 103.861C182.91 111.279 186.488 117.903 186.488 125.785C187.415 123.136 188.078 120.42 189.204 117.837C191.125 113.664 189.734 110.749 186.488 107.835C182.049 103.861 180.393 98.2967 179.797 92.534C179.465 89.5534 179.73 86.5727 179.73 83.592C180.062 83.5257 180.393 83.3932 180.79 83.327C185.096 89.1559 190.197 94.3887 192.582 101.675C192.715 98.0318 192.98 94.3225 193.046 90.6794C193.112 88.891 191.986 87.6987 190.529 87.0363C181.254 82.5322 178.339 74.2524 177.478 64.7805C177.478 64.4493 177.61 64.1181 177.809 63.3232C182.976 67.8936 188.873 71.1393 191.854 77.4319C192.052 77.3656 192.251 77.2994 192.384 77.2331C191.655 73.3914 190.992 69.5496 190.065 65.774C189.866 65.0454 188.541 64.1843 187.68 64.1181C179.465 63.3895 175.225 57.958 172.046 51.2017C171.383 49.7445 170.787 48.221 170.389 46.4989C176.087 48.6185 181.983 50.1419 186.885 54.3149C185.56 51.2017 184.368 47.9561 182.711 45.0416C182.248 44.2468 180.128 43.8493 178.935 44.0481C173.569 44.8429 169.131 42.9883 165.421 39.4777C163.566 37.6892 162.108 35.5034 160.717 33.1188C166.613 33.1851 172.377 32.7214 177.875 35.6359C176.219 33.3176 174.762 30.8668 172.907 28.7472C172.377 28.151 170.522 28.2173 169.528 28.6809C162.837 31.5954 155.086 28.5484 150.714 22.7858C150.581 22.6533 150.581 22.3883 150.515 22.2559C152.502 20.4012 161.446 19.8051 166.149 21.1298C164.493 18.4141 162.042 16.5594 159.326 16.0958C153.165 15.036 149.256 11.1279 146.54 5.82891C145.679 4.17297 145.149 2.31831 144.486 0.596134C144.884 0.397421 145.016 0.198708 145.083 0.264946C150.184 1.85465 155.417 3.1794 159.326 7.15367C161.247 9.07456 162.638 11.3266 162.638 14.2411C162.638 14.771 162.903 15.4334 163.301 15.8308C165.686 18.2154 168.137 20.4674 170.588 22.7858C167.408 15.897 166.282 8.67713 167.872 1.19227C168.071 1.0598 168.269 0.99356 168.534 0.861085C169.992 2.51703 171.582 4.10673 172.907 5.82891C176.352 10.3993 178.472 15.4334 178.538 21.1961C178.538 22.9845 178.008 24.9054 177.213 26.4951C176.219 28.5484 176.285 30.2044 177.544 32.059C179.267 34.5761 180.857 37.1593 182.711 39.6764C181.254 32.2578 181.519 25.1041 185.428 18.1491C185.891 18.5465 186.289 18.7453 186.488 19.0765C190.33 25.8327 191.854 33.1188 191.191 40.8024C191.059 42.7233 189.866 44.6442 188.74 46.3001C187.746 47.6911 187.415 49.0821 187.879 50.5394C188.806 53.5201 189.999 56.4345 190.86 58.9515C191.39 55.7059 191.721 52.0628 192.582 48.486C193.444 44.8429 195.829 41.8622 198.545 38.4179C199.141 40.6037 199.936 42.2596 200.002 43.9156C200.267 48.8172 200.532 53.785 200.333 58.6204C200.135 62.131 198.412 65.1779 195.762 67.5624C194.04 69.0859 193.709 70.9406 194.04 73.1926C194.437 76.0409 194.636 78.8891 195.034 81.8698C196.624 74.0537 200.4 67.6949 207.356 62.9258C207.554 63.9194 207.819 64.7142 207.886 65.4428C208.151 72.2653 206.759 78.8229 203.712 84.983C202.387 87.6325 200.532 89.7521 197.551 90.6794C195.829 91.2093 195.63 92.7328 195.497 94.1238C195.166 97.9655 194.901 101.741 194.636 105.583C195.762 103.861 196.889 102.006 198.214 100.284C201.062 96.4421 204.838 93.7263 209.277 92.0042C209.873 91.7392 210.602 91.8054 211.264 91.7392V94.19C209.409 98.4954 207.687 102.867 205.567 107.04C204.573 108.961 203.05 110.749 201.327 112.008C199.671 113.266 197.485 114.128 195.431 114.459C193.642 114.591 192.649 115.121 192.185 116.38Z" fill="#F9FFFE" fill-opacity="0.1"/>
<path d="M71.4819 168.509C71.0182 170.231 70.3557 171.092 68.5008 170.43C66.5133 169.701 64.4596 169.171 62.406 168.575C60.7498 168.045 59.3585 168.31 58.3648 169.9C56.8411 172.35 54.3899 173.675 51.6738 174.271C45.7777 175.596 40.0804 174.867 34.648 172.284C34.118 172.085 33.7206 171.688 33.2568 171.423C32.7931 171.092 32.3956 170.695 31.7994 170.231C37.6954 165.131 43.989 162.282 51.9388 163.673C48.8251 161.289 46.1089 159.103 43.194 157.05C42.5978 156.652 41.0741 156.586 40.5441 157.05C37.2317 159.964 33.3893 160.03 29.4807 159.037C23.9158 157.646 18.9472 155.129 15.3699 150.426C15.2374 150.227 15.1711 149.962 14.8399 149.366C21.9284 146.054 28.8182 145.922 35.9067 149.631C33.4556 146.187 31.2694 142.875 28.8844 139.762C28.3545 139.099 26.8308 138.569 26.102 138.834C22.7896 139.894 19.676 139.43 16.7611 137.774C11.5275 134.727 7.75133 130.223 5.30015 124.659C4.96891 123.931 4.90266 123.136 4.57142 122.01C12.1899 122.209 18.7485 123.997 23.9158 130.488C22.0609 125.322 20.4047 120.818 18.6823 116.247C18.2185 115.055 17.291 114.194 15.6348 114.326C13.1837 114.459 11.13 113.333 9.40753 111.61C4.37268 106.576 1.32527 100.35 0.066553 93.3289C0.000304908 92.799 0.066553 92.2691 0.066553 91.3418C8.01632 93.5276 12.9187 98.8266 16.5623 105.715C16.2973 101.741 16.0323 97.8993 15.7011 94.0575C15.5686 92.2691 14.8399 91.143 12.9849 90.2157C11.0637 89.2884 9.14253 87.6324 8.08257 85.7778C4.24018 79.2865 2.98147 72.1991 3.31271 64.7804C3.31271 64.4492 3.37896 64.1181 3.51145 63.7869C3.5777 63.5882 3.7102 63.4557 3.97519 62.992C10.7325 67.5624 14.5749 73.855 16.2311 81.7373C16.5623 78.2267 17.0261 74.7823 17.2248 71.2717C17.291 70.2782 16.7611 68.9534 16.0986 68.291C10.4012 63.1907 9.93751 56.5007 10.4012 49.6782C10.6 46.4326 11.395 43.1869 11.9912 40.0075C12.0574 39.6101 12.3887 39.3452 12.7199 38.749C18.2848 44.6442 20.4047 51.5329 20.0735 59.4152C21.1997 56.302 22.4584 53.2551 23.2534 50.0094C23.5184 48.8834 22.9884 47.2937 22.2596 46.3001C20.6034 44.048 19.676 41.5972 19.7422 38.8815C19.8085 32.2577 21.0009 25.9651 24.1146 20.0038C24.4458 19.3414 24.9096 18.8115 25.572 17.8179C29.7457 24.9053 29.9444 32.1253 28.6857 39.6101C30.6069 36.6294 32.6606 33.715 34.383 30.668C34.8468 29.8732 34.9793 28.2835 34.4493 27.5548C31.8656 23.7131 32.3293 19.6726 33.4556 15.6321C35.0455 9.80315 38.2254 4.90156 43.194 0.529872C44.9165 8.61087 43.7903 15.7645 40.6766 22.587C43.1278 20.2687 45.6452 17.8841 48.1626 15.4334C48.4276 15.1684 48.5601 14.7047 48.5601 14.3073C48.5601 10.3331 50.8125 7.61731 53.7275 5.43146C57.4374 2.64948 62.0085 1.72215 66.3808 0.132446C65.8509 3.97423 64.3272 7.28612 61.876 10.1343C58.9611 13.5787 55.3174 15.4334 50.8788 16.4269C48.5601 16.9568 46.7052 19.1427 44.7177 20.8648C50.2826 19.1427 55.4499 20.7324 61.081 21.6597C57.9673 26.2301 54.1912 28.9458 49.2888 29.4095C46.9039 29.6745 44.3865 29.1446 42.0678 28.5484C39.2191 27.8198 38.6229 27.7536 36.9005 30.2044C35.708 31.9265 34.5155 33.715 33.3893 35.6358C38.6229 32.5889 44.4527 33.0526 50.1501 32.5889C50.1501 33.1188 50.2826 33.5162 50.1501 33.7812C47.3014 38.6165 43.459 42.3921 37.8279 43.6506C36.0392 44.048 34.0518 43.9156 32.1306 43.7831C28.9507 43.5844 28.6857 43.6506 27.427 46.4988C26.3008 49.0159 25.3071 51.5329 24.3796 54.1824C29.0169 50.0094 34.9793 48.6184 40.3454 46.1014C40.4779 46.2339 40.6766 46.3664 40.8753 46.5651C40.2129 48.1548 39.6166 49.7445 38.8879 51.3342C36.9005 55.5734 34.5155 59.5477 30.2757 61.7997C28.487 62.7933 26.367 63.3232 24.3133 63.7206C22.1271 64.1843 20.7359 65.0454 20.4047 67.4962C20.0072 70.7418 19.2785 73.9212 18.881 77.2994C22.1272 71.1393 28.0232 67.8274 32.9918 63.5219C33.1906 63.5882 33.4556 63.6544 33.6543 63.7206C33.3893 65.774 33.3231 67.8274 32.9256 69.8145C31.7331 75.7759 29.1494 81.0087 24.2471 84.7842C23.1209 85.6453 21.7959 86.2414 20.5372 86.9038C18.8147 87.8312 17.8873 89.2221 18.0198 91.2093C18.2185 94.6536 18.351 98.0318 18.7485 101.542C20.8684 94.2562 26.0358 89.0897 30.2094 83.1945C30.4744 83.1945 30.6731 83.1945 30.9381 83.2607C31.1369 84.9829 31.5344 86.7714 31.5344 88.4935C31.6669 93.8588 30.6069 99.0253 27.7582 103.662C26.5658 105.649 24.9758 107.371 23.3196 109.027C21.2659 111.014 20.3385 113.068 21.4647 115.982C22.6571 119.162 23.5846 122.407 24.8433 125.653C24.7108 117.903 28.2882 111.279 30.8056 104.391C31.0706 104.324 31.2694 104.324 31.5344 104.258C32.2631 106.179 33.1906 108.034 33.6543 109.955C35.5755 117.638 35.1118 125.057 30.7394 131.945C29.4144 133.999 29.2157 135.92 30.8056 138.039C32.3293 140.026 33.5881 142.212 35.2443 144.199C33.7868 136.913 35.708 129.892 36.1717 122.275C37.0992 123.003 37.6292 123.335 38.0267 123.798C43.9228 131.416 45.844 139.828 42.929 149.167C42.2666 151.353 42.4653 153.075 44.519 154.533C47.2352 156.453 49.7526 158.639 52.535 160.494C48.3614 154.135 48.4276 146.915 46.9039 139.43C51.1438 141.086 53.86 143.537 56.1124 146.65C58.9611 150.624 60.4185 155.062 60.286 159.964C60.2198 164.667 60.286 164.733 64.7246 166.323C66.8446 167.184 69.097 167.78 71.4819 168.509Z" fill="#F9FFFE" fill-opacity="0.1"/>
</g>
<defs>
<clipPath id="clip0_308_10187">
<rect width="211" height="175" fill="white"/>
</clipPath>
</defs>
</svg>
