<svg width="21" height="27" viewBox="0 0 21 27" fill="none" xmlns="http://www.w3.org/2000/svg">
<g clip-path="url(#clip0_169_460)">
<path d="M9.50459 0.290186C10.1061 -0.0947754 10.8936 -0.0947754 11.4952 0.290186L12.4686 0.907178C12.7968 1.11284 13.1796 1.21304 13.5679 1.19194L14.7327 1.12339C15.4546 1.0812 16.1327 1.46089 16.4554 2.08315L16.9804 3.09038C17.1554 3.42788 17.4397 3.69683 17.7843 3.86558L18.8397 4.3771C19.4851 4.68823 19.8788 5.34214 19.8351 6.03823L19.764 7.16148C19.7421 7.53589 19.846 7.9103 20.0593 8.22144L20.7046 9.16011C21.1038 9.74019 21.1038 10.4996 20.7046 11.0796L20.0593 12.0236C19.846 12.34 19.7421 12.7091 19.764 13.0835L19.8351 14.2068C19.8788 14.9029 19.4851 15.5568 18.8397 15.8679L17.7952 16.3742C17.4452 16.5429 17.1663 16.8171 16.9913 17.1494L16.4608 18.1671C16.1382 18.7894 15.4601 19.1691 14.7382 19.1269L13.5733 19.0583C13.1851 19.0373 12.7968 19.1375 12.4741 19.3431L11.5007 19.9654C10.8991 20.3503 10.1116 20.3503 9.51006 19.9654L8.53115 19.3431C8.20302 19.1375 7.82021 19.0373 7.43193 19.0583L6.26709 19.1269C5.54521 19.1691 4.86709 18.7894 4.54443 18.1671L4.01943 17.1599C3.84443 16.8224 3.56006 16.5535 3.21552 16.3847L2.16006 15.8732C1.51474 15.5621 1.12099 14.9082 1.16474 14.2121L1.23584 13.0888C1.25771 12.7144 1.15381 12.34 0.940524 12.0289L0.30068 11.0849C-0.0985385 10.5048 -0.0985385 9.74546 0.30068 9.16538L0.940524 8.22671C1.15381 7.9103 1.25771 7.54116 1.23584 7.16675L1.16474 6.04351C1.12099 5.34741 1.51474 4.69351 2.16006 4.38237L3.20459 3.87612C3.55459 3.7021 3.83896 3.42788 4.01396 3.09038L4.53896 2.08315C4.86162 1.46089 5.53974 1.0812 6.26162 1.12339L7.42646 1.19194C7.81474 1.21304 8.20302 1.11284 8.52568 0.907178L9.50459 0.290186ZM14.8749 10.1251C14.8749 9.00626 14.414 7.93321 13.5935 7.14204C12.773 6.35087 11.6602 5.9064 10.4999 5.9064C9.33958 5.9064 8.22678 6.35087 7.40631 7.14204C6.58584 7.93321 6.1249 9.00626 6.1249 10.1251C6.1249 11.244 6.58584 12.3171 7.40631 13.1083C8.22678 13.8994 9.33958 14.3439 10.4999 14.3439C11.6602 14.3439 12.773 13.8994 13.5935 13.1083C14.414 12.3171 14.8749 11.244 14.8749 10.1251ZM0.0709927 23.2982L2.42802 17.8929C2.43896 17.8982 2.44443 17.9035 2.4499 17.914L2.9749 18.9212C3.61474 20.1447 4.94365 20.8882 6.36552 20.8091L7.53037 20.7406C7.54131 20.7406 7.55771 20.7406 7.56865 20.7511L8.54209 21.3734C8.82099 21.5474 9.11631 21.6845 9.42256 21.7794L7.36631 26.4886C7.24052 26.7787 6.96162 26.9738 6.63896 27.0001C6.31631 27.0265 6.00459 26.8841 5.82959 26.6205L4.06865 24.0207L1.00068 24.4583C0.688961 24.5005 0.377243 24.3792 0.180368 24.1419C-0.0165073 23.9046 -0.0547885 23.5777 0.065524 23.2982H0.0709927ZM13.6335 26.4834L11.5772 21.7794C11.8835 21.6845 12.1788 21.5527 12.4577 21.3734L13.4311 20.7511C13.4421 20.7458 13.453 20.7406 13.4694 20.7406L14.6343 20.8091C16.0561 20.8882 17.3851 20.1447 18.0249 18.9212L18.5499 17.914C18.5554 17.9035 18.5608 17.8982 18.5718 17.8929L20.9343 23.2982C21.0546 23.5777 21.0108 23.8994 20.8194 24.1419C20.628 24.3845 20.3108 24.5058 19.9991 24.4583L16.9311 24.0207L15.1702 26.6152C14.9952 26.8789 14.6835 27.0212 14.3608 26.9949C14.0382 26.9685 13.7593 26.7681 13.6335 26.4834Z" fill="#083D31"/>
</g>
<defs>
<clipPath id="clip0_169_460">
<rect width="21" height="27" fill="white"/>
</clipPath>
</defs>
</svg>
