<svg width="39" height="36" viewBox="0 0 39 36" fill="none" xmlns="http://www.w3.org/2000/svg">
<g clip-path="url(#clip0_189_10004)">
<path d="M38.99 28.5576C38.9696 29.83 38.6339 31.0216 37.8606 32.0617C37.6673 32.3243 37.4231 32.5565 37.1992 32.7888C37.0059 32.9907 36.7922 33.0008 36.548 32.8595C34.6759 31.7891 32.6409 31.4154 30.5144 31.4962C29.2527 31.5467 28.0114 31.7184 26.8311 32.1627C24.2264 33.1422 21.6216 34.1318 19.0169 35.1215C17.0429 36.4039 15.0182 36.1111 12.9832 35.2931C10.4497 34.2732 8.2214 32.7585 6.12539 31.062C4.91459 30.0825 3.75466 29.0424 2.66596 27.9316C1.48568 26.74 0.478374 25.4171 0.0205078 23.761V23.0036C0.376626 22.1958 0.905715 21.9433 1.90285 22.1251C3.1747 22.3574 4.29392 22.9532 5.3928 23.5792C7.49898 24.7809 9.4729 26.1745 11.3349 27.7296C12.3117 28.5374 13.4207 28.9111 14.6213 29.0525C16.2595 29.2443 17.8264 28.9111 19.3323 28.285C19.373 28.2648 19.4137 28.2345 19.5459 28.1638C18.5183 28.1638 17.5924 28.2143 16.6767 28.1537C14.662 28.0325 12.7187 27.6084 10.9482 26.5683C10.3072 26.1947 9.90024 25.6898 9.71709 24.9728C9.37115 23.6297 10.2869 22.3978 11.6808 22.3978C13.614 22.3978 15.5371 22.4482 17.4703 22.4684C18.8744 22.4785 20.2175 22.1857 21.469 21.5394C22.8731 20.8123 24.3383 20.3781 25.9255 20.2468C27.5637 20.1156 29.1306 20.3781 30.5856 21.085C33.0479 22.2766 35.673 22.7613 38.3693 22.9229C38.9391 22.9633 39.0103 23.0238 39.0103 23.6095C38.99 25.2555 39.0103 26.9116 38.99 28.5576Z" fill="white"/>
<path d="M31.9594 13.4508C30.3212 14.2586 28.561 14.602 26.7397 14.6727C26.4446 14.6828 26.2615 14.7736 26.0783 15.0059C25.0608 16.3691 23.7178 17.3184 22.1407 17.9344C19.5258 18.9543 16.8091 19.1865 14.0619 18.7422C12.3118 18.4595 10.694 17.7627 9.39165 16.5307C7.59071 14.8241 7.0311 12.7742 7.78403 10.391C7.96718 9.80533 8.12998 9.20954 8.25207 8.60365C8.39452 7.90687 8.22155 7.29088 7.66194 6.78598C7.27529 6.43254 6.8683 6.06901 6.54271 5.65498C6.25782 5.29145 5.9831 4.87742 5.87117 4.4533C5.51505 2.94867 6.76655 1.71669 8.29277 2.07013C8.68959 2.16101 9.07623 2.36297 9.412 2.59523C10.1548 3.10014 10.8568 3.66564 11.5792 4.20084C12.495 4.88752 12.9528 5.79635 12.9528 6.93745C12.9528 7.86648 12.9528 8.80561 12.9528 9.77504H14.4994C14.4587 9.52258 14.418 9.28023 14.3875 9.03787C14.1433 7.42216 14.6011 5.96802 15.4965 4.63506C15.9442 3.97868 16.6565 3.69593 17.2669 3.8777C17.9283 4.06957 18.4981 4.77644 18.5083 5.5338C18.5184 6.34166 18.4574 7.14951 18.4065 7.95737C18.3556 8.76522 18.6507 9.19944 19.4444 9.4317C19.7089 9.51248 19.9734 9.58317 20.3397 9.68415C19.6784 8.79551 19.3426 7.91697 19.4138 6.91725C19.4647 6.21038 19.6885 5.554 20.0752 4.9683C20.3296 4.57448 20.7264 4.37251 21.2046 4.38261C21.6828 4.40281 22.161 4.4432 22.6698 4.48359C22.7613 4.27153 22.8326 4.05947 22.9241 3.8575C23.8093 1.84797 25.2542 0.494812 27.4621 0.100983C28.9069 -0.16157 30.2805 0.111081 31.532 0.828052C33.7094 2.07013 35.1441 3.92819 35.6223 6.39215C36.2022 9.4216 34.7778 12.0673 31.9594 13.4508Z" fill="white"/>
<path d="M11.7112 21.5596C10.8565 21.6808 10.1036 21.9938 9.53382 22.6098C8.94368 23.2359 8.78088 24.0135 8.8928 24.892C6.50173 23.4076 4.27345 21.6404 1.32275 21.2668C1.44485 20.6912 1.7501 20.2468 2.29953 20.1055C2.7981 19.9742 3.32719 20.0045 3.9275 19.9641C4.40572 18.6513 5.19935 18.2171 6.57295 18.5302C7.58025 18.7523 8.47564 19.237 9.30997 19.8025C10.124 20.3478 10.9176 20.9436 11.7112 21.5596Z" fill="white"/>
</g>
<defs>
<clipPath id="clip0_189_10004">
<rect width="39" height="36" fill="white"/>
</clipPath>
</defs>
</svg>
