<svg width="36" height="35" viewBox="0 0 36 35" fill="none" xmlns="http://www.w3.org/2000/svg">
<g clip-path="url(#clip0_191_10092)">
<path d="M18.4759 29.3894C17.0813 30.394 14.6095 30.8584 12.3685 29.162C12.282 29.2473 12.1858 29.3325 12.0896 29.4273C10.3007 31.1996 8.50211 32.9529 6.72278 34.7347C6.45348 35.0095 6.20341 35.0758 5.83793 34.9337C4.11632 34.2797 2.38509 33.6448 0.653855 33.0287C0.317226 32.9055 0.172957 32.716 0.163339 32.3843C0.124867 31.465 0.0767775 30.5362 0.00945183 29.6169C-0.00978407 29.3325 0.0767775 29.124 0.278755 28.925C2.16387 27.0769 4.02976 25.2288 5.90526 23.3713C6.00144 23.2765 6.10723 23.2007 6.22265 23.1059C4.4818 20.8977 4.90499 18.3956 6.03029 16.9456C7.30948 15.306 9.56008 14.5762 11.5318 15.1828C13.7439 15.8652 14.8788 17.5806 15.0135 20.4333C17.7257 20.3859 19.6397 21.5327 20.4188 24.1674C20.967 26.0723 20.111 28.2142 18.4759 29.3894Z" fill="white"/>
<path d="M35.7015 6.13189C33.826 7.9705 31.9601 9.80911 30.0942 11.6572C29.998 11.752 29.8826 11.8183 29.7768 11.9036C31.4311 13.9886 31.2003 16.4338 29.9884 18.0544C28.7284 19.7414 26.5067 20.4427 24.4677 19.8078C22.2363 19.1064 21.0629 17.3342 21.0052 14.5762C18.0525 14.6521 16.1674 13.2968 15.523 10.4346C15.0998 8.56757 16.052 6.5868 17.7351 5.50638C19.3702 4.46386 21.7073 4.35961 23.6405 5.85704C23.7271 5.77174 23.8233 5.69593 23.9099 5.60115C25.7084 3.82888 27.5166 2.05661 29.3055 0.274858C29.5652 0.00949097 29.8057 -0.0568508 30.1615 0.0758327C31.8735 0.720295 33.5951 1.35528 35.3167 1.96183C35.7111 2.10399 35.8553 2.33145 35.865 2.72002C35.8938 3.59194 35.9419 4.47334 36.0092 5.34526C36.0189 5.66749 35.9323 5.89495 35.7015 6.13189Z" fill="white"/>
<path d="M24.3719 34.5167C24.0545 34.564 23.9102 34.384 23.8621 34.0996C23.7083 33.095 23.5544 32.0904 23.4005 31.0858C23.2947 30.3656 23.1889 29.6358 23.0735 28.9155C23.0158 28.5269 23.1312 28.29 23.4293 28.2711C23.766 28.2426 23.8814 28.4511 23.9198 28.7544C24.1795 30.5172 24.4585 32.28 24.7181 33.9764C24.747 34.2892 24.6508 34.4693 24.3719 34.5167Z" fill="white"/>
<path d="M12.3876 6.93746C12.0702 6.97537 11.9355 6.77635 11.8874 6.5015C11.7143 5.37369 11.5508 4.25536 11.3777 3.12755C11.2911 2.53996 11.195 1.96183 11.1084 1.37424C11.0892 1.2226 11.0603 1.03305 11.1276 0.928799C11.2142 0.805593 11.4065 0.691864 11.5508 0.691864C11.7913 0.691864 11.9067 0.890889 11.9452 1.12782C12.0894 2.09452 12.2337 3.07069 12.378 4.04686C12.503 4.85244 12.628 5.65802 12.7338 6.38778C12.7627 6.71948 12.6569 6.90903 12.3876 6.93746Z" fill="white"/>
<path d="M35.0475 23.9589C35.0091 24.2337 34.8263 24.3664 34.5378 24.3285C33.3259 24.1484 32.1237 23.9778 30.9118 23.7977C30.354 23.7124 29.7961 23.6271 29.2479 23.5513C28.8247 23.4945 28.6708 23.3428 28.7093 23.0396C28.7478 22.7458 28.9498 22.6415 29.3729 22.7078C30.8637 22.9258 32.3545 23.1438 33.8453 23.3713C34.105 23.4092 34.3647 23.4471 34.6244 23.485C34.9033 23.5229 35.086 23.6745 35.0475 23.9589Z" fill="white"/>
<path d="M7.11725 12.1405C7.10764 12.3964 6.86719 12.5575 6.56903 12.5102C4.78009 12.2448 3.00077 11.9889 1.21183 11.7235C0.923292 11.6856 0.740551 11.534 0.779022 11.2307C0.817494 10.9559 1.00985 10.8611 1.27916 10.8706C2.53911 11.0601 3.8183 11.2402 5.09748 11.4297C5.62647 11.5056 6.15546 11.5909 6.69406 11.6667C6.97299 11.7046 7.12687 11.8562 7.11725 12.1405Z" fill="white"/>
<path d="M9.94496 9.21202C9.95458 9.61955 9.59871 9.83753 9.31979 9.68589C9.24285 9.6385 9.1659 9.57216 9.09858 9.50582C8.11755 8.53913 7.14613 7.58191 6.1651 6.61522C6.09778 6.54888 5.99198 6.47306 5.98236 6.39724C5.97274 6.22664 5.96313 5.98971 6.05931 5.89494C6.1651 5.80016 6.39593 5.82859 6.56906 5.83807C6.63638 5.83807 6.69409 5.93285 6.76142 5.98971C7.75207 6.96588 8.7331 7.94205 9.71413 8.90875C9.81993 9.013 9.89687 9.14568 9.94496 9.21202Z" fill="white"/>
<path d="M29.9695 29.0198C29.8445 29.1619 29.7771 29.3231 29.6521 29.3704C29.5367 29.4178 29.3059 29.4273 29.2289 29.3515C28.1325 28.2995 27.0456 27.2191 25.9684 26.1481C25.7857 25.9681 25.8242 25.7122 26.0357 25.5984C26.18 25.5131 26.4301 25.5131 26.5744 25.589C26.7667 25.6837 26.911 25.8922 27.0649 26.0439C27.9305 26.8968 28.7961 27.7498 29.6521 28.6028C29.7675 28.707 29.8445 28.8492 29.9695 29.0198Z" fill="white"/>
</g>
<defs>
<clipPath id="clip0_191_10092">
<rect width="36" height="35" fill="white"/>
</clipPath>
</defs>
</svg>
