<svg width="39" height="39" viewBox="0 0 39 39" fill="none" xmlns="http://www.w3.org/2000/svg">
<g clip-path="url(#clip0_189_10078)">
<path d="M37.0871 16.4328C35.388 15.5898 33.353 16.2703 32.5288 17.9766C32.3864 18.2711 32.2338 18.3727 31.9082 18.3625C31.1756 18.332 30.443 18.3523 29.6697 18.3523C29.4255 16.4125 28.7235 14.6656 27.5432 13.1625C28.4182 12.2891 29.2932 11.4156 30.1581 10.5523C30.677 10.7555 31.2163 11.0398 31.7962 11.2023C34.9708 12.0961 38.1657 10.1258 38.8779 6.86563C39.5698 3.7375 37.4026 0.589063 34.2178 0.0710938C34.1364 0.0609375 34.055 0.0203125 33.9737 0H32.6001C32.3355 0.0710938 32.0608 0.121875 31.7962 0.203125C28.1537 1.20859 26.4545 5.33203 28.3572 8.60234C28.3979 8.68359 28.4487 8.75469 28.4691 8.79531C27.5737 9.68906 26.6987 10.5523 25.8033 11.4461C24.3279 10.2883 22.5982 9.56719 20.6548 9.33359V6.64219C21.6723 6.23594 22.3947 5.53516 22.7509 4.47891C23.3817 2.56953 22.2014 0.517969 20.2377 0.08125C20.1359 0.0609375 20.0444 0.0304688 19.9528 0H19.0371C18.7522 0.0914063 18.4469 0.152344 18.1722 0.274219C16.88 0.863281 16.1372 1.86875 16.0864 3.29063C16.0253 4.73281 16.707 5.78906 17.9687 6.47969C18.0908 6.55078 18.2231 6.60156 18.3553 6.6625V9.23203C17.4294 9.50625 16.4933 9.69922 15.6285 10.0648C14.7636 10.4203 13.9496 10.9383 13.0543 11.4258C12.5455 10.918 11.9452 10.3289 11.3754 9.72969C11.3144 9.6586 11.3653 9.45547 11.4059 9.32344C12.0978 7.33281 10.9379 5.26094 8.87242 4.83438C7.4683 4.53984 6.00313 5.17969 5.26037 6.40859C4.51761 7.62734 4.62953 9.22188 5.51474 10.3289C6.4203 11.4664 7.91599 11.893 9.27942 11.3852C9.56431 11.2734 9.72711 11.3141 9.92043 11.5273C10.4292 12.0555 10.9583 12.5633 11.4975 13.1016C10.2765 14.6453 9.56431 16.382 9.33029 18.332H6.64414C6.24733 17.3367 5.55544 16.6055 4.51761 16.25C2.6251 15.5898 0.569789 16.7375 0.0915732 18.7078C0.0610488 18.8195 0.0305244 18.9211 0 19.0328V19.9469C0.0610488 20.1602 0.111923 20.3836 0.193321 20.5969C0.641012 21.907 1.85181 22.8313 3.21524 22.9125C4.60918 22.9938 5.88103 22.2523 6.49152 20.9828C6.5424 20.8711 6.60344 20.7594 6.65432 20.6375H9.32012C9.56431 22.5672 10.2664 24.3039 11.4873 25.8578C10.8972 26.457 10.3172 27.0461 9.70676 27.625C9.64571 27.6859 9.45239 27.6453 9.34047 27.6047C7.45813 26.9344 5.47404 27.9195 4.90425 29.8086C4.47691 31.2203 5.01618 32.7539 6.22698 33.607C7.43778 34.4602 9.09627 34.4094 10.2765 33.5055C11.4365 32.6117 11.8842 31.0781 11.3754 29.6766C11.2737 29.4023 11.3246 29.25 11.528 29.0672C12.0571 28.5594 12.5659 28.0313 13.1051 27.493C14.6517 28.7016 16.3814 29.4227 18.3248 29.6563V32.3477C17.3887 32.7234 16.6765 33.3633 16.3 34.3281C15.5369 36.2781 16.6867 38.4211 18.742 38.9086C18.8437 38.9289 18.9353 38.9594 19.0269 38.9898H19.9426C20.1665 38.9188 20.4005 38.868 20.6345 38.7867C21.9267 38.3297 22.8322 37.1211 22.9136 35.7805C22.995 34.3891 22.2523 33.1195 20.9906 32.5C20.8787 32.4492 20.7668 32.3883 20.6447 32.3273V29.6563C22.5677 29.4125 24.3076 28.7117 25.8643 27.4828C26.4545 28.0719 27.0548 28.6508 27.6246 29.2602C27.6856 29.3211 27.6449 29.5141 27.6042 29.6258C26.9429 31.4844 27.879 33.4344 29.7308 34.0438C31.1552 34.5109 32.7018 34.0031 33.5768 32.7844C34.4417 31.5758 34.4213 29.9305 33.526 28.732C32.6408 27.5539 31.0942 27.0766 29.6799 27.5945C29.4153 27.6961 29.2627 27.6656 29.0592 27.4625C28.5505 26.9242 28.001 26.4063 27.472 25.8781C28.6929 24.3242 29.4052 22.5977 29.6494 20.6273C30.5142 20.6273 31.3791 20.6172 32.2338 20.6375C32.3152 20.6375 32.4067 20.8203 32.4678 20.932C33.1088 22.1813 34.1263 22.882 35.5304 22.8922C36.9345 22.9023 37.9825 22.232 38.6235 20.9828C39.4884 19.3172 38.7762 17.2758 37.0871 16.4328ZM33.3021 4.57031C33.9228 4.58047 34.4315 5.09844 34.4315 5.71797C34.4315 6.3375 33.9126 6.85547 33.2919 6.85547C32.6611 6.85547 32.132 6.31719 32.1524 5.6875C32.1524 5.06797 32.6815 4.56016 33.3021 4.57031ZM17.2259 13.7922C17.8466 13.8023 18.3553 14.3203 18.3553 14.9398C18.3553 15.5695 17.8161 16.0977 17.1852 16.0773C16.5646 16.057 16.066 15.5289 16.0762 14.9094C16.0864 14.2898 16.6053 13.782 17.2259 13.7922ZM19.4746 25.2078C17.5821 25.1977 16.0558 23.6336 16.066 21.7445C16.0864 19.8758 17.6329 18.3523 19.5153 18.3625C21.4078 18.3727 22.934 19.9266 22.9238 21.8258C22.9035 23.6945 21.3569 25.218 19.4746 25.2078ZM24.0634 18.3523C23.4326 18.3523 22.9136 17.8141 22.9238 17.1742C22.9442 16.5547 23.4733 16.057 24.0939 16.0672C24.7146 16.0773 25.2233 16.6055 25.2132 17.225C25.203 17.8445 24.6739 18.3625 24.0634 18.3523Z" fill="white"/>
<path d="M20.6345 21.775C20.6447 22.4047 20.1055 22.943 19.4746 22.9328C18.854 22.9227 18.3452 22.4047 18.3452 21.7852C18.3452 21.1656 18.8641 20.6477 19.4848 20.6477C20.1156 20.6375 20.6345 21.1555 20.6345 21.775Z" fill="white"/>
</g>
<defs>
<clipPath id="clip0_189_10078">
<rect width="39" height="39" fill="white"/>
</clipPath>
</defs>
</svg>
