<svg width="40" height="36" viewBox="0 0 40 36" fill="none" xmlns="http://www.w3.org/2000/svg">
<g clip-path="url(#clip0_186_9992)">
<path d="M33.4169 7.97875C33.1035 7.8012 32.8422 7.79076 32.5287 8.03097C31.4002 8.9187 30.2612 9.78554 29.1223 10.6524C29.0178 10.7359 28.9028 10.809 28.7356 10.9344C28.767 10.7673 28.7774 10.6942 28.7879 10.621C29.0178 9.46178 28.7252 8.46961 27.9415 7.58188C26.9593 6.49572 26.0084 5.37823 25.0784 4.25029C24.2111 3.2059 23.1139 2.84037 21.8077 3.04925C21.5674 3.09102 21.4316 3.01791 21.2748 2.82993C20.6897 2.11974 20.0627 1.43045 19.488 0.709821C19.0073 0.114521 18.3908 -0.0943563 17.6803 0.0414139C16.1651 0.323398 15.0888 1.21113 14.4619 2.6106C14.1066 3.41478 14.1797 4.16674 14.8171 4.84559C15.371 5.43045 15.8621 6.06752 16.4054 6.7046C13.2288 9.42 10.0731 12.1041 6.907 14.8195C6.32184 14.1302 5.74713 13.4722 5.18286 12.8038C4.74399 12.2816 4.16928 12.0623 3.54232 12.1981C2.95716 12.3234 2.36155 12.5427 1.84953 12.8456C0.898642 13.3991 0.31348 14.2868 0 15.3521V16.0623C0.261233 16.4487 0.491118 16.856 0.77325 17.2216C1.25392 17.8273 1.75549 18.4122 2.2675 18.9761C2.46604 19.1955 2.49739 19.3834 2.41379 19.6654C2.08986 20.7725 2.16301 21.8482 2.92581 22.7673C4.00209 24.0623 5.09927 25.3365 6.19645 26.6106C6.64577 27.1328 7.22048 27.467 7.88924 27.5819C8.26541 27.6445 8.65204 27.655 9.03866 27.6863C9.08046 27.7281 9.11181 27.7699 9.15361 27.8116C9.03866 27.8743 8.90282 27.9056 8.81923 27.9996C7.79519 28.9605 6.77116 29.9422 5.75758 30.9135C5.3396 31.3103 5.26646 31.6445 5.61129 32.0936C6.31139 33.0022 7.61756 33.7542 8.87148 32.5949C9.65517 31.8743 10.2299 31.0179 10.7524 30.1093C10.8882 29.8691 10.8673 29.702 10.7106 29.4827C10.2821 28.8769 9.87461 28.2607 9.46709 27.6445C9.48798 27.6028 9.50888 27.561 9.52978 27.5297C9.70742 27.5819 9.91641 27.6028 10.0522 27.7072C11.6092 28.8665 13.1661 30.0362 14.7126 31.2163C15.768 32.0205 16.907 32.5114 18.2654 32.2816C19.2686 32.1041 20.1358 31.6341 20.8986 30.9866C22.8109 29.3678 24.7126 27.749 26.6144 26.1197C27.9101 25.0127 29.2477 23.937 30.4702 22.7568C32.2257 21.0649 32.4451 19.091 31.2957 16.9918C30.3553 15.2895 29.4671 13.5662 28.5789 11.843C28.5058 11.7072 28.5371 11.5088 28.5162 11.3417C28.558 11.3312 28.5998 11.3208 28.6416 11.3103C28.7356 11.3939 28.8297 11.4774 28.9237 11.561C29.3939 11.9996 29.8537 12.4383 30.3239 12.8665C30.4075 12.9396 30.5643 13.0336 30.6479 13.0022C31.8704 12.574 33.0826 12.1041 33.9707 11.1119C34.7335 10.2451 34.4096 8.54272 33.4169 7.97875ZM23.1766 6.79859C23.7722 7.48789 24.3365 8.1563 24.9321 8.85603C23.4901 10.0884 22.0794 11.2895 20.627 12.5323C20.0418 11.843 19.4775 11.1746 18.8715 10.4748C20.3239 9.23201 21.7346 8.02052 23.1766 6.79859ZM7.68025 23.5923C7.10554 22.9135 6.53083 22.2451 5.92477 21.5349C7.35632 20.3025 8.77743 19.091 10.2299 17.8586C10.815 18.5479 11.3898 19.2163 11.9854 19.9161C10.5434 21.138 9.13271 22.3495 7.68025 23.5923ZM30.1985 18.2764C30.721 19.3521 30.3762 20.8247 29.3521 21.7124C28.0564 22.8404 26.7398 23.9474 25.4336 25.0649C23.5528 26.6733 21.651 28.2607 19.791 29.9004C18.8088 30.7673 17.0428 31.0492 15.8412 30.078C14.7231 29.1798 13.5214 28.3965 12.2989 27.5192C17.5758 23.0179 22.8004 18.5479 28.0669 14.0571C28.1296 14.1615 28.1923 14.2346 28.2445 14.3182C28.8924 15.6445 29.5507 16.9605 30.1985 18.2764Z" fill="white"/>
<path d="M40.0106 33.6292H0.19873V36H40.0106V33.6292Z" fill="white"/>
<path d="M32.2568 26.9765C33.145 27.7911 34.0332 28.6057 34.9214 29.4308C34.8796 29.4935 34.8378 29.5561 34.796 29.6084C34.6915 29.6188 34.587 29.6292 34.4825 29.6292C33.4689 29.6084 32.4554 29.5875 31.4313 29.5561C31.191 29.5457 31.0865 29.6188 31.0238 29.8486C30.7417 30.8303 30.4386 31.812 30.1147 32.8773C29.6863 32.376 29.2997 31.9164 28.9235 31.4674C28.6413 31.1436 28.401 30.6527 28.0562 30.5483C27.7114 30.4543 27.2516 30.7572 26.8545 30.8929C26.0813 31.154 25.308 31.4256 24.4512 31.718C25.1931 30.0679 25.8932 28.5013 26.6142 26.9034C26.9068 27.0392 27.168 27.154 27.4606 27.2794C27.0531 28.2089 26.6455 29.1175 26.1962 30.1201C26.8754 29.8903 27.4606 29.7023 28.0353 29.483C28.2965 29.3786 28.4533 29.4308 28.6205 29.6501C28.9548 30.0783 29.3206 30.4752 29.7176 30.9452C29.9684 30.1201 30.1983 29.3577 30.4282 28.6266H32.6016C32.0374 28.0522 31.5358 27.53 31.0133 26.9974C31.5254 26.3812 32.0269 25.7755 32.518 25.1802C32.4972 25.1593 32.4867 25.1384 32.4762 25.107C31.8493 25.2428 31.2119 25.3681 30.5327 25.5144C30.47 25.2219 30.4073 24.9399 30.3237 24.6057C31.8702 24.2715 33.3853 23.9478 34.9109 23.624C34.9318 23.6449 34.9527 23.6762 34.9632 23.7076C34.0854 24.7833 33.1973 25.8486 32.2568 26.9765Z" fill="white"/>
</g>
<defs>
<clipPath id="clip0_186_9992">
<rect width="40" height="36" fill="white"/>
</clipPath>
</defs>
</svg>
