<svg width="24" height="24" viewBox="0 0 24 24" fill="none" xmlns="http://www.w3.org/2000/svg">
<g clip-path="url(#clip0_159_46)">
<path d="M7.19995 12.2399L10.2545 15.5999L16.8 8.3999" stroke="#083D31" stroke-width="2" stroke-linecap="round" stroke-linejoin="round"/>
<path d="M22.485 9.30214C22.0811 8.88 21.6632 8.445 21.5057 8.0625C21.36 7.71214 21.3514 7.13143 21.3429 6.56893C21.3268 5.52321 21.3096 4.33821 20.4857 3.51429C19.6618 2.69036 18.4768 2.67321 17.4311 2.65714C16.8686 2.64857 16.2879 2.64 15.9375 2.49429C15.5561 2.33679 15.12 1.91893 14.6979 1.515C13.9586 0.804643 13.1186 0 12 0C10.8814 0 10.0425 0.804643 9.30214 1.515C8.88 1.91893 8.445 2.33679 8.0625 2.49429C7.71429 2.64 7.13143 2.64857 6.56893 2.65714C5.52321 2.67321 4.33821 2.69036 3.51429 3.51429C2.69036 4.33821 2.67857 5.52321 2.65714 6.56893C2.64857 7.13143 2.64 7.71214 2.49429 8.0625C2.33679 8.44393 1.91893 8.88 1.515 9.30214C0.804643 10.0414 0 10.8814 0 12C0 13.1186 0.804643 13.9575 1.515 14.6979C1.91893 15.12 2.33679 15.555 2.49429 15.9375C2.64 16.2879 2.64857 16.8686 2.65714 17.4311C2.67321 18.4768 2.69036 19.6618 3.51429 20.4857C4.33821 21.3096 5.52321 21.3268 6.56893 21.3429C7.13143 21.3514 7.71214 21.36 8.0625 21.5057C8.44393 21.6632 8.88 22.0811 9.30214 22.485C10.0414 23.1954 10.8814 24 12 24C13.1186 24 13.9575 23.1954 14.6979 22.485C15.12 22.0811 15.555 21.6632 15.9375 21.5057C16.2879 21.36 16.8686 21.3514 17.4311 21.3429C18.4768 21.3268 19.6618 21.3096 20.4857 20.4857C21.3096 19.6618 21.3268 18.4768 21.3429 17.4311C21.3514 16.8686 21.36 16.2879 21.5057 15.9375C21.6632 15.5561 22.0811 15.12 22.485 14.6979C23.1954 13.9586 24 13.1186 24 12C24 10.8814 23.1954 10.0425 22.485 9.30214ZM16.8921 10.035L10.8921 16.035C10.8125 16.1147 10.718 16.1779 10.6139 16.2211C10.5099 16.2642 10.3984 16.2864 10.2857 16.2864C10.1731 16.2864 10.0615 16.2642 9.95748 16.2211C9.85342 16.1779 9.75889 16.1147 9.67929 16.035L7.10786 13.4636C7.02822 13.3839 6.96505 13.2894 6.92195 13.1853C6.87885 13.0813 6.85667 12.9698 6.85667 12.8571C6.85667 12.7445 6.87885 12.633 6.92195 12.5289C6.96505 12.4249 7.02822 12.3304 7.10786 12.2507C7.26869 12.0899 7.48683 11.9995 7.71429 11.9995C7.82691 11.9995 7.93843 12.0217 8.04248 12.0648C8.14653 12.1079 8.24108 12.1711 8.32071 12.2507L10.2857 14.2168L15.6793 8.82214C15.7589 8.74251 15.8535 8.67933 15.9575 8.63623C16.0616 8.59313 16.1731 8.57095 16.2857 8.57095C16.3983 8.57095 16.5099 8.59313 16.6139 8.63623C16.718 8.67933 16.8125 8.74251 16.8921 8.82214C16.9718 8.90178 17.035 8.99632 17.0781 9.10037C17.1212 9.20443 17.1433 9.31595 17.1433 9.42857C17.1433 9.5412 17.1212 9.65272 17.0781 9.75677C17.035 9.86082 16.9718 9.95536 16.8921 10.035Z" fill="#F8D419"/>
</g>
<defs>
<clipPath id="clip0_159_46">
<rect width="24" height="24" fill="white"/>
</clipPath>
</defs>
</svg>
