<svg width="40" height="40" viewBox="0 0 40 40" fill="none" xmlns="http://www.w3.org/2000/svg">
<path d="M12.9541 4.06497L14.7491 3.49163C16.4291 2.95497 18.2257 3.8233 18.9457 5.51997L20.3791 8.89997C21.0041 10.3716 20.6574 12.1033 19.5224 13.18L16.3674 16.1766C16.5618 17.97 17.1641 19.735 18.1741 21.4716C19.1345 23.1514 20.4214 24.622 21.9591 25.7966L25.7524 24.53C27.1891 24.0516 28.7541 24.6033 29.6357 25.8983L31.6891 28.915C32.7157 30.4216 32.5307 32.4983 31.259 33.775L29.8957 35.1433C28.5391 36.505 26.6024 37 24.8091 36.44C20.5779 35.12 16.6874 31.2016 13.1374 24.685C9.58294 18.1572 8.3285 12.6194 9.37405 8.07163C9.81405 6.1583 11.1774 4.6333 12.9574 4.06497" fill="white"/>
</svg>
