<svg width="37" height="37" viewBox="0 0 37 37" fill="none" xmlns="http://www.w3.org/2000/svg">
<mask id="mask0_299_8201" style="mask-type:luminance" maskUnits="userSpaceOnUse" x="1" y="1" width="35" height="35">
<path d="M20.681 28.6535L28.6537 20.6807M16.3204 20.6807L8.34766 28.6535M20.681 16.3201L28.6537 8.34741M8.34766 16.3201L16.3204 8.34741" stroke="white" stroke-width="2.2" stroke-linecap="round" stroke-linejoin="round"/>
<path d="M9.25065 6.16671C9.25065 6.98446 8.9258 7.76872 8.34756 8.34695C7.76933 8.92519 6.98507 9.25004 6.16732 9.25004C5.34957 9.25004 4.56531 8.92519 3.98707 8.34695C3.40883 7.76872 3.08398 6.98446 3.08398 6.16671C3.08398 5.34896 3.40883 4.5647 3.98707 3.98646C4.56531 3.40822 5.34957 3.08337 6.16732 3.08337C6.98507 3.08337 7.76933 3.40822 8.34756 3.98646C8.9258 4.5647 9.25065 5.34896 9.25065 6.16671ZM21.584 6.16671C21.584 6.98446 21.2591 7.76872 20.6809 8.34695C20.1027 8.92519 19.3184 9.25004 18.5007 9.25004C17.6829 9.25004 16.8986 8.92519 16.3204 8.34695C15.7422 7.76872 15.4173 6.98446 15.4173 6.16671C15.4173 5.34896 15.7422 4.5647 16.3204 3.98646C16.8986 3.40822 17.6829 3.08337 18.5007 3.08337C19.3184 3.08337 20.1027 3.40822 20.6809 3.98646C21.2591 4.5647 21.584 5.34896 21.584 6.16671ZM33.9173 6.16671C33.9173 6.98446 33.5925 7.76872 33.0142 8.34695C32.436 8.92519 31.6517 9.25004 30.834 9.25004C30.0162 9.25004 29.232 8.92519 28.6537 8.34695C28.0755 7.76872 27.7507 6.98446 27.7507 6.16671C27.7507 5.34896 28.0755 4.5647 28.6537 3.98646C29.232 3.40822 30.0162 3.08337 30.834 3.08337C31.6517 3.08337 32.436 3.40822 33.0142 3.98646C33.5925 4.5647 33.9173 5.34896 33.9173 6.16671ZM33.9173 18.5C33.9173 19.3178 33.5925 20.102 33.0142 20.6803C32.436 21.2585 31.6517 21.5834 30.834 21.5834C30.0162 21.5834 29.232 21.2585 28.6537 20.6803C28.0755 20.102 27.7507 19.3178 27.7507 18.5C27.7507 17.6823 28.0755 16.898 28.6537 16.3198C29.232 15.7416 30.0162 15.4167 30.834 15.4167C31.6517 15.4167 32.436 15.7416 33.0142 16.3198C33.5925 16.898 33.9173 17.6823 33.9173 18.5ZM33.9173 30.8334C33.9173 31.6511 33.5925 32.4354 33.0142 33.0136C32.436 33.5919 31.6517 33.9167 30.834 33.9167C30.0162 33.9167 29.232 33.5919 28.6537 33.0136C28.0755 32.4354 27.7507 31.6511 27.7507 30.8334C27.7507 30.0156 28.0755 29.2314 28.6537 28.6531C29.232 28.0749 30.0162 27.75 30.834 27.75C31.6517 27.75 32.436 28.0749 33.0142 28.6531C33.5925 29.2314 33.9173 30.0156 33.9173 30.8334ZM21.584 30.8334C21.584 31.6511 21.2591 32.4354 20.6809 33.0136C20.1027 33.5919 19.3184 33.9167 18.5007 33.9167C17.6829 33.9167 16.8986 33.5919 16.3204 33.0136C15.7422 32.4354 15.4173 31.6511 15.4173 30.8334C15.4173 30.0156 15.7422 29.2314 16.3204 28.6531C16.8986 28.0749 17.6829 27.75 18.5007 27.75C19.3184 27.75 20.1027 28.0749 20.6809 28.6531C21.2591 29.2314 21.584 30.0156 21.584 30.8334ZM9.25065 30.8334C9.25065 31.6511 8.9258 32.4354 8.34756 33.0136C7.76933 33.5919 6.98507 33.9167 6.16732 33.9167C5.34957 33.9167 4.56531 33.5919 3.98707 33.0136C3.40883 32.4354 3.08398 31.6511 3.08398 30.8334C3.08398 30.0156 3.40883 29.2314 3.98707 28.6531C4.56531 28.0749 5.34957 27.75 6.16732 27.75C6.98507 27.75 7.76933 28.0749 8.34756 28.6531C8.9258 29.2314 9.25065 30.0156 9.25065 30.8334ZM9.25065 18.5C9.25065 19.3178 8.9258 20.102 8.34756 20.6803C7.76933 21.2585 6.98507 21.5834 6.16732 21.5834C5.34957 21.5834 4.56531 21.2585 3.98707 20.6803C3.40883 20.102 3.08398 19.3178 3.08398 18.5C3.08398 17.6823 3.40883 16.898 3.98707 16.3198C4.56531 15.7416 5.34957 15.4167 6.16732 15.4167C6.98507 15.4167 7.76933 15.7416 8.34756 16.3198C8.9258 16.898 9.25065 17.6823 9.25065 18.5ZM21.584 18.5C21.584 19.3178 21.2591 20.102 20.6809 20.6803C20.1027 21.2585 19.3184 21.5834 18.5007 21.5834C17.6829 21.5834 16.8986 21.2585 16.3204 20.6803C15.7422 20.102 15.4173 19.3178 15.4173 18.5C15.4173 17.6823 15.7422 16.898 16.3204 16.3198C16.8986 15.7416 17.6829 15.4167 18.5007 15.4167C19.3184 15.4167 20.1027 15.7416 20.6809 16.3198C21.2591 16.898 21.584 17.6823 21.584 18.5Z" fill="#555555" stroke="white" stroke-width="2.2" stroke-linecap="round" stroke-linejoin="round"/>
</mask>
<g mask="url(#mask0_299_8201)">
<path d="M0 0H37V37H0V0Z" fill="white"/>
</g>
</svg>
