<svg width="31" height="31" viewBox="0 0 31 31" fill="none" xmlns="http://www.w3.org/2000/svg">
<g clip-path="url(#clip0_299_8197)">
<path fill-rule="evenodd" clip-rule="evenodd" d="M0 3.1C0 1.38467 1.38673 0 3.1 0H27.9C29.6133 0 31 1.38467 31 3.1V21.6876C31 23.4009 29.6133 24.7855 27.9 24.7855H20.1872L16.3597 30.5205C16.2654 30.6621 16.1375 30.7781 15.9875 30.8584C15.8376 30.9386 15.6701 30.9806 15.5 30.9806C15.3299 30.9806 15.1624 30.9386 15.0125 30.8584C14.8625 30.7781 14.7346 30.6621 14.6403 30.5205L10.8149 24.7855H3.1C1.38673 24.7855 0 23.4009 0 21.6855V3.1ZM22.7333 10.3333H8.26667V8.26667H22.7333V10.3333ZM20.6667 16.5333H10.3333V14.4667H20.6667V16.5333Z" fill="white"/>
</g>
<defs>
<clipPath id="clip0_299_8197">
<rect width="31" height="31" fill="white"/>
</clipPath>
</defs>
</svg>
