<svg width="39" height="39" viewBox="0 0 39 39" fill="none" xmlns="http://www.w3.org/2000/svg">
<path d="M16.5012 24.0062L16.4866 23.972C16.2669 23.912 16.0491 23.8453 15.8334 23.7722L15.8171 23.7657C13.5723 22.9976 11.6238 21.5469 10.2444 19.6164C8.86497 17.686 8.12371 15.3726 8.12436 13C8.12364 10.0882 9.2396 7.28698 11.2424 5.17332C13.2452 3.05967 15.9823 1.79455 18.8899 1.63854C21.7976 1.48254 24.6543 2.44753 26.8718 4.33476C29.0892 6.22198 30.4985 8.88772 30.8094 11.7829C30.8809 12.4524 30.3284 13 29.6556 13C28.9829 13 28.445 12.4508 28.3556 11.7845C28.1395 10.212 27.5085 8.72533 26.5275 7.47738C25.5465 6.22944 24.251 5.26522 22.7739 4.68381C21.2969 4.10241 19.6917 3.92479 18.1233 4.16922C16.5548 4.41364 15.0798 5.0713 13.8497 6.07459C12.6197 7.07788 11.6789 8.39061 11.1242 9.87788C10.5695 11.3651 10.4208 12.9733 10.6935 14.5371C10.9661 16.1008 11.6502 17.5638 12.6755 18.7756C13.7008 19.9874 15.0302 20.9043 16.5272 21.4322C16.8288 20.7505 17.3555 20.1932 18.0191 19.8537C18.6827 19.5142 19.4428 19.4132 20.172 19.5674C20.9012 19.7217 21.5553 20.1219 22.0245 20.7011C22.4938 21.2802 22.7497 22.003 22.7494 22.7484C22.7501 23.4996 22.4906 24.2278 22.015 24.8093C21.5395 25.3908 20.8771 25.7895 20.1407 25.9378C19.4043 26.086 18.6393 25.9746 17.9758 25.6224C17.3122 25.2703 16.7912 24.6991 16.5012 24.0062ZM14.8356 26.0049C12.9196 25.3168 11.1794 24.2136 9.73961 22.7744C8.84934 22.878 8.02812 23.3049 7.43196 23.9742C6.8358 24.6435 6.50623 25.5084 6.50586 26.4047V27.8997C6.50586 28.8292 6.79511 29.7359 7.33461 30.4932C9.84036 34.0097 13.9419 35.75 19.4994 35.75C25.0569 35.75 29.16 34.008 31.6706 30.4932C32.2126 29.7351 32.5041 28.8266 32.5042 27.8948V26.403C32.5042 25.4339 32.1195 24.5044 31.4345 23.8188C30.7495 23.1332 29.8204 22.7476 28.8512 22.7468H25.1869C25.1871 23.9572 24.8012 25.1361 24.0853 26.112C23.3694 27.088 22.3608 27.8101 21.2062 28.1733C20.0516 28.5366 18.8112 28.522 17.6655 28.1317C16.5197 27.7414 15.5284 26.9974 14.8356 26.0049ZM25.9994 13C25.9994 12.0501 25.7912 11.1117 25.3894 10.2509C24.9876 9.39014 24.4021 8.62788 23.674 8.01778C22.9981 7.4524 22.2143 7.03034 21.3702 6.77726C20.5262 6.52419 19.6395 6.44537 18.764 6.54561C17.8886 6.64585 17.0426 6.92305 16.2776 7.36037C15.5126 7.79768 14.8445 8.38598 14.3139 9.0895C13.7833 9.79303 13.4013 10.5971 13.1911 11.4528C12.9809 12.3086 12.9469 13.1981 13.0911 14.0674C13.2354 14.9367 13.5549 15.7676 14.0302 16.5096C14.5055 17.2516 15.1267 17.8892 15.8561 18.3837C16.8784 17.5304 18.1677 17.0628 19.4994 17.0625C20.8855 17.0625 22.1562 17.5582 23.1442 18.3837C24.0238 17.7879 24.744 16.9857 25.2418 16.0472C25.7395 15.1086 25.9996 14.0624 25.9994 13Z" fill="white"/>
</svg>
