<svg width="63" height="53" viewBox="0 0 63 53" fill="none" xmlns="http://www.w3.org/2000/svg">
<g clip-path="url(#clip0_287_4792)">
<path d="M62.8849 29.93C62.4081 31.5365 61.7012 33.0788 61.06 34.6372C58.3967 41.0633 53.5138 45.4653 47.4144 48.7105C43.9455 50.558 40.1641 50.7508 36.3335 50.1885C32.7166 49.6584 29.1161 48.9515 25.4828 48.4535C20.3369 47.7305 15.602 48.9354 11.2289 51.6344C10.5384 52.0682 9.8643 52.518 9.1738 52.9518C9.15736 52.9679 9.14092 52.9679 9.04228 52.9839C8.77923 52.6465 8.49974 52.2931 8.22025 51.9236C5.62265 48.5659 3.00861 45.2082 0.411013 41.8505C0.295929 41.706 0.131524 41.5774 0 41.4489V41.2079C0.180846 41.0955 0.378132 40.9991 0.542536 40.8545C2.71268 38.8945 4.89927 36.9666 7.02009 34.9424C9.8643 32.2273 12.8236 29.6729 16.013 27.3756C19.2189 25.0782 22.7043 24.6605 26.4034 26.2188C29.4778 27.5041 32.733 28.1467 36.0047 28.6769C39.2928 29.207 42.5973 29.689 45.8854 30.2673C46.7403 30.4119 47.5788 30.7493 48.3515 31.167C49.749 31.906 49.7654 33.0467 48.4502 33.9463C47.1842 34.7978 45.7375 35.1512 44.2578 35.4404C41.2657 36.0188 38.2406 36.1473 35.1991 36.1634C33.3742 36.1634 31.5493 36.1634 29.6915 36.1634V39.7781H30.3656C34.5086 39.7781 38.6516 39.8102 42.7946 39.7781C47.513 39.746 51.245 37.8502 53.9742 34.0427C54.9441 32.6772 55.947 31.3277 56.9828 30.0103C57.8706 28.8857 58.9228 27.9539 60.4024 27.5844C62.2273 27.1346 63.411 28.1628 62.8849 29.93Z" fill="#083D31"/>
<path d="M32.1894 3.40796C35.0093 -0.210556 40.7596 -0.730712 43.8053 3.3654C43.8813 3.46907 43.9785 3.57398 44.0584 3.66019C44.085 3.68892 44.1097 3.71556 44.131 3.7394L44.4794 4.12849L44.853 3.76347L44.8649 3.75186C44.9683 3.65083 45.0889 3.5331 45.1938 3.39227C47.1114 1.06676 49.5248 0.0514054 52.5052 0.681941L52.5067 0.682256C55.5482 1.3159 57.4389 3.24159 58.3285 6.15416C59.2561 9.22222 58.4375 11.9634 56.4415 14.5025C54.7198 16.672 52.5904 18.4558 50.4153 20.2592L50.4134 20.2608C48.5056 21.8588 46.5836 23.4433 44.6459 25.0407C44.5723 25.1014 44.4987 25.1621 44.4251 25.2228C43.7045 24.6071 42.9831 23.9934 42.262 23.3799C39.7393 21.2337 37.2212 19.0914 34.7595 16.8822L34.7573 16.8802C33.7324 15.9712 32.8548 14.8521 32.0592 13.6938L32.0576 13.6916C29.8099 10.4579 29.9129 6.32869 32.1894 3.40799L32.1894 3.40796Z" fill="#F8D419" stroke="#083D31"/>
</g>
<defs>
<clipPath id="clip0_287_4792">
<rect width="63" height="53" fill="white"/>
</clipPath>
</defs>
</svg>
