<svg width="31" height="31" viewBox="0 0 31 31" fill="none" xmlns="http://www.w3.org/2000/svg">
<path d="M9.04158 9.68758C12.6084 9.68758 15.4999 8.24183 15.4999 6.45841C15.4999 4.675 12.6084 3.22925 9.04158 3.22925C5.47475 3.22925 2.58325 4.675 2.58325 6.45841C2.58325 8.24183 5.47475 9.68758 9.04158 9.68758Z" stroke="#083D31" stroke-width="2" stroke-linecap="round" stroke-linejoin="round"/>
<path d="M2.58325 6.4585C2.58325 6.4585 2.58325 9.19593 2.58325 10.9793C2.58325 12.7627 5.47474 14.2085 9.04159 14.2085C12.6084 14.2085 15.4999 12.7627 15.4999 10.9793C15.4999 9.923 15.4999 6.4585 15.4999 6.4585" stroke="#083D31" stroke-width="2" stroke-linecap="round" stroke-linejoin="round"/>
<path d="M2.58325 10.9792C2.58325 10.9792 2.58325 13.7167 2.58325 15.5001C2.58325 17.2835 5.47474 18.7292 9.04159 18.7292C12.6084 18.7292 15.4999 17.2835 15.4999 15.5001C15.4999 14.4438 15.4999 10.9792 15.4999 10.9792" stroke="#083D31" stroke-width="2" stroke-linecap="round" stroke-linejoin="round"/>
<path d="M2.58325 15.5C2.58325 15.5 2.58325 18.2374 2.58325 20.0208C2.58325 21.8042 5.47474 23.25 9.04159 23.25C12.6084 23.25 15.4999 21.8042 15.4999 20.0208C15.4999 18.9645 15.4999 15.5 15.4999 15.5" stroke="#083D31" stroke-width="2" stroke-linecap="round" stroke-linejoin="round"/>
<path d="M2.58325 20.021C2.58325 20.021 2.58325 22.7584 2.58325 24.5418C2.58325 26.3252 5.47474 27.771 9.04159 27.771C12.6084 27.771 15.4999 26.3252 15.4999 24.5418C15.4999 23.4855 15.4999 20.021 15.4999 20.021" stroke="#083D31" stroke-width="2" stroke-linecap="round" stroke-linejoin="round"/>
<path d="M21.9583 18.7293C25.5252 18.7293 28.4167 17.2836 28.4167 15.5002C28.4167 13.7167 25.5252 12.271 21.9583 12.271C18.3915 12.271 15.5 13.7167 15.5 15.5002C15.5 17.2836 18.3915 18.7293 21.9583 18.7293Z" stroke="#083D31" stroke-width="2" stroke-linecap="round" stroke-linejoin="round"/>
<path d="M15.5 15.5C15.5 15.5 15.5 18.2374 15.5 20.0208C15.5 21.8042 18.3915 23.25 21.9583 23.25C25.5251 23.25 28.4167 21.8042 28.4167 20.0208C28.4167 18.9645 28.4167 15.5 28.4167 15.5" stroke="#083D31" stroke-width="2" stroke-linecap="round" stroke-linejoin="round"/>
<path d="M15.5 20.021C15.5 20.021 15.5 22.7584 15.5 24.5418C15.5 26.3252 18.3915 27.771 21.9583 27.771C25.5251 27.771 28.4167 26.3252 28.4167 24.5418C28.4167 23.4855 28.4167 20.021 28.4167 20.021" stroke="#083D31" stroke-width="2" stroke-linecap="round" stroke-linejoin="round"/>
</svg>
