<svg width="15" height="15" viewBox="0 0 15 15" fill="none" xmlns="http://www.w3.org/2000/svg">
<g clip-path="url(#clip0_208_1883)">
<path d="M7.5 0C6.56437 0 5.78188 0.603125 5.47 1.35625C5.3589 1.63755 5.30822 1.93908 5.32125 2.24125C5.11703 2.01837 4.86835 1.8408 4.59125 1.72C4.30137 1.60202 3.98959 1.54746 3.67687 1.56C3.12079 1.57739 2.59205 1.80524 2.1975 2.1975C1.535 2.85875 1.40813 3.83812 1.72 4.59125C1.83188 4.86125 2.01375 5.10375 2.2325 5.3125C1.93269 5.3042 1.6344 5.35782 1.35625 5.47C0.603125 5.78188 0 6.56375 0 7.5C0 8.43563 0.603125 9.21813 1.35625 9.53C1.62938 9.64313 1.93375 9.68625 2.24 9.6775C2.01688 9.88875 1.83375 10.135 1.72 10.4087C1.40813 11.1619 1.53562 12.1412 2.1975 12.8025C2.85875 13.465 3.83812 13.5919 4.59125 13.28C4.86438 13.1669 5.11 12.9825 5.32125 12.76C5.3125 13.0662 5.35687 13.3706 5.47 13.6438C5.78188 14.3969 6.56375 15 7.5 15C8.43563 15 9.21813 14.3969 9.53 13.6438C9.6411 13.3624 9.69178 13.0609 9.67875 12.7587C9.89 12.9812 10.135 13.1669 10.4087 13.28C11.1619 13.5919 12.1412 13.4644 12.8025 12.8025C13.465 12.1412 13.5919 11.1619 13.28 10.4087C13.1592 10.1316 12.9816 9.88297 12.7587 9.67875C13.0609 9.69178 13.3624 9.6411 13.6438 9.53C14.3969 9.21813 15 8.43625 15 7.5C15 6.56437 14.3969 5.78188 13.6438 5.47C13.3627 5.35959 13.0617 5.30934 12.76 5.3225C12.9831 5.11125 13.1662 4.865 13.28 4.59125C13.5919 3.83812 13.4644 2.85875 12.8025 2.1975C12.408 1.80524 11.8792 1.57739 11.3231 1.56C11.0104 1.54746 10.6986 1.60202 10.4087 1.72C10.1356 1.83313 9.89 2.01688 9.67875 2.24C9.69161 1.93825 9.64093 1.63716 9.53 1.35625C9.21813 0.603125 8.43625 0 7.5 0ZM7.47437 1.00813C7.71161 1.00293 7.94497 1.06886 8.14443 1.19742C8.34388 1.32598 8.50029 1.51129 8.59353 1.7295C8.68677 1.94771 8.71257 2.18883 8.66761 2.42182C8.62265 2.65482 8.50898 2.86903 8.34125 3.03688V5.47L10.0612 3.75C10.0612 3.51489 10.131 3.28505 10.2616 3.08957C10.3922 2.89408 10.5779 2.74171 10.7951 2.65174C11.0123 2.56176 11.2513 2.53822 11.4819 2.58409C11.7125 2.62996 11.9243 2.74318 12.0906 2.90943C12.2568 3.07568 12.37 3.28749 12.4159 3.51809C12.4618 3.74868 12.4382 3.9877 12.3483 4.20492C12.2583 4.42213 12.1059 4.60779 11.9104 4.73841C11.7149 4.86903 11.4851 4.93875 11.25 4.93875L9.53 6.65875H11.9631C12.1295 6.49269 12.3413 6.37966 12.5718 6.33395C12.8024 6.28824 13.0413 6.31189 13.2584 6.40192C13.4755 6.49195 13.661 6.64432 13.7916 6.83976C13.9221 7.03521 13.9918 7.26497 13.9918 7.5C13.9918 7.73503 13.9221 7.96479 13.7916 8.16024C13.661 8.35568 13.4755 8.50805 13.2584 8.59808C13.0413 8.68811 12.8024 8.71176 12.5718 8.66605C12.3413 8.62034 12.1295 8.50731 11.9631 8.34125H9.53L11.25 10.0612C11.4851 10.0612 11.7149 10.131 11.9104 10.2616C12.1059 10.3922 12.2583 10.5779 12.3483 10.7951C12.4382 11.0123 12.4618 11.2513 12.4159 11.4819C12.37 11.7125 12.2568 11.9243 12.0906 12.0906C11.9243 12.2568 11.7125 12.37 11.4819 12.4159C11.2513 12.4618 11.0123 12.4382 10.7951 12.3483C10.5779 12.2583 10.3922 12.1059 10.2616 11.9104C10.131 11.7149 10.0612 11.4851 10.0612 11.25L8.34125 9.53V11.9631C8.50731 12.1295 8.62034 12.3413 8.66605 12.5718C8.71176 12.8024 8.68811 13.0413 8.59808 13.2584C8.50805 13.4755 8.35568 13.661 8.16024 13.7916C7.96479 13.9221 7.73503 13.9918 7.5 13.9918C7.26497 13.9918 7.03521 13.9221 6.83976 13.7916C6.64432 13.661 6.49195 13.4755 6.40192 13.2584C6.31189 13.0413 6.28824 12.8024 6.33395 12.5718C6.37966 12.3413 6.49269 12.1295 6.65875 11.9631V9.53L4.93875 11.25C4.93875 11.4851 4.86903 11.7149 4.73841 11.9104C4.60779 12.1059 4.42213 12.2583 4.20492 12.3483C3.9877 12.4382 3.74868 12.4618 3.51809 12.4159C3.28749 12.37 3.07568 12.2568 2.90943 12.0906C2.74318 11.9243 2.62996 11.7125 2.58409 11.4819C2.53822 11.2513 2.56176 11.0123 2.65174 10.7951C2.74171 10.5779 2.89408 10.3922 3.08957 10.2616C3.28505 10.131 3.51489 10.0612 3.75 10.0612L5.47 8.34125H3.03688C2.87055 8.50731 2.65873 8.62034 2.42819 8.66605C2.19765 8.71176 1.95873 8.68811 1.74162 8.59808C1.52452 8.50805 1.33897 8.35568 1.20844 8.16024C1.0779 7.96479 1.00823 7.73503 1.00823 7.5C1.00823 7.26497 1.0779 7.03521 1.20844 6.83976C1.33897 6.64432 1.52452 6.49195 1.74162 6.40192C1.95873 6.31189 2.19765 6.28824 2.42819 6.33395C2.65873 6.37966 2.87055 6.49269 3.03688 6.65875H5.47L3.75 4.93875C3.51489 4.93875 3.28505 4.86903 3.08957 4.73841C2.89408 4.60779 2.74171 4.42213 2.65174 4.20492C2.56176 3.9877 2.53822 3.74868 2.58409 3.51809C2.62996 3.28749 2.74318 3.07568 2.90943 2.90943C3.07568 2.74318 3.28749 2.62996 3.51809 2.58409C3.74868 2.53822 3.9877 2.56176 4.20492 2.65174C4.42213 2.74171 4.60779 2.89408 4.73841 3.08957C4.86903 3.28505 4.93875 3.51489 4.93875 3.75L6.65875 5.47V3.03688C6.49411 2.87211 6.3815 2.66261 6.3349 2.43439C6.28831 2.20617 6.30979 1.9693 6.39668 1.75318C6.48356 1.53707 6.63202 1.35124 6.82362 1.21878C7.01521 1.08633 7.2415 1.01307 7.47437 1.00813Z" fill="#083D31"/>
</g>
<defs>
<clipPath id="clip0_208_1883">
<rect width="15" height="15" fill="white"/>
</clipPath>
</defs>
</svg>
