<svg width="31" height="42" viewBox="0 0 31 42" fill="none" xmlns="http://www.w3.org/2000/svg">
<g clip-path="url(#clip0_191_10102)">
<path d="M28.9292 17.3511C28.0142 14.1613 26.3529 11.4557 23.7043 9.48227C23.3793 9.23404 23.0422 9.01064 22.7653 8.82447C23.0543 8.03014 23.3673 7.27305 23.608 6.50354C23.8368 5.77128 23.5719 5.16312 22.97 4.72872C22.3921 4.30674 21.7902 3.92198 21.2364 3.48759C20.5983 2.99113 19.9723 2.9539 19.25 3.289C17.9618 3.88475 16.9024 4.80319 16.0236 5.92021C15.5059 6.57801 14.928 6.95035 14.1335 7.2234C11.3284 8.16667 8.84842 9.71808 6.76571 11.8901C4.1292 14.6454 2.75677 17.9965 2.46784 21.8191C2.27522 24.289 2.55211 26.672 3.6958 28.906C5.23677 31.8972 7.30745 34.4291 9.93192 36.4521C10.883 37.1844 11.8822 37.8174 12.9055 38.5372C13.1704 38.0656 13.3871 37.6933 13.5436 37.4326C13.05 36.7872 12.6045 36.2411 12.1471 35.6454C12.0989 35.6578 11.9906 35.6826 11.8702 35.695C11.0756 35.8067 10.3412 35.6702 9.70318 35.1614C9.4624 34.9628 9.34202 34.7145 9.54668 34.4415C9.75134 34.1933 9.99211 34.2553 10.2209 34.4415C10.6904 34.8262 11.2442 34.8635 11.7979 34.789C11.8942 34.7766 12.0267 34.6152 12.0387 34.5035C12.0748 33.9823 12.0869 33.4486 12.0869 32.9273C12.0869 32.5922 12.1711 32.2943 12.5443 32.3191C12.9296 32.344 12.9898 32.6543 12.9657 33.0018C12.9296 33.461 12.8935 33.9326 12.9296 34.3918C12.9898 35.2234 13.2546 35.9433 14.001 36.4521C14.0733 36.2784 14.1455 36.1418 14.1937 35.9929C14.4344 35.1365 14.6752 34.2677 14.904 33.4114C14.9882 33.1135 15.0966 32.8652 15.4457 32.9273C15.7828 32.9894 15.8309 33.2624 15.7708 33.5727C15.4337 35.3723 14.8438 37.0603 13.8927 38.6117C13.8445 38.6986 13.7964 38.7979 13.7482 38.9096C16.2764 40.2252 18.9129 41.1436 21.6457 41.7766C23.4395 42.1862 25.161 42.0745 26.8104 41.2181C28.3513 40.4114 29.4709 39.195 30.1451 37.4947C28.857 37.2961 27.6892 36.8865 26.69 36.0426C26.6177 36.117 26.5576 36.1667 26.5094 36.2287C25.5102 37.2713 23.9933 37.5195 22.7292 36.8369C22.4884 36.7128 22.344 36.539 22.4523 36.2411C22.5607 35.9433 22.7894 35.9309 23.0543 36.0053C23.283 36.0798 23.5117 36.1791 23.7405 36.2287C24.7156 36.4521 25.6185 36.1046 26.0278 35.2979C24.7036 33.9699 24.7758 32.3191 25.1972 30.7429C24.4748 30.3582 23.8609 30.0355 23.1987 29.6879C22.5366 30.1968 21.7179 30.4699 20.815 30.2837C20.5141 30.2216 20.2492 30.0727 20.3335 29.6879C20.4177 29.328 20.6946 29.328 20.9836 29.3901C21.6577 29.5514 22.2115 29.2908 22.7051 28.9184C22.4643 28.2731 22.2115 27.6773 22.0309 27.0567C21.9828 26.8954 22.1513 26.672 22.2115 26.4734C22.4162 26.5603 22.6449 26.6099 22.8135 26.734C22.9098 26.8085 22.9098 27.0195 22.97 27.156C23.1987 27.6525 23.4034 28.1862 23.6923 28.6454C24.0294 29.1791 24.511 29.539 25.1972 29.6383C25.1972 29.4521 25.1972 29.3032 25.1972 29.1543C25.137 27.578 24.824 26.0514 24.2702 24.5869C24.1498 24.2766 24.0776 23.9539 24.4508 23.805C24.7999 23.6684 24.9684 23.9415 25.0768 24.2394C25.8834 26.4113 26.2445 28.6578 26.0278 30.9911C26.0158 31.1773 26.0038 31.3635 25.9917 31.6241C27.0873 30.5692 27.5809 29.0301 27.316 27.6028C27.2678 27.3546 27.2076 27.1188 27.1715 26.8706C27.1234 26.5975 27.1956 26.3245 27.4966 26.3245C27.6651 26.3245 27.8457 26.5231 28.0022 26.6596C28.0624 26.7092 28.0624 26.8333 28.0865 26.9202C28.6403 29.3032 27.9059 31.2269 26.1001 32.7411C25.8593 32.9521 25.8111 33.1011 25.9195 33.3989C26.6177 35.422 28.7005 36.5266 30.4702 36.5638C30.8675 35.0869 31.024 33.5603 31.048 32.0213C31.0721 27.0195 30.2896 22.1418 28.9292 17.3511ZM17.9979 26.5975C17.7331 27.0443 17.396 26.7465 17.1071 26.5603C16.0597 25.8901 15.2049 25.0213 14.615 23.8422C13.0981 24.5372 11.8702 24.1152 10.7746 23.0355C10.5459 22.8121 10.4014 22.5514 10.6543 22.266C10.9191 21.9805 11.1599 22.1543 11.3886 22.3777C12.0989 23.0851 12.8935 23.4947 13.9168 23.1472C14.2057 23.0479 14.2539 22.9238 14.2057 22.6011C14.1094 22.0426 14.0492 21.4592 14.0974 20.9007C14.1335 20.4787 14.3261 20.0567 14.5187 19.6596C14.7595 19.1755 15.0845 18.7163 15.3133 18.3564C14.8197 17.7234 14.3863 17.1773 13.9047 16.5691C13.3148 16.6933 12.6286 16.7181 11.9785 16.3954C11.7979 16.3085 11.6294 16.2092 11.4729 16.0851C11.2321 15.9113 11.0636 15.6755 11.2803 15.3777C11.4849 15.0922 11.7377 15.1667 11.9906 15.3528C12.5323 15.7624 13.1463 15.8245 13.7723 15.6383C13.7964 14.9805 13.8325 14.3475 13.8566 13.7145C13.8686 13.4043 13.989 13.1933 14.3261 13.2305C14.6511 13.2677 14.7234 13.5035 14.7234 13.8014C14.7113 14.4096 14.6632 15.0177 14.7234 15.6135C14.7956 16.3333 15.0966 16.9415 15.8189 17.4131C16.0838 16.445 16.3486 15.539 16.6014 14.6206C16.6376 14.4716 16.6255 14.2855 16.7098 14.1738C16.8302 14.0248 17.0589 13.8138 17.1673 13.8511C17.3238 13.9007 17.5284 14.1613 17.5284 14.3227C17.5284 14.6702 17.4201 15.0301 17.3358 15.3652C16.9144 17.1152 16.2282 18.7287 15.2049 20.2057C14.7475 20.8635 14.8919 21.6082 15.0364 22.3156C15.3494 23.867 16.3245 24.9344 17.5886 25.766C17.8535 25.9894 18.2628 26.1507 17.9979 26.5975Z" fill="white"/>
<path d="M16.9867 3.63653C16.6616 3.95923 16.3486 4.23228 16.0717 4.54256C15.6142 5.03901 15.2651 5.67199 14.7354 6.03192C14.2057 6.39185 13.4954 6.45391 12.8814 6.71455C10.883 7.54611 9.029 8.65072 7.27133 10.1401C7.30745 9.87944 7.29541 9.71809 7.34356 9.56916C7.58434 8.76242 7.82512 7.94327 8.10201 7.14894C8.19832 6.88831 8.19832 6.70214 8.05386 6.46632C7.53619 5.59753 7.03055 4.71632 6.52492 3.83511C6.22395 3.30143 6.28415 3.09043 6.82589 2.80497C6.94628 2.74291 7.06667 2.68086 7.18706 2.6188C8.18628 2.12235 8.18628 2.12235 8.66784 3.14008C8.93269 3.69859 9.18551 4.24469 9.47444 4.85284C9.78745 4.55497 10.0643 4.31916 10.3051 4.04611C10.3894 3.95923 10.4135 3.77306 10.3894 3.63653C10.269 2.80497 10.1245 1.98582 10.0041 1.15426C9.91987 0.58334 10.0523 0.409581 10.594 0.347525C10.9552 0.31029 11.3164 0.273056 11.6655 0.260645C12.0387 0.235822 12.2554 0.421993 12.2795 0.831567C12.3036 1.47696 12.3517 2.13476 12.3878 2.82979C12.737 2.76774 13.074 2.7305 13.3871 2.64362C13.4834 2.6188 13.5676 2.45745 13.6038 2.34575C13.7603 1.75001 13.9047 1.14185 14.0612 0.546106C14.1937 0.0248295 14.3742 -0.0868727 14.8678 0.0372408C15.2772 0.148943 15.6744 0.260645 16.0838 0.384759C16.5172 0.521283 16.6375 0.744688 16.5051 1.1915C16.3245 1.79965 16.1199 2.3954 15.9152 3.00355C16.2643 3.21455 16.6014 3.41313 16.9867 3.63653Z" fill="white"/>
<path d="M6.77797 8.1915C6.6335 9.07271 6.46496 9.95391 6.29642 10.8351C6.27234 10.9841 6.20011 11.1206 6.11583 11.2323C5.30923 12.25 4.50263 13.2677 3.67195 14.3103C2.07079 12.2997 0.818746 10.016 0.036222 7.45923C-0.0841663 7.04966 0.0843773 6.68973 0.433504 6.45391C1.38457 5.83334 2.34768 5.22519 3.31079 4.64185C3.76826 4.35639 4.20166 4.48051 4.53875 4.92732C5.26108 5.88299 5.98341 6.82625 6.68166 7.79434C6.76593 7.89363 6.80205 8.06739 6.77797 8.1915Z" fill="white"/>
</g>
<defs>
<clipPath id="clip0_191_10102">
<rect width="31" height="42" fill="white"/>
</clipPath>
</defs>
</svg>
