<svg width="34" height="34" viewBox="0 0 34 34" fill="none" xmlns="http://www.w3.org/2000/svg">
<g clip-path="url(#clip0_243_5359)">
<path d="M23.8004 6.80005C22.8987 6.80005 22.0339 7.15826 21.3962 7.79589C20.7586 8.43351 20.4004 9.29831 20.4004 10.2C20.4004 11.1018 20.7586 11.9666 21.3962 12.6042C22.0339 13.2418 22.8987 13.6 23.8004 13.6C24.7021 13.6 25.5669 13.2418 26.2046 12.6042C26.8422 11.9666 27.2004 11.1018 27.2004 10.2C27.2004 9.29831 26.8422 8.43351 26.2046 7.79589C25.5669 7.15826 24.7021 6.80005 23.8004 6.80005Z" fill="#C6C6C6"/>
<path fill-rule="evenodd" clip-rule="evenodd" d="M0 3.4C0 2.49826 0.358213 1.63346 0.995837 0.995837C1.63346 0.358213 2.49826 0 3.4 0L30.6 0C31.5017 0 32.3665 0.358213 33.0042 0.995837C33.6418 1.63346 34 2.49826 34 3.4V30.6C34 31.1615 33.8614 31.7143 33.5965 32.2093C33.3056 32.7508 32.8733 33.2033 32.3456 33.5186C31.818 33.8339 31.2147 34.0003 30.6 34H3.4C2.49826 34 1.63346 33.6418 0.995837 33.0042C0.358213 32.3665 0 31.5017 0 30.6L0 3.4ZM10.9933 7.12187L10.2 6.32853L2.26667 14.2619V3.4C2.26667 3.09942 2.38607 2.81115 2.59861 2.59861C2.81115 2.38607 3.09942 2.26667 3.4 2.26667H30.6C30.9006 2.26667 31.1888 2.38607 31.4014 2.59861C31.6139 2.81115 31.7333 3.09942 31.7333 3.4V22.6667H26.5359L11.0024 7.13093L10.9933 7.12187Z" fill="#C6C6C6"/>
</g>
<defs>
<clipPath id="clip0_243_5359">
<rect width="34" height="34" fill="white"/>
</clipPath>
</defs>
</svg>
