
    <svg width="26" height="27" viewBox="0 0 26 27" fill="none" class="lg:w-6 w-5"
        xmlns="http://www.w3.org/2000/svg">
        <g>
            <path
                d="M7.75 0.958496H18.25C22.25 0.958496 25.5 4.2085 25.5 8.2085V18.7085C25.5 20.6313 24.7362 22.4754 23.3765 23.835C22.0169 25.1947 20.1728 25.9585 18.25 25.9585H7.75C3.75 25.9585 0.5 22.7085 0.5 18.7085V8.2085C0.5 6.28568 1.26384 4.44161 2.62348 3.08197C3.98311 1.72233 5.82718 0.958496 7.75 0.958496ZM7.5 3.4585C6.30653 3.4585 5.16193 3.9326 4.31802 4.77652C3.47411 5.62043 3 6.76502 3 7.9585V18.9585C3 21.446 5.0125 23.4585 7.5 23.4585H18.5C19.6935 23.4585 20.8381 22.9844 21.682 22.1405C22.5259 21.2966 23 20.152 23 18.9585V7.9585C23 5.471 20.9875 3.4585 18.5 3.4585H7.5ZM19.5625 5.3335C19.9769 5.3335 20.3743 5.49812 20.6674 5.79114C20.9604 6.08417 21.125 6.4816 21.125 6.896C21.125 7.3104 20.9604 7.70782 20.6674 8.00085C20.3743 8.29388 19.9769 8.4585 19.5625 8.4585C19.1481 8.4585 18.7507 8.29388 18.4576 8.00085C18.1646 7.70782 18 7.3104 18 6.896C18 6.4816 18.1646 6.08417 18.4576 5.79114C18.7507 5.49812 19.1481 5.3335 19.5625 5.3335ZM13 7.2085C14.6576 7.2085 16.2473 7.86698 17.4194 9.03908C18.5915 10.2112 19.25 11.8009 19.25 13.4585C19.25 15.1161 18.5915 16.7058 17.4194 17.8779C16.2473 19.05 14.6576 19.7085 13 19.7085C11.3424 19.7085 9.75269 19.05 8.58058 17.8779C7.40848 16.7058 6.75 15.1161 6.75 13.4585C6.75 11.8009 7.40848 10.2112 8.58058 9.03908C9.75269 7.86698 11.3424 7.2085 13 7.2085ZM13 9.7085C12.0054 9.7085 11.0516 10.1036 10.3483 10.8068C9.64509 11.5101 9.25 12.4639 9.25 13.4585C9.25 14.4531 9.64509 15.4069 10.3483 16.1101C11.0516 16.8134 12.0054 17.2085 13 17.2085C13.9946 17.2085 14.9484 16.8134 15.6517 16.1101C16.3549 15.4069 16.75 14.4531 16.75 13.4585C16.75 12.4639 16.3549 11.5101 15.6517 10.8068C14.9484 10.1036 13.9946 9.7085 13 9.7085Z"
                fill="white" />
        </g>
    </svg>