<svg width="55" height="56" viewBox="0 0 55 56" fill="none" xmlns="http://www.w3.org/2000/svg">
<path d="M14.378 35.8348C1.9297 30.533 6.84189 12.6361 15.4838 9.67972C19.0691 8.45319 23.0233 12.5227 22.9993 15.0487C22.9878 16.141 22.4298 17.2066 21.8477 18.3163C21.0846 19.7743 20.2802 21.3074 20.6217 23.0812C21.2232 26.2054 21.897 31.4771 20.1611 33.9788C18.4251 36.4816 16.68 36.8148 14.378 35.8348ZM39.3561 9.67972C47.9979 12.6361 52.9113 30.533 40.4618 35.8348C38.1598 36.816 36.4147 36.4816 34.6788 33.9788C32.9428 31.4771 33.6166 26.2054 34.2181 23.0812C34.5596 21.3074 33.7552 19.7731 32.9921 18.3163C32.41 17.2066 31.852 16.141 31.8417 15.0487C31.8165 12.5227 35.7719 8.45319 39.3561 9.67972ZM32.7916 26.6092L32.8718 27.7629H32.8867L32.8901 27.7617L32.8615 27.7652C32.6075 27.8117 32.3666 27.9136 32.1556 28.0637C31.8233 28.3032 31.3352 28.8332 31.3352 30.1708V46.9094H29.0436V30.1708C29.0436 28.1273 29.8571 26.8765 30.8253 26.1788C31.324 25.8223 31.8958 25.5838 32.4982 25.4811C32.5591 25.4717 32.6203 25.464 32.6816 25.4579L32.6999 25.4556H32.7114C32.7114 25.4544 32.7137 25.4544 32.7916 26.6092ZM22.0482 26.6092C21.9703 27.7629 21.9692 27.7629 21.968 27.7629H21.9543L21.9508 27.7617L21.9783 27.7652C22.2327 27.8115 22.474 27.9134 22.6853 28.0637C23.0176 28.3032 23.5057 28.8332 23.5057 30.1708V46.9094H25.7974V30.1708C25.7974 28.1273 24.9839 26.8765 24.0145 26.1788C23.5158 25.8223 22.944 25.5838 22.3416 25.4811C22.2807 25.4717 22.2195 25.464 22.1582 25.4579L22.1411 25.4556H22.1285C22.1285 25.4544 22.1273 25.4544 22.0482 26.6092Z" fill="white"/>
</svg>
