<svg width="25" height="24" viewBox="0 0 25 24" fill="none" class="lg:w-6 w-5"
xmlns="http://www.w3.org/2000/svg">
<g>
    <path
        d="M21.3737 0.458496C22.0823 0.458496 22.7619 0.727741 23.2629 1.207C23.764 1.68626 24.0455 2.33628 24.0455 3.01405V20.9029C24.0455 21.5807 23.764 22.2307 23.2629 22.71C22.7619 23.1893 22.0823 23.4585 21.3737 23.4585H2.67172C1.96313 23.4585 1.28357 23.1893 0.782528 22.71C0.281484 22.2307 0 21.5807 0 20.9029V3.01405C0 2.33628 0.281484 1.68626 0.782528 1.207C1.28357 0.727741 1.96313 0.458496 2.67172 0.458496H21.3737ZM20.7058 20.2641V13.4918C20.7058 12.3871 20.247 11.3275 19.4303 10.5463C18.6136 9.76514 17.5059 9.32627 16.3509 9.32627C15.2154 9.32627 13.8929 9.99072 13.2517 10.9874V9.56905H9.52467V20.2641H13.2517V13.9646C13.2517 12.9807 14.08 12.1757 15.1086 12.1757C15.6046 12.1757 16.0803 12.3642 16.431 12.6997C16.7817 13.0352 16.9788 13.4902 16.9788 13.9646V20.2641H20.7058ZM5.18313 7.56294C5.77834 7.56294 6.34917 7.33678 6.77005 6.9342C7.19093 6.53162 7.42737 5.98561 7.42737 5.41627C7.42737 4.22794 6.42548 3.25683 5.18313 3.25683C4.58438 3.25683 4.01015 3.48434 3.58677 3.88932C3.16338 4.29429 2.92553 4.84355 2.92553 5.41627C2.92553 6.60461 3.94078 7.56294 5.18313 7.56294ZM7.03998 20.2641V9.56905H3.33965V20.2641H7.03998Z"
        fill="white" />
</g>
</svg>