<svg width="36" height="39" viewBox="0 0 36 39" fill="none" xmlns="http://www.w3.org/2000/svg">
<g clip-path="url(#clip0_189_10009)">
<path d="M22.6934 9.97336C22.6726 7.86441 21.2277 6.40996 19.1069 6.39957C17.3605 6.39957 15.6036 6.39957 13.8572 6.39957C11.5493 6.39957 9.34547 6.89824 7.32872 8.02025C3.05613 10.4097 0.540389 14.0458 0.13496 18.939C-0.0833482 21.5362 0.0102123 24.1542 0.0621904 26.7619C0.0933772 28.6423 1.66311 30.2733 3.54472 30.398C6.4347 30.585 9.13756 29.8474 11.6845 28.476C11.7676 28.4345 11.8716 28.3306 11.8716 28.2579C11.882 27.3644 11.882 26.471 11.882 25.5567C11.4558 25.5567 11.0815 25.5567 10.7073 25.5567C10.4058 25.5567 10.1459 25.4944 10.1459 25.1308C10.1459 24.7568 10.4266 24.7152 10.7177 24.7152C11.0919 24.7152 11.4558 24.7152 11.8612 24.7152V21.0895C11.435 21.183 11.04 21.3388 10.6345 21.3596C9.53259 21.4116 8.43066 21.4116 7.32872 21.4323C6.70499 21.4427 6.01888 21.2765 5.4783 21.4947C4.94813 21.7128 4.57389 22.3154 4.12687 22.7517C4.09569 22.7933 4.05411 22.8245 4.02292 22.866C3.81501 23.0946 3.57591 23.2296 3.32641 22.9699C3.07692 22.7102 3.23285 22.4712 3.45116 22.2635C3.87738 21.8687 4.2932 21.4635 4.71942 21.0479C4.32439 20.6532 3.99173 20.3103 3.64868 19.9779C3.45116 19.7805 3.3576 19.5623 3.57591 19.3338C3.79422 19.1052 4.02292 19.1779 4.22043 19.3753C4.55309 19.7078 4.86496 20.0506 5.21841 20.3623C5.35356 20.4869 5.57186 20.5908 5.74859 20.5908C7.13121 20.6116 8.52422 20.6012 9.91723 20.6012C10.5929 20.6012 11.2271 20.4558 11.83 20.1545C12.8592 19.6351 13.8884 19.1156 14.9071 18.5754C15.0423 18.5027 15.1774 18.3261 15.1982 18.1806C15.3749 16.9028 15.8531 15.7496 16.7887 14.8769C17.4956 14.2224 17.9322 13.5472 17.7555 12.5602C17.7035 12.2901 17.8387 12.0615 18.1609 12.0615C18.4832 12.0615 18.5768 12.2693 18.5768 12.5602C18.5664 12.903 18.5768 13.2563 18.5768 13.651C18.9198 13.651 19.2317 13.651 19.5436 13.651C19.8035 13.651 19.9906 13.8069 19.949 14.0562C19.9178 14.212 19.7203 14.3575 19.5748 14.4614C19.5124 14.5133 19.3668 14.4925 19.2733 14.4718C18.5872 14.3471 18.0674 14.5964 17.6724 15.147C17.5684 15.2821 17.4333 15.386 17.3293 15.5107C16.4665 16.4768 16.0091 17.6092 16.0195 18.9182C16.0195 19.9571 16.0195 20.996 16.0195 22.0349V24.7776C16.7264 24.1335 17.5476 23.4582 18.2753 22.7102C20.1569 20.7778 21.4252 18.4819 22.1529 15.8847C22.683 13.9419 22.7246 11.9576 22.6934 9.97336ZM10.2499 11.4382C9.85486 11.4382 9.45982 11.4382 8.95044 11.4382C9.33508 11.8538 9.63655 12.1758 9.93802 12.4979C10.1459 12.7056 10.2499 12.9446 9.99 13.1732C9.7405 13.3913 9.5118 13.2666 9.31428 13.0589C8.91925 12.6329 8.51382 12.207 8.06681 11.7291C7.89009 11.9369 7.70296 12.1135 7.55743 12.3109C7.03765 13.0069 6.52826 13.7134 6.01888 14.4198C5.84215 14.6588 5.63424 14.8562 5.34316 14.6276C5.05208 14.4094 5.17683 14.1601 5.35356 13.9212C5.88373 13.2043 6.41391 12.4771 6.93369 11.7499C7.49505 10.9811 8.24354 10.5967 9.19993 10.6071C9.55338 10.6071 9.89644 10.6071 10.2499 10.6071C10.5202 10.6071 10.6969 10.7421 10.6969 11.033C10.7073 11.3239 10.5202 11.4382 10.2499 11.4382Z" fill="white"/>
<path d="M35.7815 7.53197C35.4488 6.88786 34.8978 6.55541 34.1701 6.54502C31.1866 6.54502 28.2031 6.54502 25.2195 6.5658C24.3359 6.5658 23.4835 6.79435 22.7766 7.13719C23.0157 7.82286 23.3795 8.45658 23.4523 9.12147C23.6914 11.4486 23.6082 13.7653 22.9533 16.0301C22.6622 17.0586 22.2568 18.0559 21.9033 19.0637C22.7246 19.313 23.7641 19.2403 24.6582 18.7936C29.0659 16.5703 32.7252 13.4433 35.6255 9.44353C36.0621 8.85136 36.1245 8.19686 35.7815 7.53197ZM29.2842 12.1135C28.5877 12.7056 27.8704 13.2874 27.1635 13.8796C26.9556 14.0562 26.7269 14.077 26.5502 13.8588C26.363 13.6407 26.4254 13.4225 26.6333 13.2459C27.3506 12.6433 28.0575 12.0408 28.7852 11.459C28.8892 11.3759 29.1075 11.3551 29.2426 11.3966C29.357 11.4278 29.4297 11.6044 29.5337 11.7395C29.4401 11.8953 29.3882 12.0304 29.2842 12.1135Z" fill="white"/>
<path d="M15.1256 18.9286V36.9222H12.7138C12.7034 36.7872 12.693 36.6417 12.693 36.5067C12.693 31.1979 12.693 25.8892 12.6826 20.5701C12.6826 20.2688 12.7658 20.1026 13.0465 19.9779C13.7326 19.6662 14.4083 19.3026 15.1256 18.9286Z" fill="white"/>
<path d="M23.0366 24.2062V39H20.2817V24.5594C21.1862 24.4451 22.101 24.3308 23.0366 24.2062Z" fill="white"/>
<path d="M25.8848 1.99467C25.3858 2.49334 24.866 3.03356 24.3255 3.55301C23.6393 4.20751 23.1715 4.97629 23.078 5.94246C23.0676 6.02557 22.974 6.13985 22.8805 6.18141C22.6518 6.29568 22.4127 6.40996 22.1632 6.48269C22.0696 6.51385 21.9241 6.46191 21.8305 6.42035C21.3627 6.20218 20.9053 5.97363 20.4479 5.72429C20.3335 5.66196 20.1984 5.53729 20.1672 5.42302C19.9801 4.69579 19.6059 4.09323 19.0757 3.57379C18.5247 3.04395 17.9945 2.49334 17.4644 1.96351C18.1297 1.29861 18.7742 0.664891 19.4291 0.0103889C20.136 0.727224 20.8741 1.47523 21.6434 2.2544C22.4439 1.45445 23.1715 0.716835 23.8784 0C24.5646 0.67528 25.2091 1.31939 25.8848 1.99467Z" fill="white"/>
<path d="M9.19997 6.26452C8.4099 6.60735 7.63023 6.95019 6.80898 7.30341C6.30999 6.48269 5.48873 6.18141 4.59471 5.99441C3.63832 5.78663 2.68192 5.54768 1.69434 5.30874C1.91264 4.43607 2.12056 3.60496 2.33886 2.7219C3.52396 3.06473 4.67788 3.3764 5.82139 3.72962C6.35157 3.89585 6.88175 4.08285 7.37034 4.33218C8.13961 4.74774 8.68019 5.37107 9.19997 6.26452Z" fill="white"/>
<path d="M21.082 23.6348C20.2711 23.6348 19.4499 23.6348 18.5767 23.6348C19.1068 23.0011 19.637 22.4193 20.1048 21.796C20.5726 21.1726 20.978 20.5181 21.4458 19.8221C22.4022 20.0818 23.4106 20.0922 24.4398 19.7493C24.6997 21.983 23.2547 23.6244 21.082 23.6348Z" fill="white"/>
</g>
<defs>
<clipPath id="clip0_189_10009">
<rect width="36" height="39" fill="white"/>
</clipPath>
</defs>
</svg>
