<svg width="96" height="74" viewBox="0 0 96 74" fill="none" xmlns="http://www.w3.org/2000/svg">
<g clip-path="url(#clip0_196_10206)" filter="url(#filter0_d_196_10206)">
<path d="M85.2774 13.7344C84.83 12.0462 83.9572 10.5071 82.7461 9.2704C81.535 8.03368 80.0277 7.1425 78.3744 6.6856C72.3214 5 47.9604 5 47.9604 5C47.9604 5 23.5982 5.05102 17.5453 6.73662C15.8919 7.19355 14.3846 8.08478 13.1735 9.32155C11.9624 10.5583 11.0897 12.0975 10.6423 13.7858C8.81146 24.7674 8.10123 41.5008 10.6926 52.0431C11.14 53.7313 12.0127 55.2704 13.2238 56.5072C14.435 57.7439 15.9422 58.6351 17.5956 59.092C23.6485 60.7776 48.0101 60.7776 48.0101 60.7776C48.0101 60.7776 72.3714 60.7776 78.424 59.092C80.0774 58.6351 81.5848 57.7439 82.796 56.5072C84.0071 55.2705 84.8799 53.7314 85.3273 52.0431C87.2584 41.046 87.8535 24.3228 85.2774 13.7344Z" fill="#FF0000"/>
<path d="M40.2065 44.8409L60.4159 32.8887L40.2065 20.9364V44.8409Z" fill="white"/>
</g>
<defs>
<filter id="filter0_d_196_10206" x="0" y="0" width="96" height="74" filterUnits="userSpaceOnUse" color-interpolation-filters="sRGB">
<feFlood flood-opacity="0" result="BackgroundImageFix"/>
<feColorMatrix in="SourceAlpha" type="matrix" values="0 0 0 0 0 0 0 0 0 0 0 0 0 0 0 0 0 0 127 0" result="hardAlpha"/>
<feOffset dy="4"/>
<feGaussianBlur stdDeviation="4.5"/>
<feComposite in2="hardAlpha" operator="out"/>
<feColorMatrix type="matrix" values="0 0 0 0 0 0 0 0 0 0 0 0 0 0 0 0 0 0 0.46 0"/>
<feBlend mode="normal" in2="BackgroundImageFix" result="effect1_dropShadow_196_10206"/>
<feBlend mode="normal" in="SourceGraphic" in2="effect1_dropShadow_196_10206" result="shape"/>
</filter>
<clipPath id="clip0_196_10206">
<rect width="78" height="56" fill="white" transform="translate(9 5)"/>
</clipPath>
</defs>
</svg>
