<svg width="152" height="66" viewBox="0 0 152 66" fill="none" xmlns="http://www.w3.org/2000/svg">
<path d="M10.6344 26.277C9.22336 26.277 7.94139 26.0447 6.78849 25.5801C5.63558 25.1155 4.63755 24.4616 3.79438 23.6184C2.95121 22.7753 2.29732 21.7858 1.83272 20.6501C1.38532 19.5144 1.16162 18.2841 1.16162 16.9591C1.16162 15.6341 1.39392 14.4038 1.85853 13.2681C2.34034 12.1324 3.01143 11.1516 3.87181 10.3256C4.74939 9.48243 5.77324 8.82854 6.94336 8.36394C8.11347 7.89934 9.39543 7.66703 10.7892 7.66703C11.7529 7.66703 12.6735 7.79609 13.5511 8.0542C14.4286 8.31232 15.2288 8.66507 15.9515 9.11247C16.6742 9.55986 17.2679 10.0761 17.7325 10.6611L15.332 13.1907C14.6609 12.554 13.9468 12.0636 13.1897 11.7194C12.4326 11.3581 11.6152 11.1774 10.7376 11.1774C9.92887 11.1774 9.18034 11.3236 8.49204 11.6162C7.82094 11.8915 7.22728 12.2959 6.71106 12.8293C6.21204 13.3455 5.81626 13.9564 5.52373 14.6619C5.24841 15.3674 5.11075 16.1331 5.11075 16.9591C5.11075 17.7679 5.25702 18.525 5.54955 19.2305C5.85928 19.936 6.27226 20.5555 6.78849 21.0889C7.32192 21.6051 7.94139 22.0181 8.6469 22.3279C9.35241 22.6204 10.1095 22.7667 10.9183 22.7667C11.4861 22.7667 12.0196 22.6806 12.5186 22.5085C13.0348 22.3193 13.4822 22.0698 13.8608 21.76C14.2566 21.4503 14.5663 21.0889 14.79 20.6759C15.0137 20.263 15.1255 19.8156 15.1255 19.3338V18.7143L15.616 19.437H10.5053V16.1848H18.8166C18.851 16.3741 18.8768 16.6064 18.894 16.8817C18.9112 17.157 18.9198 17.4237 18.9198 17.6818C18.937 17.9399 18.9456 18.155 18.9456 18.3271C18.9456 19.4972 18.7391 20.5727 18.3261 21.5535C17.9132 22.5171 17.3281 23.3517 16.571 24.0572C15.8138 24.7627 14.9277 25.3134 13.9124 25.7091C12.8972 26.0877 11.8045 26.277 10.6344 26.277Z" fill="#083D31"/>
<path d="M38.6491 26.277C37.3242 26.277 36.0938 26.0447 34.9581 25.5801C33.8396 25.1155 32.8674 24.4702 32.0414 23.6442C31.2327 22.8011 30.596 21.8116 30.1314 20.6759C29.684 19.5402 29.4603 18.2927 29.4603 16.9333C29.4603 15.5911 29.684 14.3522 30.1314 13.2165C30.596 12.0808 31.2327 11.0913 32.0414 10.2482C32.8674 9.405 33.8396 8.75111 34.9581 8.28651C36.0938 7.8219 37.3242 7.5896 38.6491 7.5896C39.9741 7.5896 41.1872 7.8219 42.2885 8.28651C43.407 8.75111 44.3792 9.405 45.2052 10.2482C46.0312 11.0913 46.6678 12.0808 47.1152 13.2165C47.5798 14.3522 47.8122 15.5997 47.8122 16.9591C47.8122 18.2841 47.5798 19.5144 47.1152 20.6501C46.6678 21.7858 46.0312 22.7753 45.2052 23.6184C44.3792 24.4616 43.407 25.1155 42.2885 25.5801C41.1872 26.0447 39.9741 26.277 38.6491 26.277ZM38.6491 22.6118C39.4063 22.6118 40.1032 22.4741 40.7399 22.1988C41.3765 21.9063 41.9272 21.5105 42.3918 21.0115C42.8736 20.4953 43.2435 19.893 43.5017 19.2047C43.7598 18.5164 43.8888 17.7679 43.8888 16.9591C43.8888 16.1331 43.7598 15.376 43.5017 14.6877C43.2435 13.9994 42.8736 13.3971 42.3918 12.8809C41.9272 12.3647 41.3765 11.9689 40.7399 11.6936C40.1032 11.4011 39.4063 11.2548 38.6491 11.2548C37.892 11.2548 37.1865 11.4011 36.5326 11.6936C35.8959 11.9689 35.3367 12.3647 34.8549 12.8809C34.3903 13.3799 34.0289 13.9822 33.7708 14.6877C33.5127 15.376 33.3836 16.1331 33.3836 16.9591C33.3836 18.0432 33.6073 19.0154 34.0547 19.8758C34.5193 20.719 35.1474 21.3901 35.9389 21.8891C36.7305 22.3709 37.6339 22.6118 38.6491 22.6118Z" fill="#083D31"/>
<path d="M58.2735 26.0188V7.95091H62.1452V22.5343H70.3274V26.0188H58.2735Z" fill="#083D31"/>
<path d="M81.7216 26.0188V22.6892H84.7416V11.2806H81.7216V7.95091H91.6074V11.2806H88.6133V22.6892H91.6074V26.0188H81.7216Z" fill="#083D31"/>
<path d="M104.108 26.0188V7.95091H107.979V26.0188H104.108ZM105.889 18.8433V15.4878H115.258V18.8433H105.889ZM105.889 11.4354V7.95091H116.342V11.4354H105.889Z" fill="#083D31"/>
<path d="M128.197 26.0188V7.95091H140.38V11.358H131.991V22.6117H140.561V26.0188H128.197ZM130.004 18.4561V15.1523H139.141V18.4561H130.004Z" fill="#083D31"/>
<path d="M64.1326 59.2581C62.4463 59.2581 61.0009 58.9569 59.7963 58.3547C58.609 57.7352 57.5852 56.8404 56.7248 55.6703L59.1511 52.9343C59.9942 54.1044 60.8288 54.9046 61.6548 55.3348C62.4979 55.7477 63.4013 55.9542 64.3649 55.9542C64.8984 55.9542 65.3716 55.8768 65.7846 55.7219C66.2148 55.5671 66.5503 55.352 66.7912 55.0766C67.0493 54.8013 67.1784 54.483 67.1784 54.1216C67.1784 53.8463 67.1181 53.5968 66.9977 53.3731C66.8772 53.1322 66.7052 52.9257 66.4815 52.7536C66.2578 52.5643 65.9911 52.4009 65.6813 52.2632C65.3716 52.1083 65.0274 51.9793 64.6489 51.876C64.2703 51.7728 63.8573 51.6782 63.4099 51.5921C62.4463 51.3856 61.6031 51.1189 60.8804 50.792C60.1577 50.465 59.5554 50.0692 59.0736 49.6046C58.5918 49.14 58.2305 48.6066 57.9895 48.0043C57.7658 47.3849 57.654 46.6966 57.654 45.9394C57.654 44.8726 57.9551 43.9434 58.5574 43.1518C59.1597 42.3431 59.9598 41.715 60.9578 41.2676C61.9559 40.803 63.0572 40.5707 64.2617 40.5707C65.8964 40.5707 67.2386 40.846 68.2883 41.3966C69.3551 41.9473 70.2069 42.7216 70.8436 43.7197L68.3657 46.1459C67.8323 45.406 67.2214 44.8468 66.5331 44.4682C65.8448 44.0896 65.1049 43.9003 64.3133 43.9003C63.7627 43.9003 63.2723 43.9778 62.8421 44.1326C62.4291 44.2703 62.1108 44.4854 61.8871 44.7779C61.6634 45.0532 61.5515 45.3802 61.5515 45.7588C61.5515 46.0685 61.6289 46.3438 61.7838 46.5847C61.9387 46.8256 62.1538 47.0407 62.4291 47.23C62.7216 47.4021 63.0744 47.5569 63.4874 47.6946C63.9003 47.8323 64.3563 47.9441 64.8554 48.0302C65.8018 48.2194 66.6536 48.4775 67.4107 48.8045C68.1678 49.1142 68.8131 49.4928 69.3465 49.9402C69.8972 50.3876 70.3188 50.9038 70.6113 51.4889C70.9038 52.0739 71.0501 52.7278 71.0501 53.4505C71.0501 54.6723 70.7575 55.7133 70.1725 56.5737C69.5874 57.4341 68.7787 58.0966 67.7462 58.5612C66.7138 59.0258 65.5092 59.2581 64.1326 59.2581Z" fill="#083D31"/>
<path d="M82.8164 59V40.932H90.4824C91.5664 40.932 92.5387 41.1902 93.399 41.7064C94.2594 42.2054 94.9391 42.8937 95.4381 43.7713C95.9544 44.6317 96.2125 45.6125 96.2125 46.7138C96.2125 47.8323 95.9544 48.8475 95.4381 49.7595C94.9391 50.6543 94.2594 51.3684 93.399 51.9018C92.5387 52.4181 91.5664 52.6762 90.4824 52.6762H86.6881V59H82.8164ZM86.6365 49.1658H90.0694C90.4652 49.1658 90.8265 49.0626 91.1535 48.8561C91.4804 48.6496 91.7471 48.3657 91.9536 48.0043C92.1601 47.643 92.2634 47.23 92.2634 46.7654C92.2634 46.3008 92.1601 45.8964 91.9536 45.5523C91.7471 45.2081 91.4804 44.9328 91.1535 44.7263C90.8265 44.5198 90.4652 44.4166 90.0694 44.4166H86.6365V49.1658Z" fill="#083D31"/>
<path d="M104.108 59L111.206 40.932H114.665L121.711 59H117.762L114.097 49.2691C113.994 48.9766 113.865 48.6152 113.71 48.185C113.572 47.7548 113.426 47.2988 113.271 46.817C113.116 46.3352 112.97 45.8792 112.832 45.449C112.712 45.0016 112.608 44.6403 112.522 44.3649L113.219 44.3391C113.116 44.7177 112.996 45.1221 112.858 45.5523C112.738 45.9652 112.6 46.3954 112.445 46.8428C112.307 47.2902 112.161 47.7204 112.006 48.1334C111.869 48.5464 111.731 48.9422 111.593 49.3207L107.954 59H104.108ZM107.412 55.2057L108.702 52.0567H116.936L118.253 55.2057H107.412Z" fill="#083D31"/>
<path d="M132.532 59V40.932H135.991L146.006 54.4572H145.309C145.189 53.5796 145.085 52.7106 144.999 51.8502C144.913 50.9726 144.853 50.0434 144.819 49.0626C144.801 48.0818 144.793 46.9891 144.793 45.7846V40.932H148.561V59H145.051L134.855 45.3974H135.785C135.905 46.5331 136 47.4709 136.069 48.2108C136.137 48.9508 136.189 49.5702 136.223 50.0692C136.258 50.5511 136.284 50.9812 136.301 51.3598C136.318 51.7384 136.327 52.1341 136.327 52.5471V59H132.532Z" fill="#083D31"/>
<circle cx="32.2642" cy="5.03778" r="2.15094" fill="#F8D419"/>
<circle cx="46.6038" cy="5.03778" r="2.15094" fill="#F8D419"/>
<mask id="path-4-inside-1_19_79" fill="white">
<path d="M53.0567 17.2265C53.0567 19.1096 52.6858 20.9742 51.9651 22.714C51.2445 24.4538 50.1883 26.0346 48.8567 27.3661C47.5252 28.6977 45.9444 29.7539 44.2046 30.4745C42.4648 31.1952 40.6002 31.5661 38.7171 31.5661C36.834 31.5661 34.9693 31.1952 33.2295 30.4745C31.4898 29.7539 29.909 28.6977 28.5774 27.3661C27.2459 26.0345 26.1896 24.4538 25.469 22.714C24.7483 20.9742 24.3774 19.1096 24.3774 17.2265H27.7979C27.7979 18.6604 28.0803 20.0803 28.629 21.4051C29.1778 22.7298 29.9821 23.9336 30.996 24.9475C32.01 25.9614 33.2137 26.7657 34.5385 27.3145C35.8632 27.8632 37.2831 28.1457 38.7171 28.1457C40.151 28.1457 41.5709 27.8632 42.8957 27.3145C44.2204 26.7657 45.4242 25.9614 46.4381 24.9475C47.452 23.9336 48.2563 22.7298 48.8051 21.4051C49.3538 20.0803 49.6363 18.6604 49.6363 17.2265H53.0567Z"/>
</mask>
<path d="M53.0567 17.2265C53.0567 19.1096 52.6858 20.9742 51.9651 22.714C51.2445 24.4538 50.1883 26.0346 48.8567 27.3661C47.5252 28.6977 45.9444 29.7539 44.2046 30.4745C42.4648 31.1952 40.6002 31.5661 38.7171 31.5661C36.834 31.5661 34.9693 31.1952 33.2295 30.4745C31.4898 29.7539 29.909 28.6977 28.5774 27.3661C27.2459 26.0345 26.1896 24.4538 25.469 22.714C24.7483 20.9742 24.3774 19.1096 24.3774 17.2265H27.7979C27.7979 18.6604 28.0803 20.0803 28.629 21.4051C29.1778 22.7298 29.9821 23.9336 30.996 24.9475C32.01 25.9614 33.2137 26.7657 34.5385 27.3145C35.8632 27.8632 37.2831 28.1457 38.7171 28.1457C40.151 28.1457 41.5709 27.8632 42.8957 27.3145C44.2204 26.7657 45.4242 25.9614 46.4381 24.9475C47.452 23.9336 48.2563 22.7298 48.8051 21.4051C49.3538 20.0803 49.6363 18.6604 49.6363 17.2265H53.0567Z" stroke="#F8D419" stroke-width="7.16981" mask="url(#path-4-inside-1_19_79)"/>
</svg>
