<svg width="34" height="53" viewBox="0 0 34 53" fill="none" xmlns="http://www.w3.org/2000/svg">
<g clip-path="url(#clip0_301_10091)">
<path d="M27.3584 22.7626C27.0178 22.4969 26.884 22.2313 26.8962 21.8086C26.9205 20.4441 26.9083 19.0674 26.9083 17.7029C26.9083 16.278 26.0933 15.4327 24.6701 15.3602C24.5241 15.3481 24.3781 15.324 24.1835 15.2998C24.3295 15.0342 24.4511 14.841 24.5606 14.6357C27.1151 10.1435 29.6819 5.66347 32.2608 1.17133C32.7109 0.386416 32.5041 0.0120707 31.6039 0.0120707C29.0371 0.0120707 26.4704 0.0241463 23.9159 -4.93921e-06C23.4414 -4.93921e-06 23.1617 0.156978 22.9427 0.555475C22.2736 1.77511 21.5681 2.9706 20.8747 4.17817C19.6096 6.38801 18.3445 8.59785 17.0185 10.9043C16.8604 10.6507 16.7509 10.4937 16.6658 10.3247C14.8289 7.12462 12.9921 3.93666 11.1795 0.724534C10.8754 0.18113 10.5105 -0.0120806 9.8901 -4.93921e-06C7.43286 0.036222 4.98777 0.0120707 2.54269 0.0120707C1.46005 0.0120707 1.26541 0.338113 1.78849 1.25586C4.35522 5.72385 6.90978 10.1918 9.4765 14.6719C9.58599 14.8651 9.69547 15.0583 9.84144 15.3119C9.67114 15.3361 9.57382 15.3602 9.48867 15.3602C8.18706 15.2395 7.03142 16.2417 7.10441 17.8478C7.16523 19.2003 7.10441 20.5527 7.12874 21.8931C7.12874 22.2554 7.01926 22.4728 6.72731 22.7022C1.67901 26.7113 -0.620098 31.9159 0.146271 38.2798C1.25325 47.3727 9.45217 53.7728 18.6973 52.9275C27.103 52.1547 33.8543 45.0059 33.9881 36.6375C34.0976 30.9378 31.835 26.3128 27.3584 22.7626ZM28.064 1.59398C28.2586 1.25586 28.4654 1.14718 28.8425 1.15926C29.4994 1.18341 30.1563 1.17133 30.9105 1.17133C29.6697 3.33287 28.4897 5.39781 27.3219 7.45067C25.8987 9.92618 24.4754 12.4017 23.0643 14.8893C22.8697 15.2274 22.6507 15.3964 22.2493 15.3723C21.6168 15.3361 20.972 15.3602 20.2422 15.3602C20.3395 15.1429 20.4003 14.9979 20.4733 14.8651C23.0157 10.4334 25.5459 6.02574 28.064 1.59398ZM23.6604 1.64228C23.855 1.30416 24.0497 1.14718 24.4633 1.15926C25.254 1.19548 26.0568 1.17133 26.957 1.17133C26.8232 1.42492 26.738 1.59398 26.6529 1.75096C24.1592 6.11027 21.6532 10.4575 19.1717 14.8168C18.9405 15.2274 18.6729 15.3844 18.2107 15.3602C17.4565 15.324 16.7023 15.3481 15.8507 15.3481C15.9602 15.1187 16.0332 14.9496 16.1184 14.7927C18.6364 10.4213 21.1545 6.03782 23.6604 1.64228ZM9.8901 1.18341C10.0117 1.18341 10.1699 1.36454 10.2429 1.49737C12.2135 4.92686 14.1842 8.35634 16.1427 11.7858C16.2278 11.9307 16.2522 12.2085 16.167 12.3534C15.7534 13.1383 15.3033 13.8991 14.8046 14.7564C12.2014 10.216 9.63464 5.748 7.01926 1.17133C8.04108 1.17133 8.96559 1.15926 9.8901 1.18341ZM4.64717 3.90043C4.14842 3.01891 3.63751 2.13738 3.0901 1.17133C3.95378 1.17133 4.72015 1.15926 5.48652 1.18341C5.60817 1.18341 5.75414 1.32832 5.82713 1.437C8.45468 6.02574 11.0701 10.6024 13.6976 15.1912C13.7098 15.2032 13.6976 15.2274 13.7219 15.3481C12.9434 15.3481 12.2135 15.3844 11.4837 15.324C11.289 15.3119 11.0579 15.0462 10.9363 14.841C8.83178 11.1941 6.73947 7.54727 4.64717 3.90043ZM8.28438 17.3889C8.29654 16.8214 8.7223 16.5195 9.37919 16.5195C10.8998 16.5074 12.4082 16.5195 13.9166 16.5195H20.0232C21.4951 16.5195 22.9792 16.5195 24.4511 16.5195C25.3999 16.5195 25.7162 16.8455 25.7284 17.7633C25.7284 19.0191 25.7284 20.2629 25.7284 21.6033C19.8651 18.4516 14.099 18.4637 8.26005 21.6033C8.27221 20.1542 8.24788 18.7776 8.28438 17.3889ZM17.0064 51.8649C8.27221 51.8649 1.14377 44.7886 1.15593 36.1182C1.15593 27.4721 8.27221 20.4078 16.982 20.3958C25.7162 20.3837 32.8568 27.4842 32.8447 36.1545C32.8325 44.8006 25.7284 51.8528 17.0064 51.8649Z" fill="#083D31"/>
<path d="M17.0185 24.1754C10.3401 24.1634 4.93903 29.5249 4.95119 36.1545C4.96336 42.7599 10.3523 48.0973 17.0063 48.0973C23.6603 48.0973 29.0371 42.7478 29.0492 36.1424C29.0492 29.537 23.6846 24.1875 17.0185 24.1754ZM16.9941 46.938C10.9727 46.938 6.10683 42.0957 6.10683 36.1182C6.11899 30.1408 10.997 25.3226 17.0185 25.3347C23.0278 25.3468 27.8571 30.1529 27.8693 36.1182C27.8936 42.0957 23.0156 46.938 16.9941 46.938Z" fill="#083D31"/>
<path d="M21.5194 37.2896C22.5655 36.3718 23.5995 35.4299 24.6092 34.476C24.7916 34.3069 24.9498 33.9446 24.8889 33.7514C24.8281 33.5582 24.4875 33.365 24.2442 33.3288C22.9548 33.1476 21.6653 32.9906 20.3759 32.882C19.8285 32.8337 19.4757 32.6767 19.2446 32.1212C18.758 30.9257 18.1984 29.7544 17.6389 28.5951C17.5172 28.3536 17.2253 28.0517 17.0063 28.0517C16.7873 28.0517 16.4832 28.3415 16.3737 28.571C15.7777 29.8027 15.2059 31.0465 14.6585 32.3023C14.5126 32.6405 14.3058 32.7974 13.9408 32.8337C12.5541 32.9786 11.1673 33.1235 9.78054 33.3167C9.53725 33.3529 9.14798 33.5461 9.12365 33.7152C9.07499 33.9446 9.2453 34.3069 9.42777 34.488C10.4374 35.4541 11.4957 36.3598 12.4932 37.3258C12.6635 37.4828 12.773 37.8209 12.7365 38.0503C12.4932 39.4149 12.177 40.7674 11.9337 42.1319C11.885 42.3976 11.9458 42.8202 12.1161 42.941C12.2864 43.0738 12.7122 43.0014 12.9555 42.8806C14.1476 42.2527 15.3398 41.5885 16.4954 40.8881C16.8847 40.6587 17.1644 40.6828 17.5415 40.9002C18.7215 41.6006 19.9258 42.2647 21.1301 42.9289C21.7018 43.2429 22.1398 43.0134 22.1276 42.3855C22.1154 42.3251 22.1033 42.2285 22.0911 42.1319C21.8235 40.7915 21.5559 39.4511 21.2639 38.1228C21.1788 37.7847 21.2396 37.5432 21.5194 37.2896ZM20.68 36.4805C20.0596 36.9756 19.8528 37.4828 20.0839 38.2677C20.3637 39.2579 20.5097 40.2843 20.7287 41.3953C19.6217 40.7794 18.5999 40.224 17.6024 39.6323C17.1644 39.3666 16.8117 39.3787 16.3737 39.6443C15.3762 40.236 14.3544 40.7794 13.2474 41.3953C13.5029 40.1394 13.7097 38.9922 13.9773 37.8571C14.0868 37.3741 13.953 37.0601 13.6002 36.7462C12.8703 36.1182 12.1648 35.442 11.4471 34.802C11.3133 34.6812 11.1186 34.6088 10.9605 34.5122C11.0092 34.4518 11.0457 34.3794 11.0943 34.319C12.2378 34.1861 13.3934 34.0412 14.5369 33.9326C15.0235 33.8842 15.3033 33.691 15.4979 33.2442C15.9601 32.1937 16.4589 31.1552 16.9941 29.9717C17.4199 30.9016 17.797 31.7106 18.1741 32.5197C18.7945 33.8601 18.7945 33.8601 20.2786 34.0292C21.1544 34.1258 22.0303 34.2224 23.0521 34.3431C22.2006 35.116 21.4707 35.8405 20.68 36.4805Z" fill="#F8D419"/>
</g>
<defs>
<clipPath id="clip0_301_10091">
<rect width="34" height="53" fill="white"/>
</clipPath>
</defs>
</svg>
