<svg width="16" height="16" viewBox="0 0 16 16" fill="none" xmlns="http://www.w3.org/2000/svg">
<g clip-path="url(#clip0_208_1889)">
<path d="M10.6668 4.00004C10.6668 2.74271 10.6668 2.11471 10.2762 1.72404C9.8855 1.33337 9.2575 1.33337 8.00016 1.33337C6.74283 1.33337 6.11483 1.33337 5.72416 1.72404C5.3335 2.11471 5.3335 2.74271 5.3335 4.00004M1.3335 9.33337C1.3335 6.81937 1.3335 5.56204 2.11483 4.78137C2.8955 4.00004 4.15283 4.00004 6.66683 4.00004H9.3335C11.8475 4.00004 13.1048 4.00004 13.8855 4.78137C14.6668 5.56204 14.6668 6.81937 14.6668 9.33337C14.6668 11.8474 14.6668 13.1047 13.8855 13.8854C13.1048 14.6667 11.8475 14.6667 9.3335 14.6667H6.66683C4.15283 14.6667 2.8955 14.6667 2.11483 13.8854C1.3335 13.1047 1.3335 11.8474 1.3335 9.33337Z" stroke="white" stroke-width="1.2"/>
<path d="M9 9.33337H7M8 8.33337V10.3334" stroke="white" stroke-width="1.2" stroke-linecap="round"/>
<path d="M8.00016 12.0001C9.47292 12.0001 10.6668 10.8062 10.6668 9.33341C10.6668 7.86066 9.47292 6.66675 8.00016 6.66675C6.5274 6.66675 5.3335 7.86066 5.3335 9.33341C5.3335 10.8062 6.5274 12.0001 8.00016 12.0001Z" stroke="white" stroke-width="1.2"/>
</g>
<defs>
<clipPath id="clip0_208_1889">
<rect width="16" height="16" fill="white"/>
</clipPath>
</defs>
</svg>
