<svg width="16" height="16" viewBox="0 0 16 16" fill="none" xmlns="http://www.w3.org/2000/svg">
<g clip-path="url(#clip0_243_5280)">
<path fill-rule="evenodd" clip-rule="evenodd" d="M14.3643 3.40732C14.5518 3.59484 14.6571 3.84915 14.6571 4.11432C14.6571 4.37948 14.5518 4.63379 14.3643 4.82132L6.86901 12.3166C6.76996 12.4157 6.65236 12.4943 6.52293 12.5479C6.3935 12.6016 6.25477 12.6292 6.11468 12.6292C5.97458 12.6292 5.83585 12.6016 5.70642 12.5479C5.57699 12.4943 5.4594 12.4157 5.36034 12.3166L1.63634 8.59332C1.54083 8.50107 1.46465 8.39072 1.41224 8.26872C1.35983 8.14672 1.33225 8.0155 1.33109 7.88272C1.32994 7.74994 1.35524 7.61826 1.40552 7.49536C1.4558 7.37247 1.53006 7.26081 1.62395 7.16692C1.71784 7.07303 1.82949 6.99878 1.95239 6.94849C2.07529 6.89821 2.20696 6.87291 2.33974 6.87407C2.47252 6.87522 2.60374 6.90281 2.72575 6.95521C2.84775 7.00762 2.9581 7.08381 3.05034 7.17932L6.11434 10.2433L12.9497 3.40732C13.0425 3.31439 13.1528 3.24067 13.2742 3.19038C13.3955 3.14008 13.5256 3.1142 13.657 3.1142C13.7884 3.1142 13.9185 3.14008 14.0398 3.19038C14.1612 3.24067 14.2715 3.31439 14.3643 3.40732Z" fill="white"/>
</g>
<defs>
<clipPath id="clip0_243_5280">
<rect width="16" height="16" fill="white"/>
</clipPath>
</defs>
</svg>
