<svg width="50" height="50" viewBox="0 0 50 50" fill="none" xmlns="http://www.w3.org/2000/svg">
<g clip-path="url(#clip0_301_10084)">
<path d="M39.2851 19.9332C44.3143 20.4028 49.1453 16.7084 49.8966 11.3964C49.9174 11.2398 49.9696 11.0833 50.0009 10.9267V8.98559C49.907 8.54727 49.8235 8.09851 49.7087 7.66019C48.5401 2.98476 44.4395 -0.177422 39.6399 0.020866C35.8628 0.17741 33.0769 2.05593 31.1987 5.31204C31.1361 5.42684 31.084 5.54163 31.0213 5.65643C31.0109 5.68774 30.9796 5.69818 30.9274 5.7608C30.1449 5.46858 29.331 5.1868 28.538 4.87372C28.4337 4.83197 28.3294 4.60237 28.3398 4.4667C28.392 2.35858 27.2234 0.73053 25.2409 0.156537C23.4045 -0.365275 21.4325 0.521805 20.483 2.31684C19.6274 3.93445 20.0552 6.11563 21.4533 7.29492C23.3836 8.91254 25.9608 8.63076 27.5364 6.64788C27.6198 6.54351 27.839 6.42871 27.9433 6.46002C28.7572 6.73137 29.5606 7.04445 30.4057 7.35754C29.8632 9.28824 29.9153 11.1981 30.5309 13.1288C27.4738 14.4229 24.4479 15.7065 21.422 16.9902C18.4274 12.3669 14.3373 10.7493 8.97419 12.2626C8.90115 12.1165 8.79681 11.9182 8.7029 11.7199C8.09773 10.4362 7.49255 9.16301 6.87694 7.88979C6.73086 7.59757 6.75173 7.43059 7.00215 7.19056C8.29597 6.00083 8.6716 4.28929 8.04556 2.64036C7.47168 1.12711 5.95874 0.0313022 4.26843 0.020866C2.53637 0.0104298 1.22168 0.793147 0.459995 2.35858C-0.249521 3.79878 -0.134746 5.25986 0.804319 6.56439C1.79555 7.9524 3.19372 8.50552 4.89447 8.26549C4.97794 8.25505 5.05098 8.23418 5.18662 8.21331C5.94831 9.81005 6.69956 11.3964 7.48212 13.0349C4.45624 14.9969 2.67202 17.7103 2.55724 21.363C2.44247 25.0156 4.01801 27.8439 6.94998 30.0042C6.43871 30.9121 5.94831 31.8096 5.43704 32.728C4.56058 32.4776 3.70499 32.4776 2.83896 32.7593C1.28429 33.2707 0.18871 34.7005 0.0321987 36.4642C-0.103444 38.0192 0.804319 39.5951 2.32769 40.4091C3.69455 41.1396 5.53095 40.9518 6.73086 39.9708C8.69247 38.374 8.89071 35.7232 7.16909 33.8656C6.96041 33.636 6.91868 33.469 7.07519 33.1977C7.52385 32.4254 7.95165 31.6427 8.40031 30.8286C12.0105 32.2897 15.4016 31.914 18.5944 29.6389C19.6795 30.8391 20.7542 32.0184 21.8602 33.229C20.8377 34.3769 20.0865 35.6293 19.6378 37.0695C19.1891 38.4993 19.0744 39.9708 19.283 41.484C19.1578 41.5362 19.0431 41.5988 18.9178 41.6197C17.8744 41.8702 16.831 42.0998 15.7876 42.3711C15.5059 42.4442 15.3911 42.3711 15.2451 42.1311C14.1182 40.2526 11.8644 39.5116 9.96542 40.4091C7.97252 41.3484 7.05432 43.4878 7.7534 45.5959C8.30641 47.2553 10.1219 48.4867 11.8227 48.3615C13.8365 48.2154 15.4224 46.8378 15.7459 44.9593C15.7981 44.6671 15.8189 44.3853 15.8607 44.0618C17.1232 43.7696 18.3753 43.4669 19.5126 43.1956C20.1595 44.2705 20.6708 45.335 21.3698 46.243C23.0289 48.3824 25.2513 49.6034 27.9433 49.9478C28.0372 49.9582 28.1207 50 28.2146 50.0313H30.1658C30.99 49.8121 31.8456 49.666 32.6491 49.3738C38.0539 47.4118 40.6624 41.1292 38.2522 35.9111C38.1687 35.7232 38.0748 35.5249 37.9704 35.3058C38.4295 35.0031 38.8678 34.7109 39.3164 34.4187C40.3911 33.7195 41.4763 33.0202 42.5406 32.321C42.7284 32.1958 42.8744 32.1227 43.0831 32.3106C45.5456 34.4917 49.427 33.0724 49.9279 29.7954C49.9279 29.7641 49.9696 29.7433 49.98 29.7224V28.7414C49.7609 27.6247 49.2914 26.6646 48.3836 25.934C47.0063 24.8382 45.003 24.7443 43.5109 25.7358C42.0501 26.7063 41.3302 28.5953 41.8206 30.2651C41.9249 30.599 41.8728 30.7764 41.5702 30.9747C40.0572 31.9349 38.5652 32.9159 37.0418 33.9073C36.0401 32.6445 34.8193 31.6635 33.3273 30.9539C34.6837 27.1864 36.0297 23.4502 37.3757 19.714C38.0435 19.7767 38.6591 19.881 39.2851 19.9332ZM24.187 6.64788C22.8202 6.64788 21.7037 5.55207 21.6933 4.17449C21.6829 2.78647 22.8306 1.64892 24.1975 1.65935C25.5539 1.66979 26.6808 2.80734 26.6703 4.16405C26.6599 5.54163 25.5539 6.64788 24.187 6.64788ZM4.21626 6.64788C2.82853 6.66875 1.68078 5.54163 1.68078 4.16405C1.68078 2.81778 2.81809 1.66979 4.17452 1.66979C5.53095 1.65935 6.65782 2.78647 6.67869 4.14318C6.67869 5.52076 5.58312 6.63744 4.21626 6.64788ZM4.17452 39.1567C2.81809 39.1567 1.69121 38.0192 1.68078 36.6625C1.68078 35.3058 2.80766 34.1787 4.16409 34.1682C5.53095 34.1578 6.65783 35.264 6.66826 36.6312C6.67869 38.0296 5.56225 39.1672 4.17452 39.1567ZM11.6662 46.6708C10.2889 46.6604 9.17243 45.502 9.1933 44.114C9.21417 42.7468 10.341 41.6614 11.7183 41.6823C13.0852 41.7032 14.1912 42.8303 14.1703 44.1974C14.1599 45.5542 13.0122 46.6813 11.6662 46.6708ZM45.869 26.6646C47.2254 26.6854 48.3523 27.8334 48.3419 29.1797C48.3314 30.5469 47.2046 31.6531 45.8377 31.6531C44.4604 31.6531 43.3544 30.5469 43.3544 29.1693C43.344 27.7917 44.4917 26.6437 45.869 26.6646ZM44.6482 16.9067C42.0293 18.7852 37.9809 18.7957 35.3828 16.8963C35.2576 16.8023 35.1637 16.5414 35.2054 16.3849C35.581 14.7986 37.1461 13.4836 38.7634 13.3792C39.1808 13.3479 39.6086 13.3792 40.0259 13.3792C41.205 13.2853 42.3319 13.4314 43.3022 14.1828C44.0431 14.7568 44.5543 15.4874 44.8152 16.3953C44.8882 16.604 44.8673 16.7502 44.6482 16.9067ZM37.5113 9.14213C37.5218 7.78542 38.6695 6.64787 40.0155 6.65831C41.3824 6.66875 42.4884 7.78542 42.4988 9.15257C42.4988 10.5302 41.4032 11.6364 40.0259 11.6468C38.6382 11.6677 37.4905 10.5302 37.5113 9.14213ZM33.8072 4.44583C37.0105 0.887074 42.4049 0.709658 45.8273 4.05969C49.2601 7.42016 48.9158 12.5548 46.2759 15.383C45.6186 13.8593 44.5543 12.7531 42.9788 12.0747C43.9491 10.9685 44.3561 9.70569 44.0535 8.27593C43.8344 7.2323 43.2605 6.39741 42.4049 5.77123C40.8398 4.61281 38.513 4.80066 37.0835 6.20955C35.7793 7.49321 35.1637 9.91442 37.0001 12.0747C35.4871 12.7426 34.3811 13.8384 33.7342 15.3726C31.3344 12.9201 30.6562 7.9524 33.8072 4.44583ZM7.85774 28.5327C7.74297 28.4492 7.6595 28.1987 7.70123 28.063C8.12903 26.602 9.05766 25.5896 10.5393 25.1826C11.8123 24.8382 13.1269 24.8591 14.3999 25.1618C15.965 25.5375 17.0606 26.7689 17.3736 28.3552C14.7964 30.4529 10.4976 30.5364 7.85774 28.5327ZM9.99672 20.862C9.97586 19.4949 11.1236 18.3469 12.5113 18.3469C13.8886 18.3469 14.9842 19.4531 14.9842 20.8307C14.9842 22.1979 13.8678 23.325 12.5113 23.3354C11.1549 23.3354 10.0176 22.2187 9.99672 20.862ZM17.4675 25.1096C16.9249 24.5565 16.2259 24.1494 15.5581 23.6485C16.4554 22.6571 16.831 21.4256 16.5806 20.0584C16.3928 19.0148 15.8398 18.1695 14.9946 17.512C13.4087 16.291 11.061 16.4371 9.5898 17.8773C8.23337 19.2131 7.71167 21.6447 9.50632 23.7529C7.95165 24.4312 6.87694 25.527 6.23003 27.0507C3.68412 24.3477 3.25632 19.2757 6.55348 15.8631C9.72544 12.5757 15.0468 12.4922 18.344 15.7378C21.6829 19.0044 21.4951 24.1181 18.8552 27.009C18.4066 26.3724 18.0101 25.6627 17.4675 25.1096ZM33.7968 46.9109C32.3882 47.8501 30.844 48.3198 29.1641 48.3406C27.5364 48.3198 26.0339 47.8606 24.6566 46.9839C24.3331 46.7752 24.2809 46.5873 24.3957 46.2325C24.8861 44.6671 26.3886 43.446 28.0372 43.3625C28.7989 43.3312 29.571 43.3312 30.3327 43.3625C32.0126 43.446 33.5881 44.7714 33.9951 46.3891C34.0368 46.6291 34.0159 46.7648 33.7968 46.9109ZM26.6703 39.1463C26.6808 37.7792 27.8077 36.6729 29.1745 36.6834C30.5518 36.6938 31.6578 37.8105 31.6578 39.1776C31.6578 40.5448 30.5414 41.6614 29.1745 41.6719C27.7972 41.6823 26.6599 40.5239 26.6703 39.1463ZM34.4437 33.5629C38.0435 36.4642 38.5339 41.985 35.4558 45.4289C34.7776 43.8739 33.7029 42.7468 32.1587 42.0893C34.0681 39.8455 33.3273 37.3304 31.9813 36.1302C30.3118 34.6379 27.9537 34.6483 26.3156 36.1511C24.907 37.4452 24.3331 39.9603 26.1591 42.0789C24.6566 42.7572 23.5506 43.8217 22.9141 45.3454C20.8377 43.4147 19.7943 38.7915 22.3924 35.2014C25.2617 31.2252 30.6666 30.5051 34.4437 33.5629ZM31.7726 30.359C28.6111 29.5658 25.7313 30.1503 23.1019 32.0705C22.0063 30.8599 20.9212 29.6702 19.836 28.4805C22.3611 25.5688 23.081 22.2814 22.0272 18.5347C25.0531 17.2511 28.0789 15.9674 31.1361 14.6733C32.6804 17.0006 33.1603 17.5433 35.8314 19.1192C34.4855 22.8449 33.129 26.5811 31.7726 30.359Z" fill="#083D31"/>
</g>
<defs>
<clipPath id="clip0_301_10084">
<rect width="50" height="50" fill="white"/>
</clipPath>
</defs>
</svg>
