<svg width="21" height="21" viewBox="0 0 21 21" fill="none" xmlns="http://www.w3.org/2000/svg">
<path d="M19.6875 8.36719C19.6875 14.1094 11.1735 18.7573 10.8109 18.9492C10.7153 19.0006 10.6085 19.0275 10.5 19.0275C10.3915 19.0275 10.2847 19.0006 10.1891 18.9492C9.82652 18.7573 1.3125 14.1094 1.3125 8.36719C1.31402 7.01878 1.85035 5.72603 2.80382 4.77257C3.75728 3.8191 5.05003 3.28277 6.39844 3.28125C8.09238 3.28125 9.57551 4.00969 10.5 5.24098C11.4245 4.00969 12.9076 3.28125 14.6016 3.28125C15.95 3.28277 17.2427 3.8191 18.1962 4.77257C19.1497 5.72603 19.686 7.01878 19.6875 8.36719Z" fill="#CD2217"/>
</svg>
