<svg width="43" height="43" viewBox="0 0 43 43" fill="none" xmlns="http://www.w3.org/2000/svg">
<g clip-path="url(#clip0_210_1954)">
<path d="M21.9775 28.6666C26.1994 28.6666 29.6219 25.244 29.6219 21.0221C29.6219 16.8002 26.1994 13.3777 21.9775 13.3777C17.7555 13.3777 14.333 16.8002 14.333 21.0221C14.333 25.244 17.7555 28.6666 21.9775 28.6666Z" stroke="white" stroke-width="2" stroke-linecap="round" stroke-linejoin="round"/>
<path d="M31.5331 30.5777L27.3764 26.4211M21.9775 18.1555V23.8889M19.1108 21.0222H24.8442" stroke="white" stroke-width="2" stroke-linecap="round" stroke-linejoin="round"/>
</g>
<g clip-path="url(#clip1_210_1954)">
<path d="M42.1937 2.68752V12.0938C42.1937 12.5927 41.9955 13.0712 41.6427 13.424C41.2898 13.7768 40.8113 13.975 40.3124 13.975C39.8135 13.975 39.335 13.7768 38.9822 13.424C38.6294 13.0712 38.4312 12.5927 38.4312 12.0938V4.56877H30.9062C30.4072 4.56877 29.9287 4.37057 29.5759 4.01777C29.2231 3.66497 29.0249 3.18646 29.0249 2.68752C29.0249 2.18859 29.2231 1.71008 29.5759 1.35728C29.9287 1.00448 30.4072 0.806274 30.9062 0.806274H40.3124C40.8113 0.806274 41.2898 1.00448 41.6427 1.35728C41.9955 1.71008 42.1937 2.18859 42.1937 2.68752ZM12.0937 38.4313H4.56865V30.9063C4.56865 30.4073 4.37045 29.9288 4.01765 29.576C3.66484 29.2232 3.18634 29.025 2.6874 29.025C2.18846 29.025 1.70996 29.2232 1.35716 29.576C1.00436 29.9288 0.806152 30.4073 0.806152 30.9063V40.3125C0.806152 40.8115 1.00436 41.29 1.35716 41.6428C1.70996 41.9956 2.18846 42.1938 2.6874 42.1938H12.0937C12.5926 42.1938 13.0711 41.9956 13.4239 41.6428C13.7767 41.29 13.9749 40.8115 13.9749 40.3125C13.9749 39.8136 13.7767 39.3351 13.4239 38.9823C13.0711 38.6295 12.5926 38.4313 12.0937 38.4313ZM40.3124 29.025C39.8135 29.025 39.335 29.2232 38.9822 29.576C38.6294 29.9288 38.4312 30.4073 38.4312 30.9063V38.4313H30.9062C30.4072 38.4313 29.9287 38.6295 29.5759 38.9823C29.2231 39.3351 29.0249 39.8136 29.0249 40.3125C29.0249 40.8115 29.2231 41.29 29.5759 41.6428C29.9287 41.9956 30.4072 42.1938 30.9062 42.1938H40.3124C40.8113 42.1938 41.2898 41.9956 41.6427 41.6428C41.9955 41.29 42.1937 40.8115 42.1937 40.3125V30.9063C42.1937 30.4073 41.9955 29.9288 41.6427 29.576C41.2898 29.2232 40.8113 29.025 40.3124 29.025ZM12.0937 0.806274H2.6874C2.18846 0.806274 1.70996 1.00448 1.35716 1.35728C1.00436 1.71008 0.806152 2.18859 0.806152 2.68752V12.0938C0.806152 12.5927 1.00436 13.0712 1.35716 13.424C1.70996 13.7768 2.18846 13.975 2.6874 13.975C3.18634 13.975 3.66484 13.7768 4.01765 13.424C4.37045 13.0712 4.56865 12.5927 4.56865 12.0938V4.56877H12.0937C12.5926 4.56877 13.0711 4.37057 13.4239 4.01777C13.7767 3.66497 13.9749 3.18646 13.9749 2.68752C13.9749 2.18859 13.7767 1.71008 13.4239 1.35728C13.0711 1.00448 12.5926 0.806274 12.0937 0.806274Z" fill="white"/>
</g>
<defs>
<clipPath id="clip0_210_1954">
<rect width="20.8857" height="20.8857" fill="white" transform="translate(12.2856 11.0571)"/>
</clipPath>
<clipPath id="clip1_210_1954">
<rect width="43" height="43" fill="white"/>
</clipPath>
</defs>
</svg>
