<svg width="15" height="14" viewBox="0 0 15 14" fill="none" xmlns="http://www.w3.org/2000/svg">
<g clip-path="url(#clip0_423_25)">
<path d="M9.378 2.70809V0.578091C9.378 0.0980909 9.908 -0.159909 10.268 0.108091L10.33 0.162091L14.827 4.58209C15.037 4.78909 15.056 5.12109 14.884 5.35009L14.827 5.41509L10.33 9.83809C9.992 10.1701 9.443 9.95709 9.383 9.50409L9.378 9.42209V7.32609L9.12 7.34909C7.32 7.54209 5.594 8.37309 3.933 9.85609C3.543 10.2041 2.941 9.87609 3.005 9.35009C3.503 5.26009 5.59 3.00509 9.153 2.72309L9.378 2.70809ZM2.5 1.00009C1.83696 1.00009 1.20107 1.26348 0.732233 1.73232C0.263392 2.20116 0 2.83705 0 3.50009V11.5001C0 12.1631 0.263392 12.799 0.732233 13.2679C1.20107 13.7367 1.83696 14.0001 2.5 14.0001H10.5C11.163 14.0001 11.7989 13.7367 12.2678 13.2679C12.7366 12.799 13 12.1631 13 11.5001V10.5001C13 10.3675 12.9473 10.2403 12.8536 10.1465C12.7598 10.0528 12.6326 10.0001 12.5 10.0001C12.3674 10.0001 12.2402 10.0528 12.1464 10.1465C12.0527 10.2403 12 10.3675 12 10.5001V11.5001C12 11.8979 11.842 12.2794 11.5607 12.5608C11.2794 12.8421 10.8978 13.0001 10.5 13.0001H2.5C2.10218 13.0001 1.72064 12.8421 1.43934 12.5608C1.15804 12.2794 1 11.8979 1 11.5001V3.50009C1 3.10227 1.15804 2.72074 1.43934 2.43943C1.72064 2.15813 2.10218 2.00009 2.5 2.00009H5.5C5.63261 2.00009 5.75979 1.94741 5.85355 1.85364C5.94732 1.75988 6 1.6327 6 1.50009C6 1.36748 5.94732 1.24031 5.85355 1.14654C5.75979 1.05277 5.63261 1.00009 5.5 1.00009H2.5Z" fill="#414142"/>
</g>
<defs>
<clipPath id="clip0_423_25">
<rect width="15.0002" height="14.0001" fill="white"/>
</clipPath>
</defs>
</svg>
