<svg width="50" height="50" viewBox="0 0 50 50" fill="none" xmlns="http://www.w3.org/2000/svg">
<g clip-path="url(#clip0_129_337)">
<path d="M49.092 9.78354C50.489 7.81295 50.2655 5.093 48.5332 3.39997C46.8009 1.70693 44.0627 1.49877 42.1208 2.92814C41.1289 3.64976 40.4862 4.62117 40.2068 5.81462C39.8715 7.29949 40.1929 8.65947 41.073 9.92231C38.9355 11.9206 36.812 13.8912 34.7025 15.8618C30.7629 12.5312 26.432 11.879 21.6681 13.8218C20.5226 12.0455 19.363 10.2554 18.2175 8.49294C18.427 8.25703 18.6086 8.0905 18.7483 7.89622C19.9917 6.25869 20.2152 4.49627 19.2932 2.67834C18.3711 0.83266 16.7925 -0.0832429 14.7388 2.104e-05C12.6992 0.0971623 11.2043 1.15184 10.4499 3.05303C9.70949 4.91259 10.0448 6.66114 11.3999 8.11826C12.7969 9.61701 14.5572 10.0056 16.5131 9.40885C16.8484 9.31171 16.9741 9.38109 17.1278 9.64476C18.1057 11.1713 19.1116 12.6978 20.1035 14.2243C20.1733 14.3353 20.2292 14.4602 20.2851 14.5851C17.3792 16.5695 15.6748 19.2895 15.116 22.7172H9.80728C9.76537 22.5368 9.72346 22.3564 9.68155 22.1899C9.03891 19.6226 6.38454 18.0128 3.80002 18.6234C1.50887 19.1924 -0.11169 21.2878 7.29752e-05 23.5915C0.111836 25.9784 1.92799 27.9767 4.21913 28.2681C6.70586 28.5734 8.94112 27.1718 9.62567 24.8266C9.76537 24.3686 9.96096 24.2853 10.3801 24.2853C11.7352 24.3131 13.1043 24.2992 14.4594 24.2992H15.0182C15.1859 28.4763 16.9741 31.7097 20.3829 34.055C19.2093 36.0949 18.0638 38.1072 16.8903 40.1194C16.8204 40.2443 16.555 40.3414 16.4013 40.3136C12.9227 39.7169 10.0448 42.4369 10.5477 45.8785C10.9389 48.5845 13.5374 50.4025 16.3175 49.9306C18.9579 49.4866 20.788 46.7805 20.2292 44.1577C19.9498 42.8671 19.2513 41.8402 18.1616 41.0491C19.363 38.9537 20.5505 36.8998 21.724 34.8599C26.5019 36.7749 30.7908 36.1088 34.5907 32.917C36.4628 34.7072 38.3208 36.4835 40.1789 38.2737C38.3627 41.1047 39.4943 43.8385 41.1987 45.1013C43.1546 46.5446 45.8788 46.3642 47.6111 44.6572C49.3574 42.9226 49.553 40.2026 48.0861 38.2459C46.8428 36.5807 44.0906 35.3872 41.4083 37.108C39.4943 35.2901 37.6083 33.4999 35.7503 31.7375C39.2429 26.7555 39.2429 21.8568 35.7782 16.9442C37.9297 14.9598 40.0671 12.9753 42.2046 11.0047C45.0965 12.7672 47.8626 11.5182 49.092 9.78354ZM14.9484 8.15989C13.0764 8.13213 11.5815 6.6195 11.5815 4.75994C11.5955 2.91426 13.1322 1.40163 15.0043 1.42939C16.8344 1.45714 18.3432 2.96977 18.3432 4.80158C18.3432 6.63338 16.7925 8.17377 14.9484 8.15989ZM4.91765 26.7833C3.08753 26.7694 1.56476 25.2568 1.55079 23.4388C1.53682 21.5931 3.07356 20.0528 4.93162 20.0528C6.78968 20.0528 8.34039 21.5793 8.32642 23.4249C8.31245 25.2706 6.77571 26.7971 4.91765 26.7833ZM18.7763 45.0874C18.7763 46.9331 17.2395 48.4596 15.3815 48.4596C13.5374 48.4596 12.0006 46.9193 12.0146 45.0736C12.0286 43.2418 13.5374 41.743 15.3815 41.7291C17.2116 41.7014 18.7902 43.2556 18.7763 45.0874ZM44.1185 37.8296C45.9906 37.8296 47.4854 39.3006 47.4994 41.1463C47.5133 43.0197 46.0185 44.5185 44.1325 44.5324C42.2744 44.5462 40.7657 43.0614 40.7517 41.2157C40.7517 39.3422 42.2465 37.8296 44.1185 37.8296ZM36.7981 24.549C36.7142 29.9473 32.0761 34.4435 26.6695 34.3742C20.9417 34.2909 16.5131 29.7808 16.5969 24.0911C16.6667 18.6095 21.277 14.1688 26.8511 14.2382C32.4393 14.2937 36.8819 18.9009 36.7981 24.549ZM45.0406 3.60813C46.8707 3.622 48.3935 5.13463 48.3935 6.96644C48.3935 8.81212 46.8567 10.3525 45.0126 10.3525C43.1686 10.3525 41.6178 8.81212 41.6318 6.96644C41.6458 5.12075 43.1825 3.60813 45.0406 3.60813Z" fill="#0D4135"/>
<path d="M31.0421 27.7963C30.9443 29.4894 30.0223 30.6967 28.4576 31.3212C27.9826 31.5155 27.801 31.7236 27.8708 32.2093C27.8988 32.3897 27.8708 32.584 27.8708 32.806H26.348V31.7236C24.8672 31.5571 23.6238 31.0159 22.7437 29.8085C22.2966 29.1841 22.0452 28.5041 22.0452 27.6853H23.54C23.9172 30.2804 26.9069 30.6551 28.3738 29.6143C29.8546 28.5735 29.8965 26.6445 28.3598 25.6731C27.8848 25.3678 27.2701 25.1874 26.6973 25.1319C24.7554 24.9376 23.1349 23.6886 22.7716 21.9956C22.3385 20.0112 23.7076 17.9434 25.8032 17.4577C26.2223 17.3606 26.348 17.2079 26.3061 16.8055C26.2782 16.4586 26.3061 16.1255 26.3061 15.7369H27.8429C27.8429 16.1394 27.8708 16.5279 27.8429 16.9165C27.8149 17.2634 27.9407 17.3745 28.276 17.4716C30.0502 17.9296 31.2516 19.3728 31.3355 21.163H29.8686C29.4634 19.5254 28.3737 18.7483 26.7113 18.8593C25.3841 18.9565 24.2804 19.9973 24.2665 21.1907C24.2525 22.3564 25.3003 23.3695 26.6275 23.5637C27.3539 23.6748 28.1363 23.7858 28.7789 24.105C30.2458 24.8821 31.1399 26.0894 31.0421 27.7963Z" fill="#F7D41E"/>
</g>
<defs>
<clipPath id="clip0_129_337">
<rect width="50" height="50" fill="white"/>
</clipPath>
</defs>
</svg>
