<svg width="35" height="38" viewBox="0 0 35 38" fill="none" xmlns="http://www.w3.org/2000/svg">
<g clip-path="url(#clip0_188_9997)">
<path d="M35 9.13399C35.0108 9.87694 34.4374 10.456 33.6476 10.4669C33.2473 10.4779 32.847 10.4669 32.4142 10.4669V13.4169C31.9057 13.4169 31.4297 13.4169 30.9428 13.4169C30.2504 13.4169 29.796 13.8212 29.8068 14.4221C29.8176 15.0012 30.2612 15.3836 30.932 15.3836C31.408 15.3836 31.8733 15.3836 32.371 15.3836V18.6613C31.8733 18.6613 31.3972 18.6613 30.9104 18.6613C30.2396 18.6722 29.8068 19.0656 29.8068 19.6446C29.8068 20.2237 30.2504 20.617 30.9212 20.6279C31.3972 20.6279 31.8625 20.6279 32.371 20.6279V23.9057C31.8949 23.9057 31.4189 23.9057 30.932 23.9057C30.2612 23.9057 29.8176 24.2881 29.8068 24.8781C29.796 25.479 30.2504 25.8723 30.9428 25.8723C31.408 25.8723 31.8841 25.8723 32.3926 25.8723C32.3926 26.7901 32.4142 27.6751 32.371 28.5492C32.3601 28.7458 32.1438 28.9753 31.9598 29.1064C31.2458 29.6199 30.5101 30.1116 29.7744 30.5814C29.5472 30.7234 29.4822 30.8873 29.4822 31.1495C29.4931 32.6354 29.4931 34.1213 29.4822 35.6182C29.4822 36.4158 28.779 36.9183 28.1082 36.5906C27.6971 36.3939 27.5348 36.0443 27.5348 35.5963C27.5348 34.1323 27.524 32.6682 27.5456 31.2151C27.5456 30.9091 27.4699 30.7234 27.1994 30.5486C26.4853 30.1006 25.8145 29.609 25.1005 29.1501C24.7434 28.9206 24.6028 28.6257 24.6028 28.1995C24.6136 22.4635 24.6136 16.7274 24.6136 10.9914V10.456C24.1484 10.456 23.7481 10.4669 23.3478 10.456C22.5904 10.4451 22.0278 9.86602 22.0278 9.14491C22.0278 8.41288 22.5904 7.84474 23.3586 7.84474C26.7883 7.84474 30.2179 7.84474 33.6476 7.84474C34.4158 7.84474 34.9892 8.41288 35 9.13399Z" fill="white"/>
<path d="M19.875 6.99252C18.7174 7.94307 17.4083 8.06325 16.0342 7.53882C15.8936 7.48419 15.7637 7.41863 15.569 7.33122V9.18861C15.569 10.2266 15.3526 10.5543 14.4005 10.9477C11.6092 12.0949 8.82865 12.0403 6.08058 10.8166C5.50717 10.5653 5.22587 10.1282 5.21505 9.50546C5.20423 8.79528 5.21505 8.09603 5.21505 7.3203C3.93839 7.97585 2.705 8.03048 1.49326 7.39678C0.649363 6.95975 0.075947 6.29327 0.0434895 5.2881C0.011032 4.3157 0.508714 3.6383 1.29851 3.14664C2.08831 2.65497 2.95385 2.48016 3.86265 2.64405C4.30624 2.72053 4.73901 2.89534 5.22587 3.03738C5.22587 2.56757 5.25833 2.06498 5.21505 1.57332C5.08522 0.41518 6.05895 -0.284072 7.14086 0.109257C9.28306 0.884991 11.4685 0.884991 13.6107 0.109257C14.7035 -0.284072 15.6555 0.426106 15.569 1.55147C15.5365 2.05405 15.5582 2.55664 15.5582 3.0483C16.045 2.90627 16.4994 2.72053 16.9647 2.65497C18.0358 2.49109 19.0311 2.73145 19.875 3.45256C21.0327 4.43588 21.0435 6.03105 19.875 6.99252Z" fill="white"/>
<path d="M19.8317 20.1363C18.6741 21.065 17.3758 21.1742 16.0125 20.6498C15.8719 20.5952 15.7421 20.5296 15.5473 20.4422C15.5473 21.1196 15.5473 21.7533 15.5473 22.387C15.5473 23.2938 15.3093 23.6544 14.4762 24.015C11.6524 25.2168 8.83943 25.1731 6.03727 23.9275C5.46385 23.6763 5.18255 23.2283 5.17173 22.6164C5.16092 21.9063 5.17173 21.207 5.17173 20.5187C4.68487 20.6607 4.23047 20.8465 3.75442 20.912C2.66169 21.0759 1.65551 20.8246 0.811611 20.0817C-0.302763 19.0983 -0.302763 17.5469 0.833249 16.5854C1.98008 15.613 3.2892 15.4928 4.67405 16.0063C4.82552 16.061 4.96617 16.1374 5.17173 16.2248C5.17173 15.6567 5.17173 15.1323 5.17173 14.6078C5.17173 13.4278 5.95071 12.8488 7.05427 13.2202C9.26138 13.9632 11.4685 13.9632 13.6864 13.2093C14.7575 12.8488 15.5365 13.4388 15.5473 14.586C15.5473 15.1104 15.5473 15.6458 15.5473 16.1593C16.0342 16.0172 16.4886 15.8315 16.9538 15.755C18.0141 15.5911 18.9986 15.8315 19.8317 16.5308C21.0435 17.5359 21.0543 19.1639 19.8317 20.1363Z" fill="white"/>
<path d="M20.7405 31.4445C20.7405 32.6463 19.7019 33.7171 18.2845 33.9902C17.3433 34.176 16.4669 34.023 15.5581 33.5423V35.2904C15.5581 36.5032 15.3742 36.7763 14.2706 37.2243C11.4901 38.3496 8.74204 38.2513 6.02643 37.0385C5.47465 36.7872 5.20417 36.3502 5.19336 35.7493C5.18254 35.0391 5.19336 34.3289 5.19336 33.6406C4.70649 33.7826 4.26291 33.9684 3.78686 34.0339C2.68331 34.1978 1.66631 33.9465 0.811593 33.1817C-0.270323 32.2202 -0.281142 30.6906 0.811593 29.7401C1.95842 28.7349 3.27836 28.6147 4.68485 29.1173C4.76059 29.1501 4.83632 29.1829 4.90124 29.2156C4.97697 29.2484 5.04189 29.2812 5.18254 29.3468C5.18254 28.7895 5.21499 28.2869 5.17172 27.7734C5.08516 26.6699 6.02643 25.9379 7.12999 26.3421C9.283 27.1288 11.4685 27.0742 13.6431 26.3531C14.7683 25.9707 15.5473 26.5388 15.5473 27.7407C15.5473 28.2542 15.5473 28.7786 15.5473 29.3577C16.4561 28.8769 17.3433 28.7349 18.2737 28.9206C19.7019 29.1719 20.7405 30.2427 20.7405 31.4445Z" fill="white"/>
<path d="M33.0529 2.60034C33.0529 3.29959 32.5119 3.87866 31.8087 3.90051C31.1595 3.92236 30.5212 3.90051 29.8288 3.90051V5.85623H27.243V3.91144C26.5614 3.91144 25.923 3.92236 25.2739 3.91144C24.3434 3.88959 23.7376 2.98274 24.073 2.13053C24.2785 1.61702 24.668 1.30017 25.2198 1.30017C27.4161 1.28924 29.6124 1.27832 31.8195 1.30017C32.5119 1.30017 33.0529 1.90109 33.0529 2.60034Z" fill="white"/>
</g>
<defs>
<clipPath id="clip0_188_9997">
<rect width="35" height="38" fill="white"/>
</clipPath>
</defs>
</svg>
