<svg width="49" height="56" viewBox="0 0 49 56" fill="none" xmlns="http://www.w3.org/2000/svg">
<g clip-path="url(#clip0_129_330)">
<path d="M45.1878 30.1628C45.7846 22.2875 42.5886 16.4489 35.9461 12.4725C37.1206 11.3862 37.5827 10.2612 37.3324 9.23312C37.3131 9.15553 37.2939 9.09734 37.2746 9.01975C37.2361 8.92277 37.1976 8.80638 37.1591 8.7094C37.1206 8.6512 37.1013 8.57362 37.0628 8.51542C37.0051 8.41844 36.9473 8.32145 36.8703 8.22446C36.851 8.18567 36.8125 8.16627 36.7933 8.12748C36.7355 8.06929 36.697 8.01109 36.6393 7.9335C36.2349 7.50676 35.6766 7.11882 34.9835 6.78906C35.33 5.91619 35.6573 5.04331 36.0039 4.15103C36.3504 3.27815 36.6778 2.40527 37.0243 1.513C37.2939 0.814696 37.1013 0.135791 36.3504 0.193983C33.0966 0.446148 29.2844 -1.28021 27.2243 2.89021C26.3579 2.03673 25.7033 1.26083 24.9139 0.640121C23.6624 -0.349142 22.1222 -0.0775794 20.8899 0.368558C19.8117 0.756504 20.7167 1.92034 20.9092 2.67684C21.3905 4.59717 22.0066 6.4981 22.565 8.45723C19.4652 8.78699 18.3677 10.3 19.3112 13.1514C11.4558 18.0977 8.9143 27.9903 12.8613 35.8074C11.398 36.7967 9.91548 37.7859 8.3752 38.8334C7.54731 36.7191 6.25732 37.107 4.79406 38.0381C3.6196 38.7946 2.38738 39.4347 1.15516 40.1136C-0.0192957 40.7537 -0.231084 41.6072 0.423533 42.7517C2.06008 45.5449 3.65811 48.3575 5.31391 51.1313C9.01057 57.319 7.56656 57.0087 13.7854 53.3232C14.9984 52.5861 16.3269 51.946 15.2487 50.1614C16.4616 49.114 17.8286 48.2993 19.3497 48.3381C24.2015 48.4351 29.0534 49.5407 33.8668 47.7562C40.3167 45.3703 46.3045 42.3831 48.6726 35.2643C49.7893 31.8504 48.018 29.5227 45.1878 30.1628ZM22.4495 1.93974H23.8935C25.9151 5.72221 28.1485 5.52824 30.1894 1.93974H34.9835C34.3096 3.6855 33.6742 5.33427 33.0196 7.04123C30.1123 7.44857 27.1666 7.85591 24.2785 8.26326C23.6432 6.12956 23.0463 4.05404 22.4495 1.93974ZM21.6601 10.397C25.8766 9.79564 30.1123 9.21373 34.3288 8.6512C35.0412 8.55422 35.484 8.94216 35.5996 9.64047C35.7151 10.3 35.484 10.8625 34.8102 10.9789C32.1147 11.3862 29.4192 11.7742 26.7045 12.1427C25.0872 12.3755 23.4699 12.6083 21.8526 12.8216C21.7756 12.8216 21.7178 12.8022 21.6601 12.7828C21.6408 12.7828 21.6023 12.7828 21.5831 12.7634C21.5638 12.7634 21.5253 12.744 21.506 12.744C21.4675 12.7246 21.429 12.7246 21.4098 12.7052C21.3905 12.7052 21.352 12.6858 21.3328 12.6664C21.3135 12.647 21.2943 12.647 21.275 12.6277C21.2172 12.6083 21.1787 12.5695 21.1402 12.5307C21.1017 12.5113 21.0825 12.4919 21.0632 12.4725C21.044 12.4531 21.0247 12.4337 21.0055 12.4143C21.0055 12.4143 20.9862 12.3949 20.9862 12.3755C20.967 12.3561 20.9477 12.3367 20.9284 12.3173C20.9092 12.2979 20.9092 12.2785 20.8899 12.2591C20.8707 12.2397 20.8707 12.2203 20.8514 12.2009C20.8514 12.2009 20.8514 12.2009 20.8514 12.1815C20.8322 12.1621 20.8322 12.1427 20.8129 12.1039C20.7937 12.0651 20.7744 12.0263 20.7744 11.9875V11.9681C20.7552 11.9293 20.7552 11.8906 20.7359 11.8518C20.7359 11.8324 20.7359 11.813 20.7167 11.7742C20.7167 11.7354 20.6974 11.6966 20.6974 11.6578C20.6011 10.9401 20.967 10.4939 21.6601 10.397ZM20.6011 14.6256C24.8176 13.3066 29.4962 13.4811 33.8282 13.0156C37.7945 15.673 41.5296 18.5438 42.8581 23.4901C45.1685 32.1607 42.165 34.275 33.886 35.1091C33.2506 34.566 32.7308 34.1005 32.211 33.6543C31.5563 33.3634 30.9017 33.0724 30.2471 32.8008C28.0137 32.2189 25.7803 31.6176 23.5277 31.0163C22.8153 31.0357 22.0837 31.0551 21.3713 31.0745C18.6565 31.5594 16.5579 33.247 14.4015 34.7988C10.4738 28.708 13.8817 16.7205 20.6011 14.6256ZM9.02982 54.1767C6.62314 50.045 4.23571 45.9522 1.79053 41.7624C3.36931 40.8701 4.89033 40.0166 6.48837 39.105C8.9143 43.1396 11.321 47.1742 13.7854 51.2671C12.1874 52.2563 10.6279 53.2068 9.02982 54.1767ZM42.4538 41.1611C36.6007 45.894 30.0161 48.2023 22.411 46.6699C19.4459 46.0686 16.7119 46.8057 14.2475 48.6872C12.5725 45.894 10.9359 43.159 9.18385 40.2494C13.5351 38.0963 16.7312 33.9453 21.6023 32.9366C25.1257 32.1995 28.3988 33.8677 31.5563 35.4001C32.211 35.7104 32.4805 36.5251 32.0954 37.2428C31.5948 38.1545 30.7284 38.2515 29.8235 37.9799C27.6479 37.3204 25.4723 36.6221 23.3159 35.9238C22.7383 35.7298 22.2184 35.8074 22.0259 36.4475C21.8334 37.0876 22.2377 37.4174 22.796 37.6114C24.9909 38.2903 27.1666 39.0662 29.3807 39.6481C31.6911 40.2688 33.3084 39.4153 34.0593 36.9325C38.4876 36.8355 42.1457 34.857 45.4958 32.0831C46.2852 31.443 46.9398 31.6952 47.0746 32.7233C47.556 36.6415 45.053 39.0468 42.4538 41.1611Z" fill="#0D4135"/>
<path d="M14.7096 9.81503C12.7458 9.3107 11.5135 8.10807 11.0322 6.09075C10.9937 5.91617 10.4739 5.7028 10.2621 5.76099C9.97327 5.85798 9.6267 6.16834 9.54969 6.4593C9.14537 8.18566 8.10568 9.21371 6.39213 9.64045C6.10333 9.71804 5.71826 10.2224 5.73751 10.4939C5.75676 10.7849 6.16109 11.2504 6.46914 11.3086C8.12494 11.7354 9.12612 12.7246 9.54969 14.3928C9.6267 14.7031 10.1273 15.1299 10.4161 15.1299C10.7242 15.1299 11.1862 14.6838 11.2632 14.354C11.6676 12.7052 12.6687 11.7354 14.286 11.3086C14.6326 11.231 14.9021 10.8237 15.2487 10.5521C14.9984 10.2224 14.9021 9.87322 14.7096 9.81503ZM10.3391 11.6772C9.99252 11.3474 9.53044 10.8819 9.16462 10.5327C9.56894 10.1254 10.0118 9.67925 10.4353 9.25251C10.7242 9.60166 11.1477 10.106 11.5328 10.5909C11.244 10.8819 10.7434 11.328 10.3391 11.6772Z" fill="#F7D41E"/>
<path d="M44.7064 7.95288C42.704 7.95288 41.4526 9.15551 41.414 11.2116C41.3755 13.3259 42.6655 14.3734 44.6486 14.6449C46.7087 14.4122 47.9795 13.3259 47.9602 11.2504C47.9602 9.21371 46.728 7.97228 44.7064 7.95288ZM44.6486 12.8798C43.7437 12.7634 43.1469 12.2785 43.1469 11.2892C43.1469 10.2806 43.763 9.69864 44.7256 9.69864C45.6691 9.69864 46.2659 10.3194 46.2659 11.2698C46.2659 12.2397 45.6691 12.7828 44.6486 12.8798Z" fill="#F7D41E"/>
<path d="M34.0785 32.0831C33.5587 32.7038 32.827 33.1306 32.1917 33.6543C31.5371 33.3633 30.8824 33.0724 30.2278 32.8008C32.2687 31.5982 34.117 30.2404 34.4443 27.6411C34.6369 26.0894 34.2133 24.7316 32.5575 24.2466C30.8247 23.7423 29.7272 24.5764 29.0149 26.1476C28.8608 26.4773 28.5528 26.8071 28.2255 26.9428C28.0329 27.0204 27.5131 26.7683 27.4168 26.5549C26.5697 24.4018 25.0679 23.2186 23.027 24.6346C20.8514 26.1476 21.7178 28.2813 22.8345 30.1822C23.0078 30.4925 23.2773 30.7447 23.5084 31.0357C22.796 31.0551 22.0644 31.0745 21.352 31.0939C19.8117 28.4946 19.1186 25.779 21.6215 23.5095C23.7779 21.5504 26.1268 21.9965 28.1292 24.0914C30.3433 21.9189 32.8655 21.4728 34.9449 23.8393C37.4286 26.6325 36.2541 29.5227 34.0785 32.0831Z" fill="#F7D41E"/>
</g>
<defs>
<clipPath id="clip0_129_330">
<rect width="49" height="56" fill="white"/>
</clipPath>
</defs>
</svg>
