<svg width="15" height="13" viewBox="0 0 15 13" fill="none" xmlns="http://www.w3.org/2000/svg">
<g clip-path="url(#clip0_243_2221)">
<path d="M14.375 6.49998H5.625M14.375 11.2273H5.625M14.375 1.77271H5.625" stroke="#02130F" stroke-linecap="round" stroke-linejoin="round"/>
<path fill-rule="evenodd" clip-rule="evenodd" d="M1.87375 2.95452C2.49875 2.95452 3.12375 2.36361 3.12375 1.7727C3.12375 1.18179 2.49875 0.590881 1.87375 0.590881C1.24875 0.590881 0.625 1.18179 0.625 1.7727C0.625 2.36361 1.24875 2.95452 1.87375 2.95452ZM1.87375 7.68179C2.49875 7.68179 3.12375 7.09088 3.12375 6.49997C3.12375 5.90906 2.49875 5.31815 1.87375 5.31815C1.24875 5.31815 0.625 5.90906 0.625 6.49997C0.625 7.09088 1.24875 7.68179 1.87375 7.68179ZM1.87375 12.4091C2.49875 12.4091 3.12375 11.8182 3.12375 11.2272C3.12375 10.6363 2.49875 10.0454 1.87375 10.0454C1.24875 10.0454 0.625 10.6363 0.625 11.2272C0.625 11.8182 1.24875 12.4091 1.87375 12.4091Z" fill="#02130F"/>
</g>
<defs>
<clipPath id="clip0_243_2221">
<rect width="15" height="13" fill="white"/>
</clipPath>
</defs>
</svg>
