<svg width="19" height="21" viewBox="0 0 19 21" fill="none" xmlns="http://www.w3.org/2000/svg">
<g clip-path="url(#clip0_114_4)">
<path fill-rule="evenodd" clip-rule="evenodd" d="M11.9286 10.7925C11.783 10.3709 11.5132 10.0059 11.1564 9.74775C10.7995 9.48961 10.3733 9.35104 9.93624 9.35111V8.81067H8.87981V9.35111C8.31945 9.35111 7.78204 9.57886 7.38581 9.98427C6.98957 10.3897 6.76697 10.9395 6.76697 11.5129C6.76697 12.0862 6.98957 12.636 7.38581 13.0415C7.78204 13.4469 8.31945 13.6746 8.87981 13.6746V15.8364C8.42027 15.8364 8.02886 15.5364 7.88308 15.116C7.86145 15.0472 7.82656 14.9835 7.78046 14.9288C7.73437 14.874 7.67801 14.8293 7.61473 14.7972C7.55144 14.7651 7.48251 14.7464 7.41201 14.742C7.34151 14.7377 7.27087 14.7478 7.20428 14.7719C7.13769 14.796 7.07649 14.8335 7.02431 14.8822C6.97212 14.9309 6.93002 14.9898 6.90047 15.0554C6.87093 15.121 6.85455 15.1921 6.8523 15.2643C6.85006 15.3365 6.86199 15.4085 6.8874 15.4759C7.03304 15.8975 7.30285 16.2625 7.65968 16.5206C8.01651 16.7787 8.4428 16.9173 8.87981 16.9172V17.4577H9.93624V16.9172C10.4966 16.9172 11.034 16.6895 11.4302 16.2841C11.8265 15.8787 12.0491 15.3288 12.0491 14.7555C12.0491 14.1822 11.8265 13.6323 11.4302 13.2269C11.034 12.8215 10.4966 12.5937 9.93624 12.5937V10.432C10.1547 10.4319 10.3678 10.5012 10.5462 10.6302C10.7247 10.7592 10.8596 10.9417 10.9324 11.1524C10.9791 11.2876 11.0763 11.3982 11.2027 11.46C11.2653 11.4907 11.3332 11.5084 11.4024 11.5121C11.4717 11.5159 11.541 11.5057 11.6064 11.4821C11.6719 11.4584 11.7321 11.4218 11.7837 11.3744C11.8353 11.3269 11.8772 11.2696 11.9071 11.2055C11.9371 11.1415 11.9544 11.0721 11.958 11.0012C11.9617 10.9303 11.9517 10.8594 11.9286 10.7925ZM8.87981 10.432C8.59963 10.432 8.33093 10.5459 8.13281 10.7486C7.93469 10.9513 7.82339 11.2262 7.82339 11.5129C7.82339 11.7995 7.93469 12.0745 8.13281 12.2772C8.33093 12.4799 8.59963 12.5937 8.87981 12.5937V10.432ZM9.93624 15.8364C10.2164 15.8364 10.4851 15.7225 10.6832 15.5198C10.8814 15.3171 10.9927 15.0422 10.9927 14.7555C10.9927 14.4688 10.8814 14.1939 10.6832 13.9912C10.4851 13.7885 10.2164 13.6746 9.93624 13.6746V15.8364Z" fill="white"/>
<path fill-rule="evenodd" clip-rule="evenodd" d="M3.67856 2.12059C4.97479 1.47152 7.10137 0.704102 9.42867 0.704102C11.7074 0.704102 13.778 1.43964 15.0673 2.08006L15.1402 2.11627C15.529 2.31299 15.8427 2.4989 16.0635 2.64968L14.1123 5.56805C18.6106 10.2731 22.0851 20.1583 9.42867 20.1583C-3.2278 20.1583 0.153279 10.4525 4.69061 5.56805L2.75208 2.64968C2.90156 2.5497 3.09119 2.4335 3.31726 2.31028C3.42924 2.24867 3.54968 2.18508 3.67856 2.12059ZM12.8583 5.52967L14.4203 3.19336C12.9677 3.30037 11.2394 3.64949 9.57551 4.14237C8.38703 4.49365 7.06651 4.44015 5.8437 4.20938C5.53554 4.15101 5.22951 4.08143 4.9262 4.00078L5.94036 5.52859C8.11395 6.32034 10.6842 6.32034 12.8583 5.52967ZM5.33028 6.44896C7.87361 7.45417 10.9304 7.45418 13.4737 6.44788C14.5351 7.59313 15.4231 8.8943 16.1084 10.3082C16.8226 11.7988 17.2113 13.2887 17.1479 14.5728C17.0867 15.8121 16.6102 16.8708 15.5221 17.6576C14.388 18.4775 12.4807 19.0774 9.42814 19.0774C6.37244 19.0774 4.45609 18.4878 3.31145 17.6771C2.21542 16.9005 1.73422 15.8558 1.66608 14.6334C1.59477 13.3633 1.97508 11.8809 2.68658 10.3801C3.36533 8.94903 4.31241 7.57145 5.33028 6.44896ZM4.72283 2.82046C5.1454 2.94908 5.58699 3.06095 6.03491 3.1458C7.17056 3.35981 8.30939 3.39116 9.2813 3.10311C10.4139 2.76539 11.5658 2.49988 12.7305 2.30812C11.7586 2.00872 10.6219 1.78498 9.42814 1.78498C7.60845 1.78498 5.91131 2.30434 4.72283 2.82046Z" fill="white"/>
</g>
<defs>
<clipPath id="clip0_114_4">
<rect width="17.9592" height="19.4558" fill="white" transform="translate(0.428467 0.704102)"/>
</clipPath>
</defs>
</svg>
