<?xml version="1.0" encoding="utf-8"?>
<!-- Generator: Adobe Illustrator 23.0.1, SVG Export Plug-In . SVG Version: 6.00 Build 0)  -->
<svg version="1.1" xmlns="http://www.w3.org/2000/svg" xmlns:xlink="http://www.w3.org/1999/xlink" x="0px" y="0px"
	 viewBox="0 0 305.2 305.2" style="enable-background:new 0 0 305.2 305.2;" xml:space="preserve">
<style type="text/css">
	.st0{fill:#AEC15F;}
	.st1{fill:#FFB839;}
	.st2{fill:#FFD05A;}
	.st3{fill:#FC9F30;}
	.st4{fill:none;stroke:#1C1C26;stroke-width:3;stroke-miterlimit:10;}
	.st5{fill-rule:evenodd;clip-rule:evenodd;fill:#1C1C26;}
</style>
<g id="BACKGROUND">
</g>
<g id="OBJECTS">
	<g>
		<g>
			
				<ellipse transform="matrix(0.7071 -0.7071 0.7071 0.7071 -63.2088 152.5994)" class="st0" cx="152.6" cy="152.6" rx="151.1" ry="151.1"/>
			
				<ellipse transform="matrix(0.7071 -0.7071 0.7071 0.7071 -63.2088 152.5994)" class="st1" cx="152.6" cy="152.6" rx="151.1" ry="151.1"/>
			<ellipse class="st2" cx="152.6" cy="86.7" rx="102.2" ry="74.2"/>
			<path class="st3" d="M223.8,201.5c-64,38.9-147.3,18.5-186.2-45.4c-7.5-12.3-12.7-25.3-15.9-38.6C12.5,152,16.8,190,36.8,223
				c38.9,64,122.2,84.3,186.2,45.4c51.7-31.4,74.9-91.8,61.4-147.6C275.7,153.3,254.9,182.6,223.8,201.5z"/>
			
				<ellipse transform="matrix(0.7071 -0.7071 0.7071 0.7071 -63.2088 152.5994)" class="st4" cx="152.6" cy="152.6" rx="151.1" ry="151.1"/>
		</g>
		<g>
			<g>
				<ellipse class="st5" cx="116.1" cy="131.9" rx="16.5" ry="36.7"/>
				<ellipse class="st5" cx="189.1" cy="131.9" rx="16.5" ry="36.7"/>
			</g>
			<path class="st4" d="M50.6,174c2.4,11.3,6.6,22.3,13,32.7c29.9,49.2,93.9,64.8,143.1,34.9c24.6-14.9,40.8-38.4,47.1-64.3"/>
			<g>
				<path class="st4" d="M242.5,170.4c0,0,9.3,11.4,24.7,5.4"/>
				<path class="st4" d="M62.7,170.4c0,0-9.3,11.4-24.7,5.4"/>
			</g>
		</g>
	</g>
</g>
</svg>
