<svg width="25" height="25" viewBox="0 0 25 25" fill="none" xmlns="http://www.w3.org/2000/svg">
<path d="M12.8566 13.3571H2.45915C2.25618 13.3571 2.06152 13.2765 1.918 13.1329C1.77448 12.9894 1.69385 12.7948 1.69385 12.5918C1.69385 12.3888 1.77448 12.1942 1.918 12.0506C2.06152 11.9071 2.25618 11.8265 2.45915 11.8265H12.8566L9.57038 8.54178C9.49922 8.47063 9.44278 8.38615 9.40427 8.29319C9.36576 8.20022 9.34594 8.10057 9.34594 7.99995C9.34594 7.89932 9.36576 7.79967 9.40427 7.70671C9.44278 7.61374 9.49922 7.52926 9.57038 7.45811C9.64153 7.38695 9.726 7.33051 9.81897 7.292C9.91194 7.25349 10.0116 7.23367 10.1122 7.23367C10.2128 7.23367 10.3125 7.25349 10.4055 7.292C10.4984 7.33051 10.5829 7.38695 10.6541 7.45811L15.2459 12.0499C15.3172 12.121 15.3737 12.2055 15.4123 12.2985C15.4509 12.3914 15.4707 12.4911 15.4707 12.5918C15.4707 12.6924 15.4509 12.7921 15.4123 12.8851C15.3737 12.9781 15.3172 13.0625 15.2459 13.1336L10.6541 17.7255C10.5103 17.8692 10.3154 17.9499 10.1122 17.9499C9.90899 17.9499 9.71408 17.8692 9.57038 17.7255C9.42667 17.5817 9.34594 17.3868 9.34594 17.1836C9.34594 16.9804 9.42667 16.7855 9.57038 16.6418L12.8566 13.3571ZM23.1224 12.5918C23.1224 11.7799 22.7999 11.0013 22.2258 10.4272C21.6517 9.85308 20.8731 9.53056 20.0612 9.53056C19.2493 9.53056 18.4707 9.85308 17.8966 10.4272C17.3225 11.0013 17 11.7799 17 12.5918C17 13.4037 17.3225 14.1823 17.8966 14.7564C18.4707 15.3305 19.2493 15.653 20.0612 15.653C20.8731 15.653 21.6517 15.3305 22.2258 14.7564C22.7999 14.1823 23.1224 13.4037 23.1224 12.5918ZM21.5918 12.5918C21.5918 12.9977 21.4305 13.387 21.1435 13.6741C20.8565 13.9611 20.4671 14.1224 20.0612 14.1224C19.6552 14.1224 19.2659 13.9611 18.9789 13.6741C18.6918 13.387 18.5306 12.9977 18.5306 12.5918C18.5306 12.1858 18.6918 11.7965 18.9789 11.5095C19.2659 11.2224 19.6552 11.0612 20.0612 11.0612C20.4671 11.0612 20.8565 11.2224 21.1435 11.5095C21.4305 11.7965 21.5918 12.1858 21.5918 12.5918Z" fill="white"/>
</svg>
