<svg width="28" height="28" viewBox="0 0 28 28" fill="none" xmlns="http://www.w3.org/2000/svg">
<path d="M13.9994 26.1371C20.7025 26.1371 26.1365 20.7032 26.1365 14C26.1365 7.29691 20.7025 1.86295 13.9994 1.86295C7.29627 1.86295 1.8623 7.29691 1.8623 14C1.8623 20.7032 7.29627 26.1371 13.9994 26.1371Z" stroke="white" stroke-linecap="round" stroke-linejoin="round"/>
<path d="M13.9992 11.1622C14.619 11.1622 15.1215 9.98875 15.1215 8.54118C15.1215 7.09362 14.619 5.92014 13.9992 5.92014C13.3794 5.92014 12.877 7.09362 12.877 8.54118C12.877 9.98875 13.3794 11.1622 13.9992 11.1622Z" stroke="white" stroke-linecap="round" stroke-linejoin="round"/>
<path d="M16.4157 12.4922C17.0899 11.3245 17.3055 10.1867 16.8973 9.95103C16.489 9.71533 15.6115 10.4709 14.9373 11.6387C14.2631 12.8065 14.0475 13.9442 14.4557 14.1799C14.864 14.4156 15.7415 13.66 16.4157 12.4922Z" stroke="white" stroke-linecap="round" stroke-linejoin="round"/>
<path d="M16.4288 20.3512C17.2623 19.2913 17.6377 18.1959 17.2672 17.9044C16.8966 17.613 15.9205 18.236 15.0869 19.2959C14.2534 20.3559 13.878 21.4513 14.2486 21.7427C14.6191 22.0341 15.5952 21.4111 16.4288 20.3512Z" stroke="white" stroke-linecap="round" stroke-linejoin="round"/>
<path d="M16.6035 16.5189C17.4371 15.459 17.7944 14.3493 17.4015 14.0403C17.0087 13.7314 16.0145 14.3402 15.1809 15.4001C14.3474 16.46 13.9901 17.5697 14.3829 17.8786C14.7758 18.1876 15.77 17.5788 16.6035 16.5189Z" stroke="white" stroke-linecap="round" stroke-linejoin="round"/>
<path d="M13.5428 14.1796C13.951 13.9439 13.7354 12.8062 13.0612 11.6384C12.387 10.4706 11.5095 9.71503 11.1013 9.95073C10.693 10.1864 10.9086 11.3242 11.5828 12.4919C12.257 13.6597 13.1345 14.4153 13.5428 14.1796Z" stroke="white" stroke-linecap="round" stroke-linejoin="round"/>
<path d="M13.7501 21.7427C14.1206 21.4513 13.7453 20.3559 12.9117 19.296C12.0781 18.236 11.102 17.613 10.7315 17.9045C10.3609 18.1959 10.7363 19.2913 11.5698 20.3512C12.4034 21.4112 13.3795 22.0342 13.7501 21.7427Z" stroke="white" stroke-linecap="round" stroke-linejoin="round"/>
<path d="M13.6161 17.8777C14.0089 17.5687 13.6516 16.4591 12.8179 15.3992C11.9843 14.3393 10.9901 13.7306 10.5972 14.0396C10.2044 14.3486 10.5618 15.4582 11.3954 16.5181C12.2291 17.578 13.2233 18.1867 13.6161 17.8777Z" stroke="white" stroke-linecap="round" stroke-linejoin="round"/>
<path d="M13.9993 11.1622V26.1372" stroke="white" stroke-linecap="round" stroke-linejoin="round"/>
</svg>
