<svg width="26" height="23" viewBox="0 0 26 23" fill="none" class="lg:w-6 w-5"
    xmlns="http://www.w3.org/2000/svg">
    <path
        d="M25.7664 3.5284C24.8121 3.95052 23.8001 4.22775 22.7639 4.3509C23.8552 3.69733 24.6718 2.66933 25.0614 1.4584C24.0364 2.0684 22.9127 2.4959 21.7427 2.72715C20.9559 1.88538 19.9131 1.32711 18.7764 1.13914C17.6396 0.951162 16.4726 1.14402 15.4567 1.68772C14.4409 2.23142 13.6331 3.09551 13.159 4.14565C12.685 5.19578 12.5711 6.37313 12.8352 7.49465C10.7563 7.39064 8.72262 6.85056 6.86608 5.90948C5.00955 4.9684 3.3717 3.64737 2.05891 2.03215C1.59427 2.83022 1.3501 3.73744 1.35141 4.6609C1.35141 6.4734 2.27516 8.07465 3.67641 9.01215C2.84642 8.98598 2.03472 8.76184 1.30891 8.3584V8.42215C1.30887 9.62949 1.72645 10.7997 2.49082 11.7342C3.25519 12.6688 4.3193 13.3102 5.50266 13.5497C4.73221 13.7587 3.92427 13.7894 3.14016 13.6397C3.47381 14.6789 4.12417 15.5877 5.00015 16.2389C5.87613 16.8901 6.93385 17.2509 8.02516 17.2709C6.9406 18.1227 5.69876 18.7524 4.37067 19.1239C3.04257 19.4954 1.65427 19.6014 0.285156 19.4359C2.67481 20.9726 5.45654 21.7885 8.29766 21.7859C17.9152 21.7859 23.1727 13.8197 23.1727 6.9109C23.1727 6.6859 23.1677 6.4584 23.1577 6.23465C24.1807 5.4951 25.0636 4.57911 25.7652 3.52965"
        fill="white" />
</svg>