<svg width="14" height="14" viewBox="0 0 14 14" fill="none" xmlns="http://www.w3.org/2000/svg">
<path d="M5.9308 12.3927L8.35494 11.3637C8.39917 11.6617 8.34322 11.966 8.19588 12.2288C8.04854 12.4915 7.81814 12.698 7.54082 12.8157C7.2635 12.9334 6.95495 12.9557 6.66356 12.8792C6.37218 12.8026 6.11445 12.6315 5.9308 12.3927ZM9.62758 0.2584C11.0472 1.03423 12.113 2.02989 12.8139 3.244C13.5149 4.45811 13.845 5.87911 13.8069 7.49611C13.8037 7.63148 13.7469 7.76005 13.649 7.85354C13.551 7.94703 13.4199 7.99777 13.2845 7.99462C13.1492 7.99146 13.0206 7.93465 12.9271 7.8367C12.8336 7.73874 12.7829 7.60766 12.786 7.47229C12.8201 6.03496 12.5329 4.79907 11.9299 3.75441C11.3269 2.70976 10.3993 1.84341 9.13826 1.15469C9.01941 1.08971 8.93123 0.980182 8.89313 0.850192C8.85504 0.720202 8.87014 0.580402 8.93512 0.461546C9.00009 0.34269 9.10963 0.254515 9.23962 0.216418C9.36961 0.178321 9.50941 0.193422 9.62826 0.2584M3.40118 3.26714C4.33759 2.84899 5.39963 2.81008 6.36413 3.15857C7.32864 3.50706 8.12052 4.21582 8.5734 5.13594L8.6401 5.27886L9.51665 7.24634L10.6722 8.24676C10.7355 8.30121 10.79 8.36518 10.8533 8.46794L10.8934 8.54552C10.9387 8.64771 10.9635 8.75783 10.9662 8.86959C10.969 8.98134 10.9497 9.09255 10.9094 9.19683C10.8691 9.30112 10.8087 9.39645 10.7316 9.47737C10.6545 9.5583 10.5621 9.62322 10.4599 9.66844L3.43112 12.7779C3.30162 12.8352 3.15985 12.8593 3.01867 12.848C2.8775 12.8366 2.74139 12.7902 2.62269 12.713C2.50399 12.6357 2.40646 12.53 2.33894 12.4055C2.27143 12.281 2.23607 12.1417 2.23607 12L2.23539 10.4055L1.39014 8.50537C1.17728 8.02959 1.06042 7.51648 1.04626 6.99545C1.0321 6.47442 1.12092 5.95572 1.30762 5.46908C1.49432 4.98245 1.77523 4.53744 2.13426 4.15959C2.49328 3.78173 2.92335 3.47845 3.39982 3.26714M9.46561 2.70908C10.1237 3.06773 10.6511 3.58972 11.0418 4.26687C11.4324 4.94403 11.6209 5.66201 11.6026 6.41062C11.6009 6.47765 11.5862 6.54371 11.559 6.60502C11.5319 6.66633 11.4929 6.72169 11.4444 6.76795C11.3959 6.81421 11.3387 6.85046 11.2761 6.87462C11.2136 6.89879 11.1469 6.9104 11.0799 6.90879C11.0129 6.90718 10.9468 6.89238 10.8855 6.86525C10.8242 6.83811 10.7688 6.79916 10.7226 6.75063C10.6763 6.7021 10.64 6.64493 10.6159 6.58238C10.5917 6.51984 10.5801 6.45315 10.5817 6.38612C10.5953 5.82671 10.4558 5.29383 10.1577 4.77729C9.85965 4.26007 9.46765 3.87215 8.97697 3.60537C8.85811 3.54057 8.76987 3.43122 8.73164 3.30135C8.69342 3.17149 8.70835 3.03176 8.77314 2.91291C8.83794 2.79405 8.9473 2.7058 9.07716 2.66758C9.20703 2.62935 9.34675 2.64428 9.46561 2.70908Z" fill="white"/>
</svg>
