<svg width="54" height="54" viewBox="0 0 54 54" fill="none" xmlns="http://www.w3.org/2000/svg">
<g clip-path="url(#clip0_301_10078)">
<path d="M52.5096 34.0362C51.2966 33.5112 50.069 33.0008 48.8268 32.505C47.4823 31.9654 46.2108 32.505 45.6409 33.832C45.524 34.1091 45.3924 34.3716 45.2609 34.6632C45.0125 34.5466 44.8371 34.4591 44.6471 34.3862C42.2942 33.2779 39.9559 32.1404 37.5884 31.0467C35.9369 30.2884 34.1978 29.9384 32.371 30.303C30.8658 30.6092 29.5505 31.3384 28.2644 32.155C27.8844 32.3883 27.4606 32.5925 27.0368 32.7092C24.9908 33.2779 22.9302 33.8174 20.8696 34.3716C19.7881 34.6632 18.882 35.2174 18.312 36.1944C18.0928 36.559 17.8882 36.5736 17.5229 36.4715C14.8338 35.6695 12.1448 34.8966 9.45575 34.0945C7.59973 33.5404 5.75832 33.0008 3.78539 33.1612C1.41786 33.3508 -0.233556 35.1299 0.0441161 37.3173C0.321789 39.461 1.44709 40.9922 3.4931 41.7942C6.06523 42.8004 8.65196 43.7921 11.2387 44.7837C14.6292 46.067 17.9905 47.3794 21.4103 48.6044C23.1932 49.246 25.0493 49.4356 26.9345 48.8669C29.3166 48.1377 31.7134 47.4378 34.1102 46.7815C34.6947 46.6211 35.3816 46.417 35.9223 46.5774C37.223 46.9565 38.4506 47.5253 39.7367 48.0356C39.5467 48.5023 39.4152 48.8231 39.2982 49.1294C38.7721 50.471 39.2982 51.7251 40.5989 52.2792C41.8119 52.8042 43.0395 53.3146 44.2817 53.8104C45.5824 54.3208 46.8685 53.825 47.4092 52.5417C49.5721 47.4086 51.7058 42.2609 53.8249 37.1132C54.3364 35.8299 53.7664 34.5758 52.5096 34.0362ZM38.1583 45.717C36.6969 44.9441 35.1916 44.8712 33.6133 45.3524C31.2165 46.0816 28.7905 46.7524 26.3792 47.4669C24.6985 47.9773 23.0763 47.6565 21.5126 47.0878C18.7797 46.0961 16.0614 45.0462 13.3432 43.9962C10.2157 42.8004 7.08823 41.5901 3.97537 40.3797C2.73316 39.8985 1.9586 38.9797 1.60785 37.6965C1.16942 36.0486 2.01705 34.8528 3.71232 34.6341C5.11529 34.4445 6.47443 34.7362 7.80433 35.1153C10.9172 36.0194 14.0154 36.9382 17.1283 37.8423C17.4936 37.9444 17.6398 38.0902 17.669 38.4985C17.8152 41.2109 20.1973 42.9754 22.8279 42.29C25.9261 41.5026 29.0097 40.6422 32.108 39.811C32.7218 39.6506 32.941 39.3297 32.8095 38.8485C32.6926 38.3964 32.3126 38.236 31.6988 38.411C28.659 39.2277 25.6192 40.0443 22.5794 40.8609C20.7234 41.3567 19.0574 40.0735 19.1304 38.236C19.1743 37.1132 19.9489 36.1507 21.1034 35.8299C23.2371 35.232 25.3854 34.6924 27.5337 34.0799C28.0452 33.9341 28.5275 33.6716 29.0097 33.4237C29.5359 33.1466 30.0327 32.8112 30.5735 32.5196C32.488 31.4988 34.4901 31.2946 36.4631 32.1696C39.1959 33.3654 41.8704 34.6924 44.574 35.9611C44.6033 35.9757 44.6179 36.0049 44.6909 36.0924C43.2295 39.5922 41.7535 43.1358 40.2774 46.7086C39.5175 46.3878 38.8306 46.067 38.1583 45.717ZM52.3489 36.7923C50.2736 41.7651 48.213 46.7378 46.1378 51.7105C45.9624 52.1334 45.7432 52.498 45.1294 52.5126C45.0271 52.4834 44.8517 52.4396 44.6909 52.3667C43.5656 51.9001 42.4403 51.4334 41.315 50.9668C40.5551 50.646 40.4089 50.2668 40.7305 49.4939C42.8057 44.5212 44.8663 39.5485 46.9415 34.5758C47.2777 33.7737 47.643 33.6133 48.4322 33.9487C49.5429 34.4008 50.6536 34.8674 51.7643 35.3341C52.5096 35.6403 52.6704 36.0194 52.3489 36.7923Z" fill="#083D31"/>
<path d="M29.1995 19.9346C28.8049 17.0181 27.6065 14.4661 25.8382 12.162C24.3475 10.2079 22.8568 8.25385 21.3369 6.31434C21.0739 5.96436 21.0154 5.71645 21.2493 5.32272C22.0092 4.08318 22.7107 2.7999 23.4414 1.54578C24.0552 0.481236 23.7922 0.0145874 22.5792 0.0145874H17.1719C15.3012 0.0145874 13.416 0.0145874 11.5453 0.0145874C10.5516 0.0145874 10.2593 0.524984 10.7562 1.38537C11.5161 2.7124 12.2761 4.0686 13.0652 5.39563C13.2552 5.71645 13.2406 5.92061 13.0068 6.21226C11.4869 8.16636 9.93776 10.1204 8.49094 12.1183C7.67253 13.2557 6.88336 14.4369 6.3134 15.6911C4.74967 19.0889 4.38431 22.6033 5.84574 26.1323C8.47632 32.4904 16.2512 35.3195 22.5499 32.2717C27.3288 29.9676 29.9156 25.1407 29.1995 19.9346ZM12.5391 1.5312H21.7315C21.0593 2.7124 20.4162 3.83527 19.7586 4.94356C19.6855 5.06023 19.4517 5.13314 19.3056 5.13314C17.8733 5.14772 16.4265 5.14772 14.9797 5.13314C14.8189 5.13314 14.5705 5.04564 14.4828 4.9144C13.8398 3.82069 13.2114 2.7124 12.5391 1.5312ZM20.3578 31.5425C14.702 33.2779 8.59324 30.2009 6.91259 24.7178C5.88958 21.3638 6.48877 18.1701 8.21326 15.2098C9.11935 13.6495 10.3031 12.2349 11.3846 10.7621C12.3053 9.52255 13.2844 8.31218 14.2051 7.07265C14.4536 6.73724 14.7166 6.606 15.1112 6.63517C15.7835 6.66433 16.4558 6.64975 17.128 6.64975C17.8587 6.64975 18.5894 6.62058 19.3202 6.66433C19.5394 6.67891 19.8171 6.79558 19.9486 6.97057C21.6731 9.18715 23.3976 11.4037 25.0636 13.6495C26.6858 15.8369 27.665 18.2722 27.7965 21.0138C28.0303 25.9428 25.0928 30.0843 20.3578 31.5425Z" fill="#083D31"/>
<path d="M47.1176 15.6036C47.103 14.3203 46.343 13.5766 45.0716 13.5766C42.4118 13.5766 39.752 13.5766 37.0922 13.5766C35.8207 13.5766 35.0608 14.3203 35.0315 15.6036C35.0169 16.2161 35.0315 16.8285 35.0315 17.4702C34.9292 17.4848 34.8416 17.4993 34.7539 17.4993C33.6286 17.5577 32.8978 18.2285 32.8686 19.3513C32.8394 20.2555 32.6786 21.1742 33.1463 22.0346C33.1755 22.1075 33.1901 22.2242 33.1609 22.2971C32.7079 23.1137 32.854 24.0033 32.8686 24.8636C32.8832 26.1032 33.6724 26.8615 34.9 26.8615C37.5744 26.8615 40.2489 26.8615 42.9379 26.8615C44.1363 26.8615 44.9108 26.0886 44.9401 24.8928C44.9547 24.572 44.9839 24.2366 44.9401 23.9158C44.867 23.347 44.6478 22.7929 44.6478 22.2242C44.6478 21.6408 44.8816 21.0575 44.9401 20.4742C44.9985 19.993 44.9547 19.4972 44.9547 19.0305C46.5915 18.8555 47.1468 18.2285 47.1468 16.639C47.1176 16.289 47.1176 15.939 47.1176 15.6036ZM36.0253 19.0014C38.2613 18.9868 40.4973 19.0159 42.7479 18.9868C43.2886 18.9868 43.4786 19.1764 43.4494 19.6867C43.4202 20.0659 43.4348 20.4451 43.4494 20.8388C43.464 21.2763 43.274 21.4513 42.821 21.4513C41.5057 21.4367 40.205 21.4513 38.8897 21.4513C37.6037 21.4513 36.303 21.4367 35.0169 21.4513C34.5054 21.4658 34.3301 21.2617 34.3447 20.7805C34.3593 18.6514 34.0962 19.0159 36.0253 19.0014ZM42.8502 25.3886C41.5203 25.374 40.1904 25.3886 38.8605 25.3886C37.5744 25.3886 36.2738 25.374 34.9877 25.3886C34.4908 25.4032 34.2862 25.2136 34.3008 24.7178C34.3154 24.2949 34.3008 23.8866 34.3008 23.4637C34.3008 23.1137 34.4324 22.9241 34.8123 22.9241C37.516 22.9241 40.2342 22.9241 42.9379 22.9241C43.2594 22.9241 43.4056 23.0845 43.4056 23.3908C43.4056 23.8574 43.4056 24.3387 43.4056 24.8053C43.4494 25.2282 43.274 25.3886 42.8502 25.3886ZM45.6269 16.9452C45.6269 17.3243 45.4808 17.5139 45.0716 17.5139C42.4118 17.5139 39.752 17.4993 37.0922 17.5139C36.6537 17.5139 36.5076 17.3243 36.5076 16.916C36.5076 16.4931 36.5222 16.0702 36.5076 15.6619C36.493 15.2244 36.683 15.0494 37.136 15.0494C38.4659 15.064 39.7958 15.064 41.1257 15.064C42.4264 15.064 43.7125 15.0786 45.0131 15.0494C45.4954 15.0348 45.6708 15.239 45.6416 15.6911C45.6123 16.114 45.6269 16.5223 45.6269 16.9452Z" fill="#083D31"/>
<path d="M18.4297 24.7032C18.0789 24.849 17.8743 24.9949 17.8889 25.4324C17.9036 25.8407 17.6259 26.1032 17.2021 26.1323C16.7344 26.1615 16.4421 25.899 16.4275 25.4615C16.4129 25.0386 16.2521 24.8928 15.8868 24.7178C15.463 24.5282 15.083 24.2074 14.7469 23.9012C14.4253 23.6095 14.4253 23.2012 14.7176 22.8804C15.0099 22.5596 15.3607 22.5596 15.7114 22.7929C15.8429 22.8804 15.9598 23.0116 16.0914 23.1137C16.5883 23.522 17.1436 23.6095 17.7282 23.3908C18.2397 23.2012 18.605 22.8512 18.6197 22.2679C18.6343 21.7429 18.2981 21.2908 17.7282 21.1013C17.509 21.0284 17.2605 20.9992 17.0267 20.9846C15.5506 20.8971 14.4107 19.9638 14.1769 18.6514C13.9577 17.3681 14.6446 16.2744 16.0183 15.6473C16.1791 15.5744 16.3252 15.3265 16.3544 15.1369C16.4275 14.5536 16.6467 14.2328 17.0851 14.2328C17.5236 14.2328 17.8012 14.5244 17.8305 15.1223C17.8451 15.4723 18.0059 15.6036 18.2981 15.7494C18.7512 15.9681 19.2042 16.2306 19.5696 16.566C19.9642 16.9014 19.9349 17.3681 19.628 17.6743C19.3211 17.9951 18.9412 17.9222 18.5027 17.616C18.0789 17.3243 17.6113 17.1056 17.3482 16.9743C16.3252 16.9598 15.6091 17.5431 15.5945 18.2139C15.5799 18.8409 16.1644 19.3951 16.9244 19.4972C17.3628 19.5555 17.8012 19.5847 18.2105 19.7159C19.3065 20.0805 20.0372 21.0575 20.0811 22.1075C20.1688 23.2449 19.555 24.2366 18.4297 24.7032Z" fill="#F8D419"/>
</g>
<defs>
<clipPath id="clip0_301_10078">
<rect width="54" height="54" fill="white"/>
</clipPath>
</defs>
</svg>
