<svg width="159" height="69" viewBox="0 0 159 69" fill="none" xmlns="http://www.w3.org/2000/svg">
<path d="M11.2032 27.272C9.71673 27.272 8.36617 27.0273 7.15158 26.5378C5.93698 26.0484 4.88554 25.3595 3.99726 24.4712C3.10897 23.5829 2.4201 22.5405 1.93064 21.3441C1.4593 20.1476 1.22363 18.8514 1.22363 17.4556C1.22363 16.0597 1.46836 14.7635 1.95783 13.567C2.46542 12.3706 3.17242 11.3373 4.07883 10.4671C5.00338 9.57883 6.08201 8.88995 7.31473 8.40049C8.54745 7.91103 9.89801 7.66629 11.3664 7.66629C12.3816 7.66629 13.3514 7.80226 14.276 8.07418C15.2005 8.3461 16.0435 8.71773 16.8049 9.18907C17.5663 9.6604 18.1917 10.2043 18.6812 10.8206L16.1523 13.4855C15.4453 12.8147 14.6929 12.2981 13.8953 11.9355C13.0976 11.5548 12.2366 11.3645 11.312 11.3645C10.46 11.3645 9.6714 11.5186 8.94627 11.8267C8.23927 12.1168 7.61385 12.5428 7.07 13.1048C6.54428 13.6486 6.12733 14.2922 5.81915 15.0354C5.5291 15.7787 5.38407 16.5854 5.38407 17.4556C5.38407 18.3076 5.53816 19.1052 5.84634 19.8485C6.17265 20.5917 6.60773 21.2444 7.15158 21.8063C7.71355 22.3502 8.36617 22.7853 9.10943 23.1116C9.85269 23.4198 10.6503 23.5738 11.5024 23.5738C12.1006 23.5738 12.6626 23.4832 13.1883 23.3019C13.7321 23.1025 14.2035 22.8397 14.6023 22.5133C15.0192 22.187 15.3456 21.8063 15.5812 21.3713C15.8169 20.9362 15.9347 20.4648 15.9347 19.9573V19.3046L16.4514 20.066H11.0673V16.6398H19.8232C19.8595 16.8392 19.8867 17.0839 19.9048 17.374C19.9229 17.664 19.932 17.945 19.932 18.2169C19.9501 18.4889 19.9592 18.7155 19.9592 18.8968C19.9592 20.1295 19.7417 21.2625 19.3066 22.2958C18.8715 23.311 18.2551 24.1902 17.4575 24.9335C16.6599 25.6767 15.7262 26.2568 14.6567 26.6738C13.5871 27.0726 12.436 27.272 11.2032 27.272Z" fill="white"/>
<path d="M40.717 27.272C39.3211 27.272 38.0249 27.0273 36.8285 26.5378C35.6501 26.0484 34.6259 25.3685 33.7557 24.4984C32.9037 23.6101 32.2329 22.5677 31.7435 21.3713C31.2722 20.1748 31.0365 18.8605 31.0365 17.4284C31.0365 16.0144 31.2722 14.7091 31.7435 13.5127C32.2329 12.3162 32.9037 11.2738 33.7557 10.3855C34.6259 9.49725 35.6501 8.80838 36.8285 8.31891C38.0249 7.82945 39.3211 7.58472 40.717 7.58472C42.1129 7.58472 43.3909 7.82945 44.5511 8.31891C45.7294 8.80838 46.7537 9.49725 47.6238 10.3855C48.494 11.2738 49.1647 12.3162 49.6361 13.5127C50.1255 14.7091 50.3703 16.0234 50.3703 17.4556C50.3703 18.8514 50.1255 20.1476 49.6361 21.3441C49.1647 22.5405 48.494 23.5829 47.6238 24.4712C46.7537 25.3595 45.7294 26.0484 44.5511 26.5378C43.3909 27.0273 42.1129 27.272 40.717 27.272ZM40.717 23.4107C41.5146 23.4107 42.2488 23.2657 42.9196 22.9756C43.5903 22.6674 44.1704 22.2505 44.6599 21.7248C45.1675 21.1809 45.5572 20.5464 45.8291 19.8213C46.1011 19.0962 46.237 18.3076 46.237 17.4556C46.237 16.5854 46.1011 15.7878 45.8291 15.0626C45.5572 14.3375 45.1675 13.703 44.6599 13.1592C44.1704 12.6153 43.5903 12.1984 42.9196 11.9083C42.2488 11.6001 41.5146 11.446 40.717 11.446C39.9193 11.446 39.1761 11.6001 38.4872 11.9083C37.8165 12.1984 37.2273 12.6153 36.7197 13.1592C36.2302 13.6849 35.8495 14.3194 35.5776 15.0626C35.3057 15.7878 35.1697 16.5854 35.1697 17.4556C35.1697 18.5976 35.4054 19.6219 35.8767 20.5283C36.3662 21.4166 37.0279 22.1236 37.8618 22.6493C38.6957 23.1569 39.6474 23.4107 40.717 23.4107Z" fill="white"/>
<path d="M61.3914 27.0003V7.9656H65.4703V23.3293H74.0903V27.0003H61.3914Z" fill="white"/>
<path d="M86.0942 27.0003V23.4925H89.2757V11.4734H86.0942V7.9656H96.5089V11.4734H93.3546V23.4925H96.5089V27.0003H86.0942Z" fill="white"/>
<path d="M109.678 27.0003V7.9656H113.757V27.0003H109.678ZM111.554 19.4408V15.9058H121.425V19.4408H111.554ZM111.554 11.6366V7.9656H122.567V11.6366H111.554Z" fill="white"/>
<path d="M135.056 27.0003V7.9656H147.891V11.555H139.054V23.4109H148.081V27.0003H135.056ZM136.96 19.0329V15.5523H146.586V19.0329H136.96Z" fill="white"/>
<path d="M67.5641 62.0179C65.7875 62.0179 64.2648 61.7007 62.9958 61.0662C61.7449 60.4136 60.6663 59.4709 59.7599 58.2382L62.316 55.3558C63.2043 56.5885 64.0835 57.4315 64.9536 57.8847C65.8419 58.3198 66.7936 58.5373 67.8088 58.5373C68.3708 58.5373 68.8693 58.4557 69.3044 58.2926C69.7576 58.1294 70.1111 57.9028 70.3649 57.6128C70.6368 57.3227 70.7728 56.9873 70.7728 56.6067C70.7728 56.3166 70.7094 56.0537 70.5825 55.8181C70.4556 55.5643 70.2743 55.3467 70.0386 55.1655C69.8029 54.966 69.5219 54.7938 69.1956 54.6488C68.8693 54.4856 68.5068 54.3497 68.1079 54.2409C67.7091 54.1321 67.274 54.0324 66.8027 53.9418C65.7875 53.7243 64.8992 53.4433 64.1379 53.0988C63.3765 52.7544 62.742 52.3374 62.2344 51.848C61.7268 51.3585 61.3461 50.7965 61.0923 50.1621C60.8566 49.5094 60.7388 48.7843 60.7388 47.9867C60.7388 46.8627 61.0561 45.8838 61.6905 45.0499C62.325 44.1979 63.168 43.5362 64.2194 43.0648C65.2709 42.5754 66.4311 42.3306 67.7001 42.3306C69.4223 42.3306 70.8363 42.6207 71.9421 43.2008C73.066 43.7809 73.9634 44.5967 74.6341 45.6481L72.0237 48.2042C71.4617 47.4247 70.8181 46.8355 70.093 46.4367C69.3679 46.0379 68.5883 45.8385 67.7544 45.8385C67.1743 45.8385 66.6577 45.92 66.2045 46.0832C65.7694 46.2282 65.434 46.4548 65.1984 46.763C64.9627 47.0531 64.8449 47.3975 64.8449 47.7963C64.8449 48.1226 64.9264 48.4127 65.0896 48.6665C65.2527 48.9203 65.4793 49.1469 65.7694 49.3463C66.0776 49.5276 66.4492 49.6907 66.8843 49.8357C67.3194 49.9808 67.7998 50.0986 68.3255 50.1893C69.3225 50.3887 70.2199 50.6606 71.0175 51.005C71.8152 51.3313 72.495 51.7302 73.057 52.2015C73.6371 52.6728 74.0812 53.2167 74.3894 53.833C74.6976 54.4494 74.8517 55.1383 74.8517 55.8997C74.8517 57.1868 74.5435 58.2835 73.9271 59.1899C73.3108 60.0963 72.4587 60.7943 71.371 61.2837C70.2833 61.7732 69.0144 62.0179 67.5641 62.0179Z" fill="white"/>
<path d="M87.2476 61.746V42.7113H95.3237C96.4658 42.7113 97.49 42.9833 98.3965 43.5271C99.3029 44.0528 100.019 44.778 100.545 45.7025C101.089 46.6089 101.36 47.6422 101.36 48.8024C101.36 49.9808 101.089 51.0503 100.545 52.0111C100.019 52.9538 99.3029 53.7061 98.3965 54.2681C97.49 54.812 96.4658 55.0839 95.3237 55.0839H91.3264V61.746H87.2476ZM91.272 51.3857H94.8886C95.3056 51.3857 95.6863 51.2769 96.0307 51.0594C96.3752 50.8419 96.6561 50.5427 96.8737 50.1621C97.0912 49.7814 97.2 49.3463 97.2 48.8568C97.2 48.3674 97.0912 47.9413 96.8737 47.5788C96.6561 47.2162 96.3752 46.9262 96.0307 46.7086C95.6863 46.4911 95.3056 46.3823 94.8886 46.3823H91.272V51.3857Z" fill="white"/>
<path d="M109.678 61.746L117.156 42.7113H120.8L128.224 61.746H124.063L120.202 51.4945C120.093 51.1863 119.957 50.8056 119.794 50.3524C119.649 49.8992 119.495 49.4188 119.332 48.9112C119.168 48.4036 119.014 47.9232 118.869 47.47C118.742 46.9987 118.634 46.618 118.543 46.3279L119.277 46.3007C119.168 46.6996 119.042 47.1256 118.897 47.5788C118.77 48.0139 118.625 48.4671 118.461 48.9384C118.316 49.4097 118.162 49.8629 117.999 50.298C117.854 50.7331 117.709 51.15 117.564 51.5489L113.73 61.746H109.678ZM113.159 57.7487L114.519 54.4313H123.193L124.58 57.7487H113.159Z" fill="white"/>
<path d="M139.624 61.746V42.7113H143.268L153.818 56.9602H153.084C152.957 56.0356 152.848 55.1201 152.758 54.2137C152.667 53.2892 152.604 52.3103 152.567 51.2769C152.549 50.2436 152.54 49.0925 152.54 47.8235V42.7113H156.51V61.746H152.812L142.071 47.4156H143.05C143.177 48.6121 143.277 49.6001 143.349 50.3796C143.422 51.1591 143.476 51.8117 143.512 52.3374C143.549 52.845 143.576 53.2982 143.594 53.6971C143.612 54.0959 143.621 54.5128 143.621 54.9479V61.746H139.624Z" fill="white"/>
<circle cx="33.9906" cy="5.28752" r="2.26603" fill="#F8D419"/>
<circle cx="49.0973" cy="5.28752" r="2.26603" fill="#F8D419"/>
<mask id="path-4-inside-1_173_2829" fill="white">
<path d="M55.8954 18.1284C55.8954 20.1122 55.5047 22.0767 54.7455 23.9095C53.9863 25.7424 52.8735 27.4078 51.4707 28.8106C50.0679 30.2134 48.4025 31.3261 46.5697 32.0853C44.7368 32.8445 42.7724 33.2353 40.7885 33.2353C38.8047 33.2353 36.8402 32.8445 35.0074 32.0853C33.1745 31.3261 31.5091 30.2134 30.1063 28.8106C28.7035 27.4077 27.5908 25.7424 26.8316 23.9095C26.0724 22.0767 25.6816 20.1122 25.6816 18.1284H29.2851C29.2851 19.639 29.5826 21.1349 30.1607 22.5305C30.7388 23.9262 31.5862 25.1943 32.6544 26.2625C33.7226 27.3307 34.9907 28.1781 36.3864 28.7562C37.782 29.3343 39.2779 29.6318 40.7885 29.6318C42.2992 29.6318 43.795 29.3343 45.1907 28.7562C46.5864 28.1781 47.8545 27.3307 48.9227 26.2625C49.9909 25.1943 50.8382 23.9262 51.4163 22.5305C51.9944 21.1349 52.292 19.639 52.292 18.1284H55.8954Z"/>
</mask>
<path d="M55.8954 18.1284C55.8954 20.1122 55.5047 22.0767 54.7455 23.9095C53.9863 25.7424 52.8735 27.4078 51.4707 28.8106C50.0679 30.2134 48.4025 31.3261 46.5697 32.0853C44.7368 32.8445 42.7724 33.2353 40.7885 33.2353C38.8047 33.2353 36.8402 32.8445 35.0074 32.0853C33.1745 31.3261 31.5091 30.2134 30.1063 28.8106C28.7035 27.4077 27.5908 25.7424 26.8316 23.9095C26.0724 22.0767 25.6816 20.1122 25.6816 18.1284H29.2851C29.2851 19.639 29.5826 21.1349 30.1607 22.5305C30.7388 23.9262 31.5862 25.1943 32.6544 26.2625C33.7226 27.3307 34.9907 28.1781 36.3864 28.7562C37.782 29.3343 39.2779 29.6318 40.7885 29.6318C42.2992 29.6318 43.795 29.3343 45.1907 28.7562C46.5864 28.1781 47.8545 27.3307 48.9227 26.2625C49.9909 25.1943 50.8382 23.9262 51.4163 22.5305C51.9944 21.1349 52.292 19.639 52.292 18.1284H55.8954Z" stroke="#F8D419" stroke-width="7.55344" mask="url(#path-4-inside-1_173_2829)"/>
</svg>
