<svg width="20" height="20" viewBox="0 0 20 20" fill="none" xmlns="http://www.w3.org/2000/svg">
<g clip-path="url(#clip0_114_8)">
<path d="M9.9993 8.59438C10.6208 8.59438 11.153 8.37328 11.596 7.93107C12.039 7.48886 12.2601 6.95663 12.2593 6.33437C12.2586 5.71211 12.0375 5.18025 11.596 4.7388C11.1545 4.29734 10.6223 4.07586 9.9993 4.07435C9.37628 4.07284 8.84443 4.29433 8.40372 4.7388C7.96302 5.18327 7.74154 5.71512 7.73928 6.33437C7.73702 6.95361 7.9585 7.48585 8.40372 7.93107C8.84895 8.37629 9.38081 8.5974 9.9993 8.59438ZM5.91432 18.7645V17.6345H9.43429V13.3924C8.46776 13.3156 7.57882 12.9212 6.76747 12.2093C5.95462 11.4974 5.45855 10.6649 5.27925 9.71196C4.08446 9.57109 3.06557 9.08104 2.22258 8.24182C1.37959 7.4026 0.958476 6.39011 0.95923 5.20436V2.94434H5.08828V0.684326H14.9103V2.94434H19.0394V5.20436C19.0394 6.38936 18.6182 7.40185 17.776 8.24182C16.9338 9.08179 15.9149 9.57146 14.7193 9.71083C14.54 10.6646 14.0443 11.4974 13.2323 12.2093C12.4202 12.9212 11.5308 13.3156 10.5643 13.3924V17.6345H14.0854V18.7645H5.91432ZM5.08828 8.49946V4.07435H2.08924V5.20436C2.08924 6.06467 2.37626 6.80407 2.9503 7.42257C3.52435 8.04106 4.23701 8.40002 5.08828 8.49946ZM10.0038 12.2884C11.0434 12.2884 11.9256 11.9249 12.6503 11.1979C13.375 10.4717 13.7374 9.58917 13.7374 8.55031V1.81433H6.26123V8.55144C6.26123 9.58955 6.62509 10.4721 7.35282 11.1991C8.08054 11.9253 8.96421 12.2884 10.0038 12.2884ZM14.9103 8.49946C15.7623 8.39927 16.475 8.0403 17.0483 7.42257C17.6216 6.80483 17.9086 6.06543 17.9094 5.20436V4.07435H14.9103V8.49946Z" fill="white"/>
</g>
<defs>
<clipPath id="clip0_114_8">
<rect width="18.7755" height="18.7755" fill="white" transform="translate(0.611572 0.336639)"/>
</clipPath>
</defs>
</svg>
