<svg width="51" height="50" viewBox="0 0 51 50" fill="none" xmlns="http://www.w3.org/2000/svg">
<g clip-path="url(#clip0_129_341)">
<path d="M47.5716 31.5315C46.5946 32.9009 45.5998 34.2522 44.7116 35.6757C43.8412 37.0991 43.1662 38.5946 42.8997 40.2703C42.3668 40.3063 41.8339 40.3063 41.2832 40.2703C41.5497 38.1802 42.3668 36.2883 43.5214 34.5586C44.4096 33.2072 45.3334 31.8919 46.2571 30.5766C48.9749 26.7748 49.8809 22.5586 49.1703 17.9279C48.7085 14.991 47.8558 12.1622 46.79 9.38739C46.6479 9.02702 46.4702 8.7027 46.186 8.43243C45.6886 7.98198 45.1024 7.81982 44.4629 8.03603C43.8767 8.23423 43.6103 8.72072 43.5214 9.31531C43.4859 9.49549 43.4504 9.67567 43.4326 9.83784C43.2905 12.4504 43.3793 15.0631 43.4504 17.6757C43.4504 17.9099 43.5214 18.0901 43.7168 18.2522C44.9781 19.2432 45.1912 20.5766 44.8715 22.0721C44.605 23.2973 43.93 24.2883 43.1306 25.2072C42.2247 26.2703 41.2477 27.2973 40.324 28.3604C39.5601 29.2432 38.8318 30.1441 38.5298 31.3153C38.3877 31.9099 38.0147 32.1622 37.535 32.036C37.0732 31.9279 36.8778 31.5135 37.0021 30.9009C37.2153 29.8739 37.7482 29.027 38.3522 28.2162C39.0805 27.2432 39.9331 26.3964 40.7325 25.4955C41.5141 24.6306 42.3135 23.7838 42.8819 22.7568C43.2195 22.1441 43.4504 21.4955 43.3971 20.7748C43.326 19.982 43.0063 19.5315 42.2424 19.3153C41.1589 19.009 40.2351 19.3333 39.4713 20.1622C37.4107 22.4144 35.2968 24.6306 33.2895 26.955C32.1881 28.2342 31.2111 29.5856 30.7137 31.2432C30.4117 32.2522 30.3051 33.2793 30.7492 34.2703C31.6019 36.1802 31.8684 38.1802 31.9394 40.2522C31.4065 40.2883 30.8736 40.3063 30.3407 40.2522C30.2696 38.3784 30.0032 36.5586 29.2393 34.8108C28.6353 33.4234 28.813 32 29.2571 30.5946C29.8078 28.8468 30.8381 27.3874 31.9927 26.018C34.0711 23.5856 36.2738 21.2793 38.441 18.9189C39.2226 18.0721 40.2174 17.6757 41.3365 17.6036C41.7628 17.5856 41.8339 17.4595 41.8339 17.0631C41.7806 14.7748 41.6918 12.4685 41.7984 10.1802C41.8161 9.71171 41.8516 9.24324 41.9582 8.77477C42.5089 6.41441 45.1557 5.53153 47.0387 7.06306C47.5716 7.49549 47.9624 8.03603 48.2111 8.66666C49.348 11.6216 50.2717 14.6306 50.7336 17.7838C51.5152 22.8288 50.5026 27.3874 47.5716 31.5315Z" fill="#124539"/>
<path d="M21.4943 35.5135C20.8193 36.991 20.6949 38.6306 20.6772 40.2523C20.1443 40.2883 19.6113 40.2883 19.0784 40.2523C19.0962 38.3424 19.3094 36.4685 20.0732 34.7207C20.6239 33.4955 20.6239 32.2883 20.2153 31.0631C19.6824 29.4775 18.7409 28.1622 17.6573 26.9189C15.65 24.5946 13.5361 22.3964 11.4755 20.1261C11.0136 19.6216 10.4452 19.3334 9.80569 19.2433C8.50893 19.0991 7.40757 19.6397 7.6385 21.3874C7.76285 22.3424 8.278 23.0991 8.82868 23.8379C9.62806 24.8649 10.534 25.7838 11.4044 26.7388C12.0617 27.4415 12.6834 28.1802 13.1986 28.991C13.5894 29.6216 13.9091 30.2883 14.0335 31.027C14.1223 31.5315 13.8736 31.9279 13.465 32.018C13.0209 32.1261 12.6124 31.9099 12.5058 31.4234C12.2571 30.3063 11.6176 29.4234 10.9071 28.5946C10.0189 27.5856 9.09514 26.6126 8.22471 25.6036C7.33652 24.5946 6.51938 23.5316 6.18187 22.1802C5.80883 20.6487 5.98647 19.2613 7.31876 18.2523C7.53192 18.0901 7.54969 17.9099 7.56745 17.6757C7.65627 15.5856 7.72732 13.4955 7.67403 11.4054C7.65627 10.7388 7.62074 10.0541 7.53192 9.38741C7.46087 8.77479 7.17664 8.25227 6.57267 8.03606C5.9687 7.83786 5.3825 7.982 4.90287 8.39642C4.56536 8.6847 4.36996 9.04507 4.22785 9.45948C3.30413 11.8739 2.50475 14.3243 2.04289 16.8649C1.58103 19.3514 1.45669 21.8559 1.97184 24.3784C2.45146 26.7207 3.53506 28.7568 4.84958 30.6847C5.73777 31.982 6.66149 33.2433 7.51416 34.5586C8.65104 36.3063 9.48594 38.1622 9.73464 40.2703C9.20172 40.3063 8.65104 40.3063 8.11813 40.2703C7.8872 38.4685 7.12335 36.8829 6.14634 35.3874C5.11604 33.8198 4.01468 32.3063 2.96661 30.7388C1.42116 28.4685 0.444147 25.982 0.124398 23.2613C-0.159824 20.8288 0.0533423 18.4144 0.532966 16.018C1.03035 13.5316 1.81196 11.1171 2.71792 8.75678C3.19754 7.53155 4.03244 6.66669 5.3292 6.39642C7.30099 5.982 8.93527 7.31534 9.1129 9.44146C9.32607 11.9099 9.25501 14.3784 9.14843 16.8649C9.1129 17.5676 9.1129 17.5496 9.78793 17.6397C10.9248 17.7838 11.9018 18.2343 12.6834 19.0991C14.6019 21.2252 16.5382 23.3153 18.4567 25.4415C19.6113 26.7207 20.6594 28.0721 21.37 29.6757C22.2226 31.6036 22.4003 33.5135 21.4943 35.5135Z" fill="#124539"/>
<path d="M25.4911 -1.59674e-05C19.4336 -0.108124 13.8025 4.97296 13.7847 11.8739C13.7669 18.4144 19.0428 23.8018 25.4733 23.8018C32.2413 23.8018 37.233 18.0901 37.2152 11.8739C37.1975 5.45944 31.9571 -0.0901061 25.4911 -1.59674e-05ZM25.4733 22.1621C19.9132 22.1441 15.3479 17.4775 15.3657 11.8198C15.4012 6.18016 19.931 1.62161 25.5089 1.62161C31.14 1.63962 35.5987 6.19818 35.5809 11.9279C35.5809 17.5856 31.0334 22.1802 25.4733 22.1621Z" fill="#F6D421"/>
<path d="M23.7147 43.7117C23.7147 41.6757 22.6666 40.4865 20.6593 40.2523C20.1264 40.2883 19.5935 40.2883 19.0606 40.2523H9.68127C9.14835 40.2883 8.59768 40.2883 8.06476 40.2523C6.02192 40.5045 5.04491 42.0541 5.13373 43.8378C5.18702 44.8108 5.13373 45.7658 5.15149 46.7387C5.16925 48.6487 6.46601 49.982 8.33122 49.982C12.3991 49.982 16.4848 49.982 20.5527 49.982C22.4179 49.982 23.7147 48.6487 23.7147 46.7387C23.7325 45.7478 23.7147 44.7387 23.7147 43.7117ZM22.116 46.6847C22.0982 47.8018 21.5298 48.3784 20.4284 48.3784C18.4388 48.3784 16.4493 48.3784 14.442 48.3784C12.4524 48.3784 10.4629 48.3784 8.47333 48.3784C7.31868 48.3784 6.768 47.8198 6.75024 46.6487C6.73247 45.6396 6.73247 44.6306 6.75024 43.6036C6.768 42.4865 7.33644 41.9099 8.45556 41.9099C12.4347 41.9099 16.4315 41.9099 20.4106 41.9099C21.5653 41.9099 22.116 42.4685 22.1337 43.6396C22.1337 44.6667 22.1337 45.6757 22.116 46.6847Z" fill="#F6D421"/>
<path d="M45.813 43.3694C45.813 43.0991 45.7953 42.8288 45.7242 42.5586C45.2979 41.1532 44.3031 40.4505 42.8998 40.2523C42.3668 40.2883 41.8339 40.2883 41.2832 40.2523C38.1746 40.2883 35.0659 40.2883 31.9395 40.2523C31.4066 40.2883 30.8736 40.3063 30.3407 40.2523C28.4933 40.3423 27.1788 41.7838 27.2853 43.6937C27.3386 44.7568 27.2853 45.8018 27.3031 46.8649C27.3209 48.6487 28.6176 49.964 30.3762 49.982C34.4975 50 38.6187 50 42.7399 49.982C44.5163 49.982 45.7953 48.6667 45.813 46.8649C45.8308 45.7117 45.813 44.5405 45.813 43.3694ZM44.2143 46.7568C44.2143 47.8198 43.6636 48.3604 42.5978 48.3604C40.5905 48.3604 38.5654 48.3604 36.5581 48.3604C34.5863 48.3604 32.6145 48.3604 30.6427 48.3604C29.3992 48.3604 28.9018 47.8559 28.9018 46.6126C28.9018 45.6036 28.9018 44.5946 28.9018 43.5856C28.9018 42.4505 29.4348 41.9099 30.5894 41.9099C34.3376 41.9099 38.068 41.9099 41.8162 41.9099C42.1181 41.9099 42.4379 41.8919 42.7399 41.9099C43.6636 41.946 44.2143 42.5225 44.2143 43.4595C44.232 44.5586 44.232 45.6577 44.2143 46.7568Z" fill="#F6D421"/>
<path d="M27.8713 11.6937C27.4805 11.5316 27.072 11.4235 26.6634 11.3153C26.3969 11.2433 26.2548 11.1532 26.2548 10.8289C26.2726 9.58562 26.2726 8.36039 26.2548 7.11715C26.2548 6.79283 26.3792 6.72075 26.6456 6.79283C27.3207 6.95499 27.9424 7.22526 28.5108 7.63967C29.026 8.01805 29.5056 8.00003 29.7898 7.60364C30.0918 7.18922 29.9675 6.75679 29.4523 6.34238C28.7595 5.80184 27.9779 5.45949 27.1253 5.24328C26.3437 5.04508 26.3437 5.04508 26.2548 4.19823C26.2193 3.71175 25.9351 3.42346 25.5265 3.38742C25.0824 3.35139 24.7449 3.63967 24.6739 4.14418C24.6561 4.2703 24.6383 4.41445 24.6739 4.54057C24.7449 4.95499 24.5495 5.09913 24.1765 5.13517C23.6258 5.20724 23.1106 5.42346 22.631 5.72976C21.3698 6.55859 20.9079 7.78382 21.0323 9.2613C21.1388 10.6126 21.8672 11.4955 23.0573 12.0181C23.4126 12.1802 23.8034 12.3244 24.1942 12.3964C24.6028 12.4685 24.6916 12.6667 24.6739 13.0271C24.6561 13.5856 24.6739 14.1442 24.6739 14.7208C24.6739 15.3694 24.6739 16.0181 24.6739 16.6847C24.6739 16.955 24.6028 17.0271 24.3186 16.955C23.6258 16.7748 22.9863 16.5045 22.4001 16.0721C21.9027 15.6937 21.4764 15.7478 21.1744 16.1442C20.8902 16.5226 20.979 16.991 21.4408 17.3694C22.0981 17.8919 22.8264 18.2703 23.6258 18.4505C24.283 18.5946 24.8337 18.6847 24.6916 19.6217C24.6206 20.0361 25.0824 20.3784 25.4732 20.3604C25.8996 20.3604 26.2015 20.0181 26.2371 19.5135C26.2371 19.4235 26.2548 19.3334 26.2371 19.2433C26.2015 18.8649 26.2726 18.6307 26.7345 18.5766C27.2851 18.5226 27.8003 18.2883 28.2799 17.982C29.5234 17.1712 30.0208 15.982 29.9142 14.5226C29.8609 13.1712 29.1326 12.2163 27.8713 11.6937ZM24.6916 7.17121C24.6561 7.71175 24.6916 8.25229 24.6916 8.79283C24.6916 9.3694 24.6916 9.964 24.6916 10.5406C24.6916 10.7568 24.6383 10.8649 24.3896 10.8289C23.3416 10.6487 22.6843 10 22.6488 9.02706C22.5955 7.87391 23.1639 7.08112 24.2475 6.81084C24.585 6.70274 24.7094 6.77481 24.6916 7.17121ZM26.6812 16.991C26.3969 17.0631 26.2726 17.0451 26.2904 16.7027C26.3081 16.1262 26.2904 15.5316 26.2904 14.937C26.2904 14.3784 26.2904 13.8199 26.2904 13.2433C26.2904 13.009 26.2904 12.8829 26.6101 12.955C27.7648 13.2072 28.351 13.8018 28.3865 14.8108C28.422 15.928 27.7825 16.7027 26.6812 16.991Z" fill="#124539"/>
<path d="M11.795 44.3423C11.7595 43.2793 11.12 42.7207 9.9476 42.7207C8.40215 42.7027 7.70936 43.1892 7.67383 44.3243C7.65607 44.9009 7.6383 45.4955 7.67383 46.072C7.70936 46.9189 8.33109 47.5315 9.16599 47.5675C9.5568 47.5856 9.96537 47.5856 10.3562 47.5675C11.1555 47.5135 11.7418 46.9009 11.795 46.0901C11.8128 45.7838 11.795 45.4594 11.795 45.1531H11.8128C11.795 44.8829 11.795 44.6126 11.795 44.3423ZM10.1963 44.8468C10.1785 45.027 10.1963 45.2072 10.1963 45.3874C10.1963 46.018 10.1785 46.018 9.5568 45.982C9.34363 45.9639 9.21929 45.9279 9.23705 45.6757C9.25481 45.4955 9.23705 45.3153 9.23705 45.1351C9.23705 45.045 9.25481 44.9549 9.23705 44.8648C9.166 44.4684 9.30811 44.3243 9.73444 44.3243C10.143 44.3243 10.2318 44.4865 10.1963 44.8468Z" fill="#124539"/>
<path d="M43.3436 45.1712C43.4502 43.2252 42.793 42.5946 40.8389 42.7027C39.8442 42.7567 39.2224 43.3513 39.1869 44.3423C39.1691 44.8468 39.1691 45.3694 39.1869 45.8919C39.2402 46.973 39.8619 47.5135 40.9278 47.5856C43.0594 47.7117 43.468 46.7748 43.3436 45.1712ZM41.3008 45.964C40.9811 45.9459 40.7146 45.964 40.7679 45.5135C40.8034 45.3153 40.7679 45.1171 40.7679 44.9009C40.7679 44.3603 41.0521 44.1621 41.5495 44.3243C41.6738 44.3603 41.7271 44.4324 41.7271 44.5585C41.7271 44.7567 41.7271 44.9549 41.7271 45.1712C41.7271 45.2793 41.7094 45.4054 41.7271 45.5135C41.816 45.8919 41.6383 45.982 41.3008 45.964Z" fill="#124539"/>
</g>
<defs>
<clipPath id="clip0_129_341">
<rect width="51" height="50" fill="white"/>
</clipPath>
</defs>
</svg>
