<svg width="28" height="23" viewBox="0 0 28 23" fill="none" class="lg:w-6 w-5"
    xmlns="http://www.w3.org/2000/svg">
    <g>
        <path
            d="M14.0855 0.458496C14.8198 0.462621 16.6568 0.480496 18.6093 0.558871L19.3023 0.589121C21.2671 0.681246 23.2306 0.840746 24.2055 1.11162C25.5049 1.47737 26.5251 2.54162 26.8702 3.89187C27.4202 6.03687 27.489 10.2196 27.4972 11.233L27.4986 11.442V11.6812C27.489 12.6946 27.4202 16.8787 26.8702 19.0224C26.521 20.3767 25.4994 21.4424 24.2055 21.8026C23.2306 22.0735 21.2671 22.233 19.3023 22.3251L18.6093 22.3567C16.6568 22.4337 14.8198 22.453 14.0855 22.4557L13.7624 22.4571H13.4117C11.858 22.4475 5.35975 22.3774 3.29175 21.8026C1.99375 21.4369 0.972125 20.3726 0.627 19.0224C0.0770001 16.8774 0.00825 12.6946 0 11.6812V11.233C0.00825 10.2196 0.0770001 6.0355 0.627 3.89187C0.97625 2.5375 1.99788 1.47187 3.29312 1.113C5.35975 0.536871 11.8594 0.466746 13.4131 0.458496H14.0855ZM10.9986 6.646V16.271L19.2486 11.4585L10.9986 6.646Z"
            fill="white" />
    </g>
</svg>
